<svg width="635" height="448" viewBox="0 0 635 448" fill="none" xmlns="http://www.w3.org/2000/svg">
<g opacity="0.6">
<path d="M549.799 405.413C540.138 402.464 530.289 400.168 520.32 398.541C475.068 391.328 370.821 388.864 320.291 391.041C254.685 393.926 46.8 442.221 31.0897 398.048C15.3793 353.875 20.0047 30.2042 50.495 23.4842C80.9852 16.7642 189.088 43.1962 252.842 45.1405C316.596 47.0848 469.047 21.5667 531.879 18.6816C594.712 15.7965 600.25 26.3693 615.083 83.0323C629.917 139.695 645.574 326.019 642.818 369.233C640.393 405.969 573.285 412.5 549.799 405.413Z" fill="#FBFADA"/>
<path opacity="0.7" d="M549.799 405.413C540.138 402.464 530.289 400.168 520.32 398.541C475.068 391.328 370.821 388.864 320.291 391.041C254.685 393.926 46.8 442.221 31.0897 398.048C15.3793 353.875 20.0047 30.2042 50.495 23.4842C80.9852 16.7642 189.088 43.1962 252.842 45.1405C316.596 47.0848 469.047 21.5667 531.879 18.6816C594.712 15.7965 600.25 26.3693 615.083 83.0323C629.917 139.695 645.574 326.019 642.818 369.233C640.393 405.969 573.285 412.5 549.799 405.413Z" fill="white"/>
<path d="M191.369 143.494C188.544 142.132 186.266 139.847 184.91 137.016C182.449 132.079 176.026 122.134 163.966 121.614C144.131 120.718 137.305 138.808 131.99 142.536C126.676 146.263 125.611 138.808 112.308 139.848C99.0038 140.887 95.8278 147.302 91.5692 148.906C87.3105 150.51 83.0609 144.641 75.0894 146.218C67.1179 147.795 62.3314 154.211 60.7747 154.211C59.218 154.211 45.3596 159.004 45.3596 159.004H225.563C225.563 159.004 222.378 143.028 214.398 139.83C207.563 137.151 201.076 147.939 191.369 143.494Z" stroke="#263238" stroke-miterlimit="10"/>
<path d="M548.923 52.8013C546.361 51.5676 544.295 49.498 543.063 46.9325C540.835 42.4525 535.011 33.4477 524.078 32.9728C506.095 32.1843 499.922 48.5632 495.091 51.9411C490.259 55.319 489.311 48.5632 477.26 49.5309C465.209 50.4985 462.319 56.2867 458.472 57.7293C454.625 59.1718 450.769 53.8675 443.54 55.319C436.311 56.7705 431.972 62.5587 430.523 62.5587C429.073 62.5587 416.548 66.9043 416.548 66.9043H579.923C579.923 66.9043 577.06 52.4249 569.795 49.5309C563.64 47.0489 557.726 56.8333 548.923 52.8013Z" stroke="#263238" stroke-miterlimit="10"/>
<path d="M405.114 93.6141C405.114 93.6141 410.625 87.127 404.935 76.2406C404.935 76.2406 391.238 85.6307 392.41 83.9731C395.021 79.4311 397.383 74.75 399.486 69.9507C399.616 69.4179 399.616 68.8617 399.486 68.3289C397.826 66.4125 396.032 64.6161 394.118 62.9529C391.256 65.2019 387.069 68.3289 387.587 66.8685C387.936 65.8829 389.064 62.8365 390.191 59.799C389.296 59.1629 388.768 58.8224 388.768 58.8224L338.98 121.336L405.114 93.6141Z" fill="#FBFADA"/>
<path d="M351.488 101.248C351.488 101.248 344.044 98.2733 331.59 99.3216C329.899 102.691 328.271 105.907 327.806 106.74C326.911 108.273 323.028 103.613 319.942 101.364C318.689 101.687 317.401 102.054 316.086 102.467C315.943 104.626 316.399 107.771 315.764 109.348C314.869 111.642 313.5 107.556 310.941 104.25C306.892 105.816 302.952 107.654 299.15 109.751C287.26 116.292 278.232 123.039 271.415 130.52C271.683 132.671 271.8 135.314 271.039 136.936C270.279 138.557 266.861 139.624 263.238 141.702C257.87 151.092 254.971 161.755 253.799 174.451C253.363 179.856 253.765 185.297 254.989 190.579C257.673 193.034 262.647 191.878 263.712 193.554C264.893 195.418 258.147 197.855 258.147 197.855L257.056 197.971C263.837 218.275 278.313 234.842 278.313 234.842L351.783 177.793C351.783 177.793 332.315 201.358 335.303 199.772C338.291 198.186 367.708 164.102 367.708 164.102L367.932 126.623L358.001 137.841L351.488 101.248Z" fill="#FBFADA"/>
<path d="M294.524 200.193C294.524 200.193 289.854 202.675 288.127 204.494C286.401 206.313 285.622 210.766 285.622 210.766C287.61 210.14 289.483 209.196 291.169 207.971C293.451 206.134 294.524 200.193 294.524 200.193Z" fill="white"/>
<path d="M309.832 198.016C309.832 198.016 305.171 200.489 303.444 202.308C301.717 204.127 300.93 208.58 300.93 208.58C302.919 207.958 304.793 207.014 306.477 205.784C308.794 203.992 309.832 198.016 309.832 198.016Z" fill="white"/>
<path d="M287.098 182.408C287.098 182.408 281.856 183.116 279.61 184.2C277.364 185.284 275.137 189.226 275.137 189.226C277.219 189.324 279.304 189.085 281.31 188.518C284.074 187.622 287.098 182.408 287.098 182.408Z" fill="white"/>
<path d="M306.871 179.854C306.871 179.854 301.637 180.571 299.391 181.646C297.146 182.721 294.918 186.664 294.918 186.664C297 186.762 299.085 186.523 301.091 185.956C303.811 185.078 306.871 179.854 306.871 179.854Z" fill="white"/>
<path d="M324.513 166.844C324.513 166.844 319.28 167.561 317.034 168.636C314.788 169.711 312.516 173.663 312.516 173.663C314.595 173.761 316.677 173.522 318.68 172.955C321.49 172.032 324.513 166.844 324.513 166.844Z" fill="white"/>
<path d="M287.787 164.864C287.787 164.864 282.858 162.965 280.353 162.848C277.848 162.732 273.983 165.07 273.983 165.07C275.756 166.164 277.697 166.96 279.726 167.427C282.634 167.964 287.787 164.864 287.787 164.864Z" fill="white"/>
<path d="M297.316 143.575C297.316 143.575 294.256 139.265 292.234 137.778C290.212 136.291 285.694 136.102 285.694 136.102C286.572 137.994 287.75 139.731 289.183 141.245C291.294 143.36 297.316 143.575 297.316 143.575Z" fill="white"/>
<path d="M309.796 161.97C309.796 161.97 305.752 158.574 303.417 157.651C301.082 156.728 296.671 157.651 296.671 157.651C297.996 159.258 299.574 160.638 301.342 161.737C303.909 163.242 309.796 161.97 309.796 161.97Z" fill="white"/>
<path d="M314.198 134.714C314.198 134.714 313.67 129.445 312.65 127.151C311.63 124.858 307.801 122.456 307.801 122.456C307.626 124.536 307.789 126.63 308.284 128.657C309.098 131.497 314.198 134.714 314.198 134.714Z" fill="white"/>
<path d="M333.907 131.515C333.907 131.515 335.849 126.596 335.983 124.087C336.117 121.578 333.818 117.681 333.818 117.681C332.714 119.454 331.901 121.393 331.411 123.424C330.839 126.336 333.907 131.515 333.907 131.515Z" fill="white"/>
<path d="M326.902 148.978C326.902 148.978 328.844 144.059 328.978 141.55C329.112 139.041 326.804 135.153 326.804 135.153C325.699 136.921 324.889 138.858 324.406 140.887C323.869 143.79 326.902 148.978 326.902 148.978Z" fill="white"/>
<path d="M347.292 145.251C347.292 145.251 350.629 141.138 351.505 138.79C352.382 136.443 351.371 132.035 351.371 132.035C349.786 133.387 348.429 134.988 347.354 136.774C345.932 139.373 347.292 145.251 347.292 145.251Z" fill="white"/>
<path d="M382.917 54.441C382.917 54.441 379.213 45.5974 367.941 35.84C363.655 37.2019 359.549 38.528 358.448 38.7789C356.417 39.3165 357.142 32.0947 356.525 27.5341C355.201 26.7277 353.814 25.9332 352.364 25.1507C350.405 26.8262 348.106 29.8458 346.227 30.6163C343.543 31.7453 345.869 27.1846 346.558 22.2477C341.847 20.0772 336.992 18.2331 332.029 16.7283C316.551 12.0064 303.265 9.90081 291.232 10.3398C289.63 12.3558 287.456 14.6586 285.443 15.3574C283.287 16.1011 279.682 14.0134 274.877 12.6694C262.352 15.8771 250.873 22.3104 239.091 31.8886C234.129 35.9989 229.831 40.8529 226.351 46.2784C226.512 50.6419 231.629 53.9123 231.083 56.215C230.475 58.7776 222.772 55.0413 222.772 55.0413L221.77 54.199C210.139 76.9306 208.028 103.13 208.028 103.13L317.938 118.46C317.938 118.46 281.605 121.435 285.452 122.671C289.299 123.908 342.845 120.718 342.845 120.718L375.053 89.6717L357.16 90.5677L382.917 54.441Z" fill="#FBFADA"/>
<path d="M250.999 88.1395C250.999 88.1395 244.986 86.2131 241.998 86.249C239.01 86.2848 234.555 89.3312 234.555 89.3312C236.745 90.5078 239.11 91.3217 241.56 91.7414C245.058 92.2074 250.999 88.1395 250.999 88.1395Z" fill="white"/>
<path d="M265.591 99.456C265.591 99.456 259.579 97.5296 256.59 97.5654C253.602 97.6013 249.147 100.648 249.147 100.648C251.337 101.824 253.702 102.638 256.152 103.058C259.65 103.515 265.591 99.456 265.591 99.456Z" fill="white"/>
<path d="M259.981 66.9492C259.981 66.9492 255.007 63.0695 252.189 62.066C249.37 61.0624 244.137 62.3885 244.137 62.3885C245.789 64.2539 247.732 65.8394 249.889 67.0836C253.012 68.7143 259.981 66.9492 259.981 66.9492Z" fill="white"/>
<path d="M278.608 81.7152C278.608 81.7152 273.634 77.8355 270.816 76.832C267.997 75.8285 262.764 77.1546 262.764 77.1546C264.413 79.0169 266.353 80.5994 268.507 81.8406C271.63 83.4803 278.608 81.7152 278.608 81.7152Z" fill="white"/>
<path d="M304.446 86.016C304.446 86.016 299.472 82.1363 296.654 81.1328C293.835 80.1293 288.602 81.4553 288.602 81.4553C290.252 83.3145 292.191 84.894 294.345 86.1325C297.477 87.808 304.446 86.016 304.446 86.016Z" fill="white"/>
<path d="M275.557 52.9178C275.557 52.9178 273.061 47.1117 271.084 44.8538C269.107 42.5959 263.873 41.2698 263.873 41.2698C264.408 43.6967 265.332 46.0207 266.611 48.1511C268.588 51.072 275.557 52.9178 275.557 52.9178Z" fill="white"/>
<path d="M301.628 43.3395C301.628 43.3395 302.764 37.1213 302.344 34.1555C301.923 31.1898 298.327 27.1667 298.327 27.1667C297.441 29.4953 296.94 31.9525 296.841 34.4423C296.841 37.9725 301.628 43.3395 301.628 43.3395Z" fill="white"/>
<path d="M296.34 69.3504C296.34 69.3504 295.866 63.0784 294.712 60.2918C293.558 57.5053 289.058 54.5485 289.058 54.5485C288.789 57.0239 288.925 59.5268 289.46 61.9584C290.346 65.408 296.34 69.3504 296.34 69.3504Z" fill="white"/>
<path d="M323.27 50.4C323.27 50.4 327.323 45.5616 328.423 42.7751C329.524 39.9885 328.423 34.7111 328.423 34.7111C326.49 36.2982 324.83 38.1932 323.511 40.32C321.758 43.3575 323.27 50.4 323.27 50.4Z" fill="white"/>
<path d="M342.425 64.6016C342.425 64.6016 348.24 62.1556 350.477 60.1844C352.713 58.2132 354.136 53.0164 354.136 53.0164C351.707 53.5342 349.378 54.4419 347.238 55.7044C344.295 57.6487 342.425 64.6016 342.425 64.6016Z" fill="white"/>
<path d="M321.686 73.1674C321.686 73.1674 327.502 70.7213 329.738 68.7411C331.975 66.761 333.397 61.5731 333.397 61.5731C330.967 62.0873 328.638 62.9952 326.5 64.2611C323.556 66.2144 321.686 73.1674 321.686 73.1674Z" fill="white"/>
<path d="M341.861 87.5034C341.861 87.5034 348.124 86.93 350.879 85.7114C353.635 84.4928 356.534 79.9591 356.534 79.9591C354.055 79.7336 351.557 79.9091 349.135 80.4787C345.744 81.4464 341.861 87.5034 341.861 87.5034Z" fill="white"/>
<path d="M380.484 177.784L355.782 138.459L346.889 124.714L370.285 97.7267L343.785 119.912L309.009 66.1696L334.435 113.147L271.728 97.2698L335.151 119.535L356.686 161.45L289.434 138.593L380.484 177.784Z" fill="#263238" stroke="#263238" stroke-linecap="round" stroke-linejoin="round"/>
<path d="M350.763 144.256C350.763 144.256 346.8 139.597 350.888 131.775C350.888 131.775 360.729 138.522 359.897 137.33C358.023 134.066 356.324 130.704 354.807 127.259C354.715 126.873 354.715 126.471 354.807 126.085C355.998 124.704 357.28 123.405 358.645 122.196C360.703 123.818 363.709 126.049 363.342 125.01C363.091 124.302 362.277 122.116 361.472 119.939C362.107 119.473 362.492 119.231 362.492 119.231L398.279 164.138L350.763 144.256Z" fill="#FBFADA"/>
<path d="M389.287 149.793C389.287 149.793 394.655 147.652 403.602 148.404C404.81 150.833 405.982 153.144 406.286 153.78C406.903 154.883 409.712 151.54 411.931 149.892C412.826 150.125 413.721 150.385 414.705 150.68C414.803 152.23 414.472 154.488 414.928 155.626C415.581 157.275 416.557 154.336 418.391 151.962C421.302 153.089 424.136 154.409 426.872 155.913C435.407 160.608 441.894 165.455 446.761 170.831C446.564 172.372 446.492 174.281 447.038 175.437C447.584 176.593 450.035 177.363 452.639 178.86C456.512 185.615 458.579 193.267 459.42 202.388C459.717 206.267 459.416 210.169 458.526 213.956C456.584 215.748 453.023 214.852 452.263 216.088C451.413 217.423 456.262 219.18 456.262 219.18L457.049 219.26C452.164 233.847 441.768 245.746 441.768 245.746L388.983 204.763C388.983 204.763 402.967 221.688 400.82 220.55C398.672 219.412 377.558 194.97 377.558 194.97L377.388 168.045L384.546 176.109L389.287 149.793Z" fill="#FBFADA"/>
<path d="M430.209 220.855C431.85 221.706 433.39 222.74 434.799 223.937C436.043 225.245 436.588 228.417 436.588 228.417C435.161 227.97 433.816 227.292 432.607 226.41C430.952 225.12 430.209 220.855 430.209 220.855Z" fill="white"/>
<path d="M419.205 219.314C420.849 220.164 422.392 221.198 423.804 222.396C425.047 223.704 425.593 226.876 425.593 226.876C424.166 226.429 422.821 225.751 421.612 224.869C419.956 223.579 419.205 219.314 419.205 219.314Z" fill="white"/>
<path d="M435.542 208.069C437.374 208.306 439.175 208.748 440.91 209.386C442.529 210.175 444.157 212.97 444.157 212.97C442.648 213.047 441.137 212.874 439.684 212.46C437.716 211.823 435.542 208.069 435.542 208.069Z" fill="white"/>
<path d="M421.388 206.241C423.221 206.475 425.021 206.913 426.756 207.549C428.366 208.347 429.995 211.133 429.995 211.133C428.5 211.206 427.005 211.034 425.566 210.623C423.535 209.987 421.388 206.241 421.388 206.241Z" fill="white"/>
<path d="M408.666 196.896C410.498 197.129 412.299 197.568 414.034 198.204C415.644 199.002 417.272 201.788 417.272 201.788C415.764 201.861 414.253 201.688 412.799 201.277C410.831 200.641 408.666 196.896 408.666 196.896Z" fill="white"/>
<path d="M435.041 195.462C436.769 194.777 438.57 194.29 440.409 194.011C442.198 193.93 444.989 195.606 444.989 195.606C443.716 196.391 442.323 196.963 440.865 197.299C438.753 197.693 435.041 195.462 435.041 195.462Z" fill="white"/>
<path d="M428.205 180.177C429.26 178.656 430.484 177.261 431.856 176.019C433.305 174.953 436.544 174.81 436.544 174.81C435.916 176.17 435.073 177.419 434.047 178.51C432.527 179.989 428.205 180.177 428.205 180.177Z" fill="white"/>
<path d="M419.232 193.393C420.638 192.187 422.178 191.147 423.821 190.292C425.494 189.629 428.662 190.292 428.662 190.292C427.709 191.45 426.576 192.445 425.307 193.24C423.464 194.307 419.232 193.393 419.232 193.393Z" fill="white"/>
<path d="M416.074 173.824C416.24 171.978 416.612 170.157 417.183 168.394C417.926 166.746 420.672 165.016 420.672 165.016C420.798 166.519 420.68 168.032 420.323 169.496C419.733 171.503 416.074 173.824 416.074 173.824Z" fill="white"/>
<path d="M401.911 171.512C401.219 169.796 400.721 168.008 400.426 166.181C400.327 164.389 401.983 161.576 401.983 161.576C402.772 162.849 403.355 164.241 403.709 165.697C404.121 167.785 401.911 171.512 401.911 171.512Z" fill="white"/>
<path d="M406.948 184.056C406.252 182.341 405.751 180.553 405.454 178.725C405.364 176.933 407.011 174.129 407.011 174.129C407.807 175.399 408.39 176.791 408.737 178.25C409.149 180.329 406.948 184.056 406.948 184.056Z" fill="white"/>
<path d="M392.293 181.377C391.116 179.951 390.102 178.397 389.269 176.745C388.634 175.052 389.368 171.889 389.368 171.889C390.51 172.858 391.486 174.008 392.258 175.293C393.277 177.157 392.293 181.377 392.293 181.377Z" fill="white"/>
<path d="M366.742 116.148C366.742 116.148 369.372 109.796 377.478 102.762C380.555 103.748 383.499 104.671 384.295 104.877C385.753 105.262 385.234 100.074 385.682 96.8128C386.63 96.2155 387.623 95.642 388.661 95.0925C390.075 96.3021 391.721 98.4704 393.072 99.0259C395.022 99.8323 393.331 96.5619 392.83 93.0048C396.217 91.4495 399.705 90.1264 403.271 89.0445C414.392 85.6486 423.938 84.1433 432.58 84.4569C433.734 85.9085 435.264 87.5571 436.74 88.0409C438.217 88.5248 440.883 87.0822 444.327 86.1056C453.319 88.4083 461.567 93.0227 470.058 99.904C473.624 102.87 476.711 106.37 479.21 110.28C479.094 113.407 475.417 115.763 475.811 117.448C476.249 119.293 481.778 116.605 481.778 116.605L482.503 115.996C490.886 132.33 492.344 151.155 492.344 151.155L413.407 162.176C413.407 162.176 439.505 164.317 436.749 165.204C433.994 166.092 395.514 163.807 395.514 163.807L372.405 141.505L385.225 142.115L366.742 116.148Z" fill="#FBFADA"/>
<path d="M461.478 140.358C461.478 140.358 465.79 138.97 467.937 138.996C470.085 139.023 473.305 141.21 473.305 141.21C471.731 142.058 470.03 142.645 468.268 142.948C465.737 143.27 461.478 140.358 461.478 140.358Z" fill="white"/>
<path d="M450.992 148.485C450.992 148.485 455.305 147.096 457.461 147.123C459.617 147.15 462.829 149.336 462.829 149.336C461.255 150.185 459.554 150.772 457.792 151.075C455.26 151.424 450.992 148.485 450.992 148.485Z" fill="white"/>
<path d="M455.018 125.135C455.018 125.135 458.597 122.349 460.619 121.623C462.641 120.897 466.399 121.856 466.399 121.856C465.214 123.195 463.822 124.332 462.274 125.225C460.029 126.399 455.018 125.135 455.018 125.135Z" fill="white"/>
<path d="M441.643 135.744C441.643 135.744 445.222 132.949 447.244 132.232C449.266 131.515 453.023 132.465 453.023 132.465C451.837 133.805 450.441 134.943 448.89 135.834C446.653 137.007 441.643 135.744 441.643 135.744Z" fill="white"/>
<path d="M423.079 138.826C423.079 138.826 426.658 136.031 428.679 135.314C430.701 134.597 434.459 135.547 434.459 135.547C433.273 136.874 431.88 137.999 430.335 138.88C428.089 140.09 423.079 138.826 423.079 138.826Z" fill="white"/>
<path d="M443.844 115.046C443.844 115.046 445.633 110.88 447.056 109.276C448.478 107.672 452.236 106.687 452.236 106.687C451.841 108.432 451.167 110.102 450.241 111.633C448.836 113.792 443.844 115.046 443.844 115.046Z" fill="white"/>
<path d="M425.101 108.174C425.101 108.174 424.287 103.694 424.591 101.58C424.895 99.465 427.472 96.553 427.472 96.553C428.107 98.2253 428.469 99.989 428.545 101.777C428.545 104.312 425.101 108.174 425.101 108.174Z" fill="white"/>
<path d="M428.903 126.856C428.903 126.856 429.243 122.331 430.075 120.351C430.907 118.371 434.137 116.22 434.137 116.22C434.327 117.999 434.228 119.796 433.842 121.542C433.206 123.997 428.903 126.856 428.903 126.856Z" fill="white"/>
<path d="M409.56 113.245C409.56 113.245 406.644 109.769 405.857 107.771C405.069 105.773 405.857 101.974 405.857 101.974C407.236 103.108 408.42 104.461 409.364 105.979C410.652 108.183 409.56 113.245 409.56 113.245Z" fill="white"/>
<path d="M395.8 123.451C395.8 123.451 391.622 121.659 390.003 120.27C388.384 118.881 387.373 115.109 387.373 115.109C389.121 115.488 390.795 116.151 392.329 117.071C394.449 118.451 395.8 123.451 395.8 123.451Z" fill="white"/>
<path d="M410.697 129.597C410.697 129.597 406.519 127.805 404.899 126.426C403.28 125.046 402.278 121.256 402.278 121.256C404.021 121.64 405.692 122.303 407.225 123.218C409.355 124.607 410.697 129.597 410.697 129.597Z" fill="white"/>
<path d="M396.203 139.901C396.203 139.901 391.685 139.489 389.717 138.62C387.749 137.751 385.664 134.49 385.664 134.49C387.441 134.326 389.233 134.453 390.969 134.866C393.412 135.547 396.203 139.901 396.203 139.901Z" fill="white"/>
<path d="M368.45 204.754L386.201 176.503L392.589 166.629L375.787 147.249L394.825 163.179L419.804 124.571L401.535 158.323L446.582 146.917L401.025 162.911L385.548 193.016L433.86 176.602L368.45 204.754Z" fill="#263238" stroke="#263238" stroke-linecap="round" stroke-linejoin="round"/>
<path d="M484.739 141.048C484.739 141.048 479.953 140.197 478.477 133.316C478.477 133.316 487.933 132.483 486.824 132.169C484.023 131.126 481.281 129.929 478.611 128.585C478.354 128.401 478.145 128.159 478.002 127.877C478.035 126.424 478.169 124.975 478.405 123.54C480.481 123.54 483.46 123.343 482.708 122.895L478.996 120.727C479.157 120.118 479.264 119.777 479.264 119.777L523.926 129.257L484.739 141.048Z" fill="#FBFADA"/>
<path d="M511.195 124.92C511.195 124.92 513.395 120.897 519.247 116.856C521.215 117.752 523.103 118.568 523.613 118.756C524.552 119.123 524.588 115.647 525.116 113.505C525.787 113.192 526.493 112.887 527.218 112.609C528.068 113.505 529.007 115.064 529.857 115.53C531.092 116.211 530.206 113.917 530.135 111.525C532.477 110.746 534.868 110.123 537.292 109.661C544.915 108.219 551.347 107.869 557.055 108.765C557.649 109.854 558.504 110.778 559.542 111.453C560.535 111.919 562.361 111.122 564.714 110.719C570.511 112.905 575.646 116.57 580.764 121.748C582.913 123.97 584.706 126.512 586.078 129.284C585.774 131.354 583.162 132.644 583.305 133.764C583.457 135.018 587.322 133.638 587.322 133.638L587.85 133.298C592.216 144.731 591.831 157.311 591.831 157.311L538.706 158.852C538.706 158.852 555.847 162.176 553.915 162.561C551.982 162.947 526.807 158.592 526.807 158.592L513.109 142.106L521.564 143.45L511.195 124.92Z" fill="#FBFADA"/>
<path d="M572.22 147.84C573.661 147.534 575.131 147.39 576.604 147.41C578.026 147.58 579.986 149.265 579.986 149.265C578.882 149.713 577.712 149.98 576.523 150.053C574.832 150.116 572.22 147.84 572.22 147.84Z" fill="white"/>
<path d="M564.678 152.49C566.119 152.185 567.589 152.04 569.062 152.06C570.484 152.23 572.443 153.915 572.443 153.915C571.34 154.365 570.17 154.631 568.981 154.703C567.299 154.739 564.678 152.49 564.678 152.49Z" fill="white"/>
<path d="M569.008 137.312C570.255 136.529 571.584 135.886 572.971 135.395C574.367 135.063 576.792 135.968 576.792 135.968C575.908 136.769 574.902 137.422 573.812 137.903C572.273 138.513 569.008 137.312 569.008 137.312Z" fill="white"/>
<path d="M559.408 143.36C560.654 142.575 561.983 141.932 563.372 141.443C564.767 141.12 567.192 142.025 567.192 142.025C566.307 142.821 565.301 143.472 564.213 143.951C562.638 144.57 559.408 143.36 559.408 143.36Z" fill="white"/>
<path d="M546.883 144.05C548.129 143.265 549.458 142.622 550.846 142.132C552.242 141.81 554.666 142.715 554.666 142.715C553.779 143.513 552.771 144.163 551.678 144.641C550.113 145.26 546.883 144.05 546.883 144.05Z" fill="white"/>
<path d="M562.37 129.812C563.082 128.525 563.937 127.323 564.919 126.228C565.984 125.27 568.543 124.893 568.543 124.893C568.155 126.02 567.587 127.076 566.861 128.02C565.778 129.311 562.37 129.812 562.37 129.812Z" fill="white"/>
<path d="M550.452 123.89C550.335 122.42 550.38 120.942 550.587 119.482C550.945 118.093 552.868 116.364 552.868 116.364C553.168 117.518 553.279 118.713 553.199 119.903C553.011 121.587 550.452 123.89 550.452 123.89Z" fill="white"/>
<path d="M551.607 136.55C551.864 135.098 552.284 133.679 552.859 132.321C553.557 131.067 555.847 129.884 555.847 129.884C555.847 131.075 555.654 132.258 555.275 133.388C554.693 134.964 551.607 136.55 551.607 136.55Z" fill="white"/>
<path d="M539.779 126.121C538.951 124.899 538.261 123.589 537.721 122.214C537.346 120.835 538.16 118.38 538.16 118.38C538.989 119.234 539.675 120.218 540.191 121.292C540.871 122.842 539.779 126.121 539.779 126.121Z" fill="white"/>
<path d="M529.92 131.873C528.636 131.171 527.436 130.327 526.341 129.356C525.366 128.298 524.972 125.772 524.972 125.772C526.101 126.153 527.161 126.712 528.113 127.429C529.392 128.469 529.92 131.873 529.92 131.873Z" fill="white"/>
<path d="M539.35 137.034C538.068 136.326 536.868 135.479 535.771 134.508C534.805 133.45 534.411 130.924 534.411 130.924C535.54 131.305 536.6 131.864 537.551 132.581C538.822 133.629 539.35 137.034 539.35 137.034Z" fill="white"/>
<path d="M528.989 142.813C527.546 142.529 526.139 142.084 524.793 141.487C523.55 140.78 522.405 138.459 522.405 138.459C523.594 138.481 524.773 138.696 525.894 139.095C527.46 139.722 528.989 142.813 528.989 142.813Z" fill="white"/>
<path d="M480.346 115.665C480.346 115.665 478.754 110.432 480.185 102.01C482.574 101.051 484.847 100.128 485.446 99.8592C486.529 99.3575 483.594 96.4275 482.216 94.1965C482.503 93.3543 482.825 92.5031 483.183 91.625C484.659 91.625 486.761 92.1447 487.871 91.8042C489.481 91.3203 486.788 90.1645 484.686 88.2202C485.986 85.5531 487.462 82.9759 489.105 80.5056C494.223 72.7821 499.322 67.0656 504.798 62.8365C506.225 63.2345 507.728 63.2714 509.173 62.944C510.389 62.496 511.23 60.256 512.85 57.9085C519.542 54.7725 526.95 53.4285 535.637 53.3658C539.325 53.3795 542.989 53.9659 546.498 55.104C548.01 57.0842 546.936 60.3904 548.01 61.2147C549.084 62.0391 551.249 57.6307 551.249 57.6307L551.392 56.896C564.812 62.6842 575.208 73.4989 575.208 73.4989L532.264 120.243C532.264 120.243 549.388 108.344 548.135 110.289C546.883 112.233 522.092 130.305 522.092 130.305L496.629 128.307L504.816 122.188L480.346 115.665Z" fill="#FBFADA"/>
<path d="M550.793 82.5664C551.73 81.0769 552.831 79.6974 554.076 78.4537C555.409 77.3785 558.478 77.1097 558.478 77.1097C557.936 78.4166 557.187 79.627 556.259 80.6937C554.881 82.199 550.793 82.5664 550.793 82.5664Z" fill="white"/>
<path d="M548.431 92.8704C549.369 91.3792 550.474 89.9995 551.723 88.7578C553.056 87.6826 556.125 87.4138 556.125 87.4138C555.583 88.7207 554.834 89.931 553.906 90.9978C552.546 92.503 548.431 92.8704 548.431 92.8704Z" fill="white"/>
<path d="M539.135 76.4825C539.504 74.7613 540.065 73.0871 540.808 71.4918C541.703 70.0224 544.476 68.7053 544.476 68.7053C544.423 70.1276 544.139 71.5318 543.635 72.8627C542.857 74.7264 539.135 76.4825 539.135 76.4825Z" fill="white"/>
<path d="M536.272 89.7703C536.641 88.0501 537.199 86.3763 537.936 84.7795C538.831 83.3191 541.613 81.993 541.613 81.993C541.56 83.4182 541.276 84.8253 540.772 86.1594C539.985 88.0141 536.272 89.7703 536.272 89.7703Z" fill="white"/>
<path d="M526.422 101.069C526.79 99.3486 527.348 97.6748 528.086 96.0781C528.98 94.6086 531.754 93.2915 531.754 93.2915C531.706 94.7136 531.425 96.1182 530.922 97.4489C530.135 99.3126 526.422 101.069 526.422 101.069Z" fill="white"/>
<path d="M527.173 75.945C526.685 74.2571 526.385 72.5202 526.279 70.7661C526.35 69.0547 528.158 66.5549 528.158 66.5549C528.793 67.8289 529.221 69.1959 529.428 70.6048C529.589 72.576 527.173 75.945 527.173 75.945Z" fill="white"/>
<path d="M512.188 81.2135C510.836 80.0874 509.614 78.8131 508.546 77.4144C507.652 75.9539 507.777 72.8717 507.777 72.8717C509.013 73.5821 510.125 74.49 511.069 75.5597C512.349 77.056 512.188 81.2135 512.188 81.2135Z" fill="white"/>
<path d="M523.953 90.7738C522.929 89.3433 522.071 87.8013 521.394 86.1773C520.902 84.5376 521.796 81.5808 521.796 81.5808C522.804 82.5784 523.641 83.7347 524.275 85.0035C525.169 86.8314 523.953 90.7738 523.953 90.7738Z" fill="white"/>
<path d="M505.191 92.1984C503.463 91.8909 501.773 91.3921 500.154 90.711C498.66 89.8777 497.238 87.127 497.238 87.127C498.661 87.1307 500.075 87.3636 501.425 87.8169C503.304 88.5427 505.191 92.1984 505.191 92.1984Z" fill="white"/>
<path d="M501.908 105.441C500.229 105.959 498.497 106.286 496.746 106.418C495.037 106.418 492.523 104.626 492.523 104.626C493.788 103.974 495.151 103.532 496.558 103.318C498.544 103.04 501.908 105.441 501.908 105.441Z" fill="white"/>
<path d="M514.156 101.669C512.475 102.192 510.74 102.522 508.985 102.655C507.276 102.601 504.771 100.809 504.771 100.809C506.034 100.161 507.394 99.7218 508.797 99.5097C510.801 99.2857 514.156 101.669 514.156 101.669Z" fill="white"/>
<path d="M510.443 115.342C509 116.347 507.448 117.185 505.818 117.842C504.171 118.308 501.237 117.358 501.237 117.358C502.249 116.357 503.415 115.525 504.69 114.894C506.533 114.079 510.443 115.342 510.443 115.342Z" fill="white"/>
<path d="M526.144 169.245L522.781 142.903L521.725 133.594L501.613 130.198L521.358 130.35L517.216 93.9725L523.031 123.962L544.95 94.1427L525.026 127.035L530.725 153.377L552.126 118.828L526.144 169.245Z" fill="#263238" stroke="#263238" stroke-linecap="round" stroke-linejoin="round"/>
<path d="M645.627 303.807H138.485V432.616H645.708" fill="#B0B0B0"/>
<path d="M645.627 303.807H138.485V432.616H645.708" stroke="#263238" stroke-miterlimit="10"/>
<path d="M645.627 303.807H138.485V328.169H645.627V303.807Z" fill="#263238" stroke="#263238" stroke-miterlimit="10"/>
<path d="M301.333 316.915H180.177V432.714H301.333V316.915Z" fill="#B0B0B0" stroke="#263238" stroke-miterlimit="10"/>
<path d="M303.408 316.915H185.375V432.714H303.408V316.915Z" fill="#FBFADA" stroke="#263238" stroke-miterlimit="10"/>
<path d="M299.248 325.508H249.854V382.789H299.248V325.508Z" fill="white" stroke="#263238" stroke-miterlimit="10"/>
<path d="M249.854 392.161V432.526H243.09V392.161H192.657V432.714H299.248V392.161H249.854Z" fill="white" stroke="#263238" stroke-miterlimit="10"/>
<path d="M243.099 325.508H192.657V382.789H243.099V325.508Z" fill="white" stroke="#263238" stroke-miterlimit="10"/>
<path d="M292.493 341.708L265.707 368.525" stroke="#263238" stroke-miterlimit="10"/>
<path d="M287.805 335.462L280.532 342.747" stroke="#263238" stroke-miterlimit="10"/>
<path d="M235.288 400.557L212.671 423.208" stroke="#263238" stroke-miterlimit="10"/>
<path d="M226.968 341.708L215.794 352.908" stroke="#263238" stroke-miterlimit="10"/>
<path d="M217.61 345.874L203.054 360.452" stroke="#263238" stroke-miterlimit="10"/>
<path d="M287.286 407.322L275.593 419.041" stroke="#263238" stroke-miterlimit="10"/>
<path d="M271.692 394.822L263.372 403.155" stroke="#263238" stroke-miterlimit="10"/>
<path d="M647.408 157.678H268.928L138.942 282.312H645.35" fill="white"/>
<path d="M647.408 157.678H268.928L138.942 282.312H645.35" stroke="#263238" stroke-miterlimit="10"/>
<path d="M260.965 166.065H646.477" stroke="#263238" stroke-miterlimit="10"/>
<path d="M246.346 179.334H646.012" stroke="#263238" stroke-miterlimit="10"/>
<path d="M228.972 195.821H646.012" stroke="#263238" stroke-miterlimit="10"/>
<path d="M210.113 214.583H648.794" stroke="#263238" stroke-miterlimit="10"/>
<path d="M187.129 236.096H647.408" stroke="#263238" stroke-miterlimit="10"/>
<path d="M162.847 259.75H647.685" stroke="#263238" stroke-miterlimit="10"/>
<path d="M647.408 153.718H272.569L268.928 157.678H647.408V153.718Z" fill="white" stroke="#263238" stroke-miterlimit="10"/>
<path d="M214.613 259.553L193.373 281.443" stroke="#263238" stroke-miterlimit="10"/>
<path d="M213.611 236.06L190.815 259.553" stroke="#263238" stroke-miterlimit="10"/>
<path d="M258.335 214.493L237.409 236.06" stroke="#263238" stroke-miterlimit="10"/>
<path d="M250.095 196.224L232.372 214.493" stroke="#263238" stroke-miterlimit="10"/>
<path d="M293.12 178.644L276.058 196.224" stroke="#263238" stroke-miterlimit="10"/>
<path d="M280.496 165.742L267.971 178.644" stroke="#263238" stroke-miterlimit="10"/>
<path d="M313.876 157.257L305.645 165.742" stroke="#263238" stroke-miterlimit="10"/>
<path d="M270.833 259.553L249.603 281.443" stroke="#263238" stroke-miterlimit="10"/>
<path d="M269.84 236.06L247.035 259.553" stroke="#263238" stroke-miterlimit="10"/>
<path d="M314.565 214.493L293.639 236.06" stroke="#263238" stroke-miterlimit="10"/>
<path d="M306.325 196.224L288.602 214.493" stroke="#263238" stroke-miterlimit="10"/>
<path d="M349.349 178.644L332.288 196.224" stroke="#263238" stroke-miterlimit="10"/>
<path d="M336.717 165.742L324.2 178.644" stroke="#263238" stroke-miterlimit="10"/>
<path d="M370.106 157.257L361.875 165.742" stroke="#263238" stroke-miterlimit="10"/>
<path d="M327.063 259.553L305.824 281.443" stroke="#263238" stroke-miterlimit="10"/>
<path d="M326.07 236.06L303.265 259.553" stroke="#263238" stroke-miterlimit="10"/>
<path d="M370.786 214.493L349.868 236.06" stroke="#263238" stroke-miterlimit="10"/>
<path d="M362.555 196.224L344.831 214.493" stroke="#263238" stroke-miterlimit="10"/>
<path d="M405.579 178.644L388.518 196.224" stroke="#263238" stroke-miterlimit="10"/>
<path d="M392.947 165.742L380.421 178.644" stroke="#263238" stroke-miterlimit="10"/>
<path d="M426.336 157.257L418.096 165.742" stroke="#263238" stroke-miterlimit="10"/>
<path d="M383.293 259.553L362.054 281.443" stroke="#263238" stroke-miterlimit="10"/>
<path d="M382.291 236.06L359.495 259.553" stroke="#263238" stroke-miterlimit="10"/>
<path d="M427.015 214.493L406.098 236.06" stroke="#263238" stroke-miterlimit="10"/>
<path d="M418.785 196.224L401.052 214.493" stroke="#263238" stroke-miterlimit="10"/>
<path d="M461.809 178.644L444.748 196.224" stroke="#263238" stroke-miterlimit="10"/>
<path d="M449.176 165.742L436.651 178.644" stroke="#263238" stroke-miterlimit="10"/>
<path d="M482.556 157.257L474.325 165.742" stroke="#263238" stroke-miterlimit="10"/>
<path d="M439.523 259.553L418.283 281.443" stroke="#263238" stroke-miterlimit="10"/>
<path d="M438.521 236.06L415.725 259.553" stroke="#263238" stroke-miterlimit="10"/>
<path d="M483.245 214.493L462.319 236.06" stroke="#263238" stroke-miterlimit="10"/>
<path d="M475.005 196.224L457.282 214.493" stroke="#263238" stroke-miterlimit="10"/>
<path d="M518.03 178.644L500.969 196.224" stroke="#263238" stroke-miterlimit="10"/>
<path d="M505.406 165.742L492.881 178.644" stroke="#263238" stroke-miterlimit="10"/>
<path d="M538.786 157.257L530.555 165.742" stroke="#263238" stroke-miterlimit="10"/>
<path d="M495.744 259.553L474.513 281.443" stroke="#263238" stroke-miterlimit="10"/>
<path d="M494.751 236.06L471.946 259.553" stroke="#263238" stroke-miterlimit="10"/>
<path d="M539.475 214.493L518.549 236.06" stroke="#263238" stroke-miterlimit="10"/>
<path d="M531.235 196.224L513.512 214.493" stroke="#263238" stroke-miterlimit="10"/>
<path d="M574.26 178.644L557.198 196.224" stroke="#263238" stroke-miterlimit="10"/>
<path d="M561.627 165.742L549.111 178.644" stroke="#263238" stroke-miterlimit="10"/>
<path d="M595.016 157.257L586.785 165.742" stroke="#263238" stroke-miterlimit="10"/>
<path d="M551.974 259.553L530.734 281.443" stroke="#263238" stroke-miterlimit="10"/>
<path d="M550.98 236.06L528.175 259.553" stroke="#263238" stroke-miterlimit="10"/>
<path d="M595.705 214.493L574.779 236.06" stroke="#263238" stroke-miterlimit="10"/>
<path d="M587.465 196.224L569.742 214.493" stroke="#263238" stroke-miterlimit="10"/>
<path d="M630.489 178.644L613.428 196.224" stroke="#263238" stroke-miterlimit="10"/>
<path d="M617.857 165.742L605.34 178.644" stroke="#263238" stroke-miterlimit="10"/>
<path d="M608.203 259.553L586.964 281.443" stroke="#263238" stroke-miterlimit="10"/>
<path d="M607.201 236.06L584.405 259.553" stroke="#263238" stroke-miterlimit="10"/>
<path d="M643.212 223.48L631.008 236.06" stroke="#263238" stroke-miterlimit="10"/>
<path d="M643.695 196.224L625.963 214.493" stroke="#263238" stroke-miterlimit="10"/>
<path d="M646.289 294.954H129.324C120.27 292.687 115.743 281.81 115.743 281.81H646.755" fill="#FBFADA"/>
<path d="M646.289 294.954H129.324C120.27 292.687 115.743 281.81 115.743 281.81H646.755" stroke="#263238" stroke-miterlimit="10"/>
<path d="M646.289 304.927H129.324V294.954H646.289" fill="#FBFADA"/>
<path d="M646.289 304.927H129.324V294.954H646.289" stroke="#263238" stroke-miterlimit="10"/>
<path d="M325.278 238.36L305.297 249.049L308.307 254.692L328.288 244.003L325.278 238.36Z" fill="#263238" stroke="#263238" stroke-miterlimit="10"/>
<path d="M386.593 207.093L325.93 239.56L327.65 242.784L388.313 210.317L386.593 207.093Z" fill="#B0B0B0" stroke="#263238" stroke-miterlimit="10"/>
<path d="M510.34 137.788L385.301 204.68L389.605 212.749L514.644 145.857L510.34 137.788Z" fill="#B0B0B0" stroke="#263238" stroke-miterlimit="10"/>
<path d="M468.251 106.301C468.251 106.301 468.251 110.602 468.483 117.179C468.716 123.756 468.931 125.789 470.514 127.823C472.098 129.857 473.458 131.909 472.554 134.857C471.65 137.805 471.418 139.382 473.914 140.52C475.24 141.187 476.741 141.425 478.208 141.201C478.208 141.201 483.192 146.182 485.222 148.001C487.253 149.82 488.166 152.078 490.429 151.173C492.693 150.268 497.22 146.863 497.22 146.863L525.733 134.176C525.733 134.176 515.552 123.523 513.288 118.048C511.025 112.573 510.801 101.92 506.274 97.6461C501.747 93.3721 491.065 89.7165 484.319 91.9833C477.573 94.2502 467.803 99.9129 467.803 99.9129C467.803 99.9129 461.236 104.223 461.693 105.352C462.149 106.481 463.724 105.585 463.724 105.585C463.724 105.585 461.46 110.118 462.829 110.342C464.198 110.566 468.251 106.301 468.251 106.301Z" fill="white" stroke="#263238" stroke-miterlimit="10"/>
<path d="M475.542 108.326C474.647 110.593 477.009 113.774 478.593 113.541C480.177 113.308 482.682 113.541 482.905 114.437C483.129 115.333 484.829 120.189 485.956 120.189C487.083 120.189 487.933 117.501 487.933 117.501L488.828 118.756L490.984 114.446C490.984 114.446 492.693 110.602 495.457 113.093C497.097 114.717 498.057 116.905 498.141 119.213C499.74 120.366 501.404 121.425 503.125 122.385C505.612 123.747 506.516 120.593 506.516 120.593C506.516 120.593 508.779 123.281 509.906 123.083C511.034 122.886 512.107 117.537 512.59 115.978C510.935 110.235 510.291 101.499 506.328 97.6998C501.801 93.399 491.118 89.7702 484.373 92.0371C477.627 94.304 467.857 99.9667 467.857 99.9667C467.857 99.9667 461.29 104.276 461.746 105.405C462.203 106.534 463.777 105.638 463.777 105.638C463.777 105.638 460.771 112.806 462.131 113.021C463.491 113.236 468.957 111.05 468.957 111.05C468.957 111.05 476.446 106.068 475.542 108.326Z" fill="#263238" stroke="#263238" stroke-miterlimit="10"/>
<path d="M477.251 127.519C477.841 128.773 477.779 130.054 477.117 130.368C476.455 130.682 475.435 129.911 474.844 128.648C474.254 127.384 474.307 126.112 474.97 125.798C475.632 125.485 476.66 126.255 477.251 127.519Z" fill="#263238"/>
<path d="M481.152 142.787C481.152 142.787 482.941 141.425 481.832 137.572" stroke="#263238" stroke-miterlimit="10"/>
<path d="M471.65 126.694C471.65 126.694 470.97 122.385 476.848 121.937" stroke="#263238" stroke-miterlimit="10"/>
<path d="M488.622 120.118C488.622 120.118 489.517 113.326 493.149 112.869C496.782 112.412 499.26 117.179 497.9 122.161C496.54 127.142 495.413 129.866 492.693 129.185" stroke="#263238" stroke-miterlimit="10"/>
<path d="M497.22 146.863L498.804 138.029" stroke="#263238" stroke-miterlimit="10"/>
<path d="M501.514 133.943L499.26 142.106" stroke="#263238" stroke-miterlimit="10"/>
<path d="M577.132 139.686L562.656 132.608C562.656 132.608 551.634 124.822 550.542 125.099C549.451 125.377 545.917 128.916 544.279 130.825C543.169 132.086 541.973 133.268 540.701 134.364L575.807 142.813L577.132 139.686Z" fill="#FBFADA" stroke="#263238" stroke-miterlimit="10"/>
<path d="M497.22 145.582L484.211 156.746C484.211 156.746 477.323 161.889 476.723 164.004C476.124 166.118 518.629 249.124 518.629 249.124L576.165 238.963L562.656 132.608L524.964 132.913L497.22 145.582Z" fill="#FBFADA" stroke="#263238" stroke-miterlimit="10"/>
<path d="M532.837 144.157L522.879 170.921" stroke="#263238" stroke-miterlimit="10"/>
<path d="M532.837 156.746L525.5 176.171" stroke="#263238" stroke-miterlimit="10"/>
<path d="M577.132 139.686C577.132 139.686 595.92 145.448 597.262 146.406C598.604 147.365 603.775 152.929 603.775 155.617C603.775 158.305 602.433 162.723 601.288 163.296C600.142 163.869 581.739 161.764 581.739 161.764L572.345 140.072L577.132 139.686Z" fill="white" stroke="#263238" stroke-miterlimit="10"/>
<path d="M562.656 132.599L584.36 144.982L582.249 165.814L566.709 164.963L562.656 132.599Z" fill="#FBFADA" stroke="#263238" stroke-miterlimit="10"/>
<path d="M566.709 164.963L569.491 145.681" stroke="#263238" stroke-miterlimit="10"/>
<path d="M567.272 161.907L566.002 137.411" stroke="#263238" stroke-miterlimit="10"/>
<path d="M476.723 164.004L456.217 199.037L477.931 208.392L490.895 195.104L476.723 164.004Z" fill="#FBFADA" stroke="#263238" stroke-miterlimit="10"/>
<path d="M478.02 189.576L490.895 195.104L471.355 194.351" stroke="#263238" stroke-miterlimit="10"/>
<path d="M438.762 198.804C438.762 198.804 437.993 193.814 438.762 192.47C439.532 191.126 442.78 187.676 442.976 186.52C443.173 185.364 443.549 183.259 443.549 183.259C443.549 183.259 438.378 183.071 437.036 182.103C435.694 181.135 434.352 178.08 434.155 176.924C433.958 175.768 430.514 174.433 430.138 175.392C429.518 176.347 428.741 177.189 427.839 177.883C427.839 177.883 423.616 177.309 422.471 178.456C421.785 179.138 421.203 179.917 420.744 180.768C420.744 180.768 417.29 181.341 417.103 182.488L416.915 183.68C416.18 183.989 415.543 184.49 415.07 185.133C414.598 185.775 414.308 186.533 414.231 187.327C414.056 188.778 414.321 190.248 414.991 191.547C415.188 192.12 421.513 203.258 422.471 205.175C423.279 206.518 424.411 207.636 425.763 208.428C425.763 208.428 437.42 206.295 438.762 198.804Z" fill="#FBFADA" stroke="#263238" stroke-miterlimit="10"/>
<path d="M458.329 197.219L448.38 209.601L437.224 197.828C437.224 197.828 431.793 197.219 428.778 201.412C425.763 205.605 425.763 208.356 425.763 208.356L451.395 236.741C453.394 236.46 455.275 235.625 456.826 234.331C459.232 232.216 477.931 208.347 477.931 208.347L458.329 197.219Z" fill="white" stroke="#263238" stroke-miterlimit="10"/>
<path d="M448.38 209.601L443.245 216.026" stroke="#263238" stroke-miterlimit="10"/>
<path d="M591.402 325.562H507.339V338.061H591.402V325.562Z" fill="white" stroke="#263238" stroke-miterlimit="10"/>
<path d="M591.402 392.744H507.339V405.243H591.402V392.744Z" fill="white" stroke="#263238" stroke-miterlimit="10"/>
<path d="M591.393 432.84H603.972V267.761H591.393V432.84Z" fill="white" stroke="#263238" stroke-miterlimit="10"/>
<path d="M594.703 432.84H607.282V267.761H594.703V432.84Z" fill="white" stroke="#263238" stroke-miterlimit="10"/>
<path d="M494.76 432.84H507.339V267.761H494.76V432.84Z" fill="white" stroke="#263238" stroke-miterlimit="10"/>
<path d="M498.07 432.84H510.649V267.761H498.07V432.84Z" fill="white" stroke="#263238" stroke-miterlimit="10"/>
<path d="M510.112 249.115L518.343 383.793L521.483 419.131L521.814 432.714H550.444L558.728 320.974L577.328 432.714H608.973L596.761 288.772L584.602 234.976L566.27 188.868L556.134 147.75L552.904 132.608H543.098L547.026 143.602L556.769 185.508L530.108 192.183L494.429 148.593L486.278 155.223L519.13 200.032L510.112 249.115Z" fill="#263238" stroke="#263238" stroke-miterlimit="10"/>
<path d="M569.616 263.11L587.295 258.792" stroke="#B8B8B8" stroke-miterlimit="10"/>
<path d="M549.325 268.289L521.295 272.608C521.295 272.608 524.74 301.119 526.896 303.278C529.052 305.437 541.998 309.326 545.442 307.597C548.887 305.868 553.208 298.09 553.208 298.09" stroke="#B8B8B8" stroke-miterlimit="10"/>
<path d="M568.319 278.656C568.319 278.656 567.424 292.481 572.631 296.8C577.838 301.119 588.592 300.689 590.748 298.959C592.905 297.23 596.743 288.772 596.743 288.772" stroke="#B8B8B8" stroke-miterlimit="10"/>
<path d="M516.563 242.807L576.514 229.421" stroke="#B8B8B8" stroke-miterlimit="10"/>
<path d="M522.172 234.17L571.343 224.233" stroke="#B8B8B8" stroke-miterlimit="10"/>
<path d="M558.728 320.974L566.163 308.027" stroke="#B8B8B8" stroke-miterlimit="10"/>
<path d="M529.473 239.232L527.943 233.103L531.656 232.44L533.194 238.578" stroke="#B8B8B8" stroke-miterlimit="10"/>
<path d="M564.875 232.44L563.381 225.873L567.102 225.434L568.632 231.786" stroke="#B8B8B8" stroke-miterlimit="10"/>
<path d="M241.211 272.948L231.862 276.398" stroke="#263238" stroke-miterlimit="10"/>
<path d="M302.433 250.36L245.201 271.479" stroke="#263238" stroke-miterlimit="10"/>
<path d="M293.424 260.602L261.574 277.885" stroke="#263238" stroke-miterlimit="10"/>
<path d="M301.324 256.31L296.501 258.926" stroke="#263238" stroke-miterlimit="10"/>
<path d="M299.865 269.723L297.611 273.8" stroke="#263238" stroke-miterlimit="10"/>
<path d="M306.898 257.053L301.565 266.659" stroke="#263238" stroke-miterlimit="10"/>
<path d="M280.111 249.796L271.979 250.36" stroke="#263238" stroke-miterlimit="10"/>
<path d="M298.72 248.497L283.439 249.563" stroke="#263238" stroke-miterlimit="10"/>
<path d="M218.299 250.387C218.299 250.387 215.23 244.518 210.247 243.121C205.263 241.723 198.527 243.121 198.527 243.121C198.527 243.121 202.105 248.156 204.941 250.387C207.777 252.618 218.299 250.387 218.299 250.387Z" fill="#FBFADA" stroke="#263238" stroke-miterlimit="10"/>
<path d="M198.527 243.121C198.527 243.121 216.769 249.007 218.335 250.387" stroke="#263238" stroke-miterlimit="10"/>
<path d="M201.935 247.072L205.076 245.441L204.575 242.923" stroke="#263238" stroke-width="0.5" stroke-miterlimit="10"/>
<path d="M204.941 250.387L208.457 246.57V243.049" stroke="#263238" stroke-width="0.5" stroke-miterlimit="10"/>
<path d="M209.468 250.97L212.6 248.201L212.224 244.303" stroke="#263238" stroke-width="0.5" stroke-miterlimit="10"/>
<path d="M215.481 261.453C215.481 261.453 212.412 255.584 207.429 254.186C202.445 252.788 195.708 254.186 195.708 254.186C195.708 254.186 199.341 259.213 202.132 261.453C204.923 263.693 215.481 261.453 215.481 261.453Z" fill="#FBFADA" stroke="#263238" stroke-miterlimit="10"/>
<path d="M195.664 254.186C195.664 254.186 213.906 260.064 215.481 261.453" stroke="#263238" stroke-miterlimit="10"/>
<path d="M199.072 258.129L202.213 256.498L201.712 253.98" stroke="#263238" stroke-width="0.5" stroke-miterlimit="10"/>
<path d="M202.087 261.453L205.603 257.627V254.106" stroke="#263238" stroke-width="0.5" stroke-miterlimit="10"/>
<path d="M206.605 262.026L209.737 259.258L209.361 255.36" stroke="#263238" stroke-width="0.5" stroke-miterlimit="10"/>
<path d="M220.276 277.393C220.276 277.393 225.322 273.11 225.59 267.904C225.859 262.698 223.04 256.444 223.04 256.444C223.04 256.444 218.925 261.085 217.359 264.302C215.794 267.519 220.276 277.393 220.276 277.393Z" fill="#FBFADA" stroke="#263238" stroke-miterlimit="10"/>
<path d="M223.041 256.444C223.041 256.444 221.251 275.556 220.276 277.393" stroke="#263238" stroke-miterlimit="10"/>
<path d="M219.936 260.637L222.208 263.343L224.552 262.304" stroke="#263238" stroke-width="0.5" stroke-miterlimit="10"/>
<path d="M217.359 264.302L221.85 266.9L225.277 266.139" stroke="#263238" stroke-width="0.5" stroke-miterlimit="10"/>
<path d="M217.78 268.845L221.153 271.309L224.874 270.09" stroke="#263238" stroke-width="0.5" stroke-miterlimit="10"/>
<path d="M199.869 226.822C199.869 226.822 204.915 222.548 205.183 217.334C205.451 212.119 202.633 205.874 202.633 205.874C202.633 205.874 198.518 210.515 196.952 213.732C195.386 216.948 199.869 226.822 199.869 226.822Z" fill="#FBFADA" stroke="#263238" stroke-miterlimit="10"/>
<path d="M202.633 205.874C202.633 205.874 200.844 224.986 199.869 226.822" stroke="#263238" stroke-miterlimit="10"/>
<path d="M199.529 210.067L201.801 212.773L204.145 211.743" stroke="#263238" stroke-width="0.5" stroke-miterlimit="10"/>
<path d="M196.952 213.732L201.443 216.33L204.87 215.569" stroke="#263238" stroke-width="0.5" stroke-miterlimit="10"/>
<path d="M197.372 218.275L200.745 220.739L204.467 219.52" stroke="#263238" stroke-width="0.5" stroke-miterlimit="10"/>
<path d="M224.069 251.91C224.069 251.91 229.124 247.636 229.393 242.422C229.661 237.207 226.834 230.962 226.834 230.962C226.834 230.962 222.727 235.603 221.153 238.82C219.578 242.036 224.069 251.91 224.069 251.91Z" fill="#FBFADA" stroke="#263238" stroke-miterlimit="10"/>
<path d="M226.834 230.962C226.834 230.962 225.045 250.074 224.069 251.91" stroke="#263238" stroke-miterlimit="10"/>
<path d="M223.729 235.155L226.011 237.87L228.346 236.831" stroke="#263238" stroke-width="0.5" stroke-miterlimit="10"/>
<path d="M221.153 238.82L225.644 241.427L229.071 240.657" stroke="#263238" stroke-width="0.5" stroke-miterlimit="10"/>
<path d="M221.573 243.363L224.955 245.827L228.668 244.608" stroke="#263238" stroke-width="0.5" stroke-miterlimit="10"/>
<path d="M188.828 258.29C188.828 258.29 193.874 254.016 194.143 248.801C194.411 243.587 191.593 237.341 191.593 237.341C191.593 237.341 187.477 241.983 185.912 245.199C184.346 248.416 188.828 258.29 188.828 258.29Z" fill="#FBFADA" stroke="#263238" stroke-miterlimit="10"/>
<path d="M191.593 237.341C191.593 237.341 189.804 256.453 188.828 258.29" stroke="#263238" stroke-miterlimit="10"/>
<path d="M188.488 241.535L190.761 244.25L193.105 243.21" stroke="#263238" stroke-width="0.5" stroke-miterlimit="10"/>
<path d="M185.912 245.199L190.403 247.807L193.83 247.036" stroke="#263238" stroke-width="0.5" stroke-miterlimit="10"/>
<path d="M186.332 249.742L189.705 252.206L193.427 250.987" stroke="#263238" stroke-width="0.5" stroke-miterlimit="10"/>
<path d="M166.882 261.793C166.882 261.793 160.262 261.793 156.683 265.556C153.104 269.32 151.199 275.968 151.199 275.968C151.199 275.968 157.336 275.117 160.611 273.692C163.885 272.267 166.882 261.793 166.882 261.793Z" fill="#FBFADA" stroke="#263238" stroke-miterlimit="10"/>
<path d="M151.199 275.968C151.199 275.968 164.923 262.582 166.882 261.838" stroke="#263238" stroke-miterlimit="10"/>
<path d="M156.271 274.758L156.298 271.219L153.847 270.484" stroke="#263238" stroke-width="0.5" stroke-miterlimit="10"/>
<path d="M160.611 273.647L158.884 268.746L155.779 267.098" stroke="#263238" stroke-width="0.5" stroke-miterlimit="10"/>
<path d="M163.232 269.92L162.266 265.843L158.651 264.356" stroke="#263238" stroke-width="0.5" stroke-miterlimit="10"/>
<path d="M175.042 232.342C175.042 232.342 168.421 232.342 164.842 236.105C161.264 239.868 159.358 246.481 159.358 246.481C159.358 246.481 165.495 245.585 168.77 244.196C172.044 242.807 175.042 232.342 175.042 232.342Z" fill="#FBFADA" stroke="#263238" stroke-miterlimit="10"/>
<path d="M159.358 246.481C159.358 246.481 173.082 233.085 175.042 232.342" stroke="#263238" stroke-miterlimit="10"/>
<path d="M164.44 245.307L164.467 241.768L162.006 241.033" stroke="#263238" stroke-width="0.5" stroke-miterlimit="10"/>
<path d="M168.77 244.196L167.043 239.295L163.939 237.655" stroke="#263238" stroke-width="0.5" stroke-miterlimit="10"/>
<path d="M171.4 240.468L170.425 236.401L166.811 234.913" stroke="#263238" stroke-width="0.5" stroke-miterlimit="10"/>
<path d="M176.339 252.367C176.339 252.367 170.881 256.077 169.987 261.229C169.092 266.381 171.284 272.877 171.284 272.877C171.284 272.877 175.874 268.71 177.788 265.709C179.703 262.707 176.339 252.367 176.339 252.367Z" fill="#FBFADA" stroke="#263238" stroke-miterlimit="10"/>
<path d="M171.32 272.895C171.32 272.895 175.14 254.079 176.339 252.367" stroke="#263238" stroke-miterlimit="10"/>
<path d="M174.863 269.06L172.894 266.121L170.452 266.9" stroke="#263238" stroke-width="0.5" stroke-miterlimit="10"/>
<path d="M177.824 265.7L173.637 262.626L170.148 263.012" stroke="#263238" stroke-width="0.5" stroke-miterlimit="10"/>
<path d="M177.896 261.139L174.8 258.326L170.98 259.123" stroke="#263238" stroke-width="0.5" stroke-miterlimit="10"/>
<path d="M243.072 263.926C243.072 263.926 236.595 262.582 232.336 265.583C228.077 268.585 224.901 274.66 224.901 274.66C224.901 274.66 231.084 275.045 234.582 274.301C238.08 273.558 243.072 263.926 243.072 263.926Z" fill="#FBFADA" stroke="#263238" stroke-miterlimit="10"/>
<path d="M224.901 274.66C224.901 274.66 241.005 264.266 243.072 263.908" stroke="#263238" stroke-miterlimit="10"/>
<path d="M230.108 274.525L230.842 271.058L228.578 269.848" stroke="#263238" stroke-width="0.5" stroke-miterlimit="10"/>
<path d="M234.582 274.301L233.857 269.149L231.146 266.918" stroke="#263238" stroke-width="0.5" stroke-miterlimit="10"/>
<path d="M237.892 271.165L237.749 266.981L234.501 264.804" stroke="#263238" stroke-width="0.5" stroke-miterlimit="10"/>
<path d="M137.474 256.812C137.474 256.812 136.741 262.564 139.649 266.094C142.556 269.624 148.058 271.972 148.058 271.972C148.058 271.972 147.969 266.542 147.092 263.54C146.215 260.539 137.474 256.812 137.474 256.812Z" fill="#FBFADA" stroke="#263238" stroke-miterlimit="10"/>
<path d="M148.058 271.972C148.058 271.972 137.904 258.595 137.474 256.812" stroke="#263238" stroke-miterlimit="10"/>
<path d="M147.584 267.429L144.516 267.026L143.621 269.087" stroke="#263238" stroke-width="0.5" stroke-miterlimit="10"/>
<path d="M147.092 263.54L142.655 264.517L140.892 267.044" stroke="#263238" stroke-width="0.5" stroke-miterlimit="10"/>
<path d="M144.131 260.852L140.498 261.265L138.817 264.248" stroke="#263238" stroke-width="0.5" stroke-miterlimit="10"/>
<path d="M128.483 298.431C128.483 298.431 121.872 298.431 118.284 302.185C114.696 305.939 112.8 312.561 112.8 312.561C112.8 312.561 118.937 311.709 122.221 310.285C125.504 308.86 128.483 298.431 128.483 298.431Z" fill="#FBFADA" stroke="#263238" stroke-miterlimit="10"/>
<path d="M112.8 312.561C112.8 312.561 126.524 299.165 128.483 298.431" stroke="#263238" stroke-miterlimit="10"/>
<path d="M117.881 311.396L117.908 307.848L115.457 307.122" stroke="#263238" stroke-width="0.5" stroke-miterlimit="10"/>
<path d="M122.221 310.285L120.494 305.384L117.38 303.735" stroke="#263238" stroke-width="0.5" stroke-miterlimit="10"/>
<path d="M124.842 306.548L123.867 302.481L120.252 300.993" stroke="#263238" stroke-width="0.5" stroke-miterlimit="10"/>
<path d="M99.0754 293.449C99.0754 293.449 98.3418 299.201 101.249 302.732C104.157 306.262 109.659 308.609 109.659 308.609C109.659 308.609 109.579 303.18 108.693 300.178C107.807 297.176 99.0754 293.449 99.0754 293.449Z" fill="#FBFADA" stroke="#263238" stroke-miterlimit="10"/>
<path d="M109.659 308.609C109.659 308.609 99.5138 295.232 99.0754 293.449" stroke="#263238" stroke-miterlimit="10"/>
<path d="M109.194 304.067L106.125 303.663L105.222 305.724" stroke="#263238" stroke-width="0.5" stroke-miterlimit="10"/>
<path d="M108.693 300.178L104.256 301.154L102.493 303.681" stroke="#263238" stroke-width="0.5" stroke-miterlimit="10"/>
<path d="M105.741 297.49L102.099 297.902L100.426 300.886" stroke="#263238" stroke-width="0.5" stroke-miterlimit="10"/>
<path d="M117.264 316.924C117.264 316.924 116.53 322.676 119.438 326.207C122.346 329.737 127.857 332.084 127.857 332.084C127.857 332.084 127.767 326.655 126.882 323.653C125.996 320.651 117.264 316.924 117.264 316.924Z" fill="#FBFADA" stroke="#263238" stroke-miterlimit="10"/>
<path d="M127.857 332.084C127.857 332.084 117.702 318.707 117.264 316.924" stroke="#263238" stroke-miterlimit="10"/>
<path d="M127.383 327.542L124.314 327.139L123.41 329.199" stroke="#263238" stroke-width="0.5" stroke-miterlimit="10"/>
<path d="M126.882 323.653L122.444 324.63L120.682 327.156" stroke="#263238" stroke-width="0.5" stroke-miterlimit="10"/>
<path d="M123.929 320.965L120.288 321.377L118.615 324.361" stroke="#263238" stroke-width="0.5" stroke-miterlimit="10"/>
<path d="M198.697 265.297C198.697 265.297 197.954 271.058 200.862 274.579C203.769 278.1 209.28 280.466 209.28 280.466C209.28 280.466 209.191 275.027 208.305 272.026C207.42 269.024 198.697 265.297 198.697 265.297Z" fill="#FBFADA" stroke="#263238" stroke-miterlimit="10"/>
<path d="M209.28 280.448C209.28 280.448 199.126 267.071 198.697 265.279" stroke="#263238" stroke-miterlimit="10"/>
<path d="M208.806 275.914L205.738 275.52L204.834 277.572" stroke="#263238" stroke-width="0.5" stroke-miterlimit="10"/>
<path d="M208.305 272.026L203.868 273.002L202.105 275.529" stroke="#263238" stroke-width="0.5" stroke-miterlimit="10"/>
<path d="M205.353 269.347L201.712 269.75L200.039 272.733" stroke="#263238" stroke-width="0.5" stroke-miterlimit="10"/>
<path d="M154.518 235.487C154.518 235.487 150.823 237.987 150.259 241.463C149.696 244.939 151.154 249.33 151.154 249.33C152.775 247.867 154.244 246.242 155.538 244.483C156.808 242.44 154.518 235.487 154.518 235.487Z" fill="#FBFADA" stroke="#263238" stroke-miterlimit="10"/>
<path d="M151.136 249.33C151.136 249.33 153.713 236.643 154.518 235.487" stroke="#263238" stroke-miterlimit="10"/>
<path d="M153.525 246.749L152.201 244.76L150.555 245.289" stroke="#263238" stroke-width="0.5" stroke-miterlimit="10"/>
<path d="M155.52 244.483L152.702 242.404L150.349 242.664" stroke="#263238" stroke-width="0.5" stroke-miterlimit="10"/>
<path d="M155.574 241.4L153.489 239.501L150.903 240.047" stroke="#263238" stroke-width="0.5" stroke-miterlimit="10"/>
<path d="M184.623 224.995C184.623 224.995 184.516 220.515 181.886 218.185C179.255 215.855 174.8 214.691 174.8 214.691C175.16 216.834 175.736 218.935 176.518 220.963C177.547 223.185 184.623 224.995 184.623 224.995Z" fill="#FBFADA" stroke="#263238" stroke-miterlimit="10"/>
<path d="M174.8 214.691C174.8 214.691 184.087 223.651 184.641 224.995" stroke="#263238" stroke-miterlimit="10"/>
<path d="M175.686 218.095L178.075 218.042L178.513 216.375" stroke="#263238" stroke-width="0.5" stroke-miterlimit="10"/>
<path d="M176.518 220.998L179.783 219.735L180.83 217.612" stroke="#263238" stroke-width="0.5" stroke-miterlimit="10"/>
<path d="M179.085 222.701L181.805 221.957L182.736 219.493" stroke="#263238" stroke-width="0.5" stroke-miterlimit="10"/>
<path d="M123.052 299.309C123.052 299.309 122.945 294.829 120.315 292.499C117.684 290.17 113.229 289.005 113.229 289.005C113.589 291.148 114.165 293.249 114.947 295.277C115.976 297.472 123.052 299.309 123.052 299.309Z" fill="#FBFADA" stroke="#263238" stroke-miterlimit="10"/>
<path d="M113.229 289.005C113.229 289.005 122.516 297.965 123.07 299.309" stroke="#263238" stroke-miterlimit="10"/>
<path d="M114.115 292.41L116.504 292.356L116.942 290.68" stroke="#263238" stroke-width="0.5" stroke-miterlimit="10"/>
<path d="M114.947 295.313L118.212 294.049L119.259 291.917" stroke="#263238" stroke-width="0.5" stroke-miterlimit="10"/>
<path d="M117.515 297.006L120.234 296.271L121.165 293.798" stroke="#263238" stroke-width="0.5" stroke-miterlimit="10"/>
<path d="M121.916 340.086C121.916 340.086 117.622 341.295 116.003 344.422C114.383 347.549 114.365 352.164 114.365 352.164C116.364 351.286 118.268 350.205 120.046 348.938C121.907 347.406 121.916 340.086 121.916 340.086Z" fill="#FBFADA" stroke="#263238" stroke-miterlimit="10"/>
<path d="M114.365 352.128C114.365 352.128 120.78 340.892 121.916 340.05" stroke="#263238" stroke-miterlimit="10"/>
<path d="M117.443 350.461L116.799 348.159L115.081 348.141" stroke="#263238" stroke-width="0.5" stroke-miterlimit="10"/>
<path d="M120.046 348.938L118.016 346.08L115.698 345.587" stroke="#263238" stroke-width="0.5" stroke-miterlimit="10"/>
<path d="M121.057 346.035L119.671 343.571L117.058 343.276" stroke="#263238" stroke-width="0.5" stroke-miterlimit="10"/>
<path d="M132.08 236.383C132.08 236.383 131.963 231.903 129.342 229.573C126.721 227.243 122.247 226.079 122.247 226.079C122.607 228.223 123.186 230.325 123.974 232.351C124.994 234.573 132.08 236.383 132.08 236.383Z" fill="#FBFADA" stroke="#263238" stroke-miterlimit="10"/>
<path d="M122.247 226.079C122.247 226.079 131.534 235.039 132.089 236.383" stroke="#263238" stroke-miterlimit="10"/>
<path d="M123.133 229.483L125.522 229.43L125.96 227.754" stroke="#263238" stroke-width="0.5" stroke-miterlimit="10"/>
<path d="M123.974 232.387L127.24 231.123L128.277 228.991" stroke="#263238" stroke-width="0.5" stroke-miterlimit="10"/>
<path d="M126.533 234.08L129.253 233.345L130.183 230.872" stroke="#263238" stroke-width="0.5" stroke-miterlimit="10"/>
<path d="M129.065 349.252V338.966" stroke="#263238" stroke-miterlimit="10"/>
<path d="M125.951 411.595V373.256" stroke="#263238" stroke-miterlimit="10"/>
<path d="M126.264 354.861V333.984" stroke="#263238" stroke-miterlimit="10"/>
<path d="M126.264 371.069V360.783" stroke="#263238" stroke-miterlimit="10"/>
<path d="M129.065 398.559V360.479" stroke="#263238" stroke-miterlimit="10"/>
<path d="M129.065 431.218V393.129" stroke="#263238" stroke-miterlimit="10"/>
<path d="M129.065 320.893V310.607" stroke="#263238" stroke-miterlimit="10"/>
<path d="M123.464 364.529V421.882" stroke="#263238" stroke-miterlimit="10"/>
<path d="M132.178 308.735V423.432" stroke="#263238" stroke-miterlimit="10"/>
<path d="M123.464 311.226V358.292" stroke="#263238" stroke-miterlimit="10"/>
<path d="M31.3402 432.714H654.252" stroke="#263238" stroke-miterlimit="10"/>
</g>
</svg>
