<svg width="310" height="76" viewBox="0 0 310 76" fill="none" xmlns="http://www.w3.org/2000/svg">
<g clip-path="url(#clip0_8_118)">
<path d="M43.5149 27.5167L43.776 27.8092L44.8203 27.9554L45.2265 28.1016L45.7196 28.5987L46.1258 28.511L46.2708 28.5987V28.8034L46.6189 28.8911L46.764 29.0373L46.4739 29.4467L46.5319 29.5929L46.938 29.6807L47.5763 30.4409L47.4312 30.8796L47.5182 31.289L47.6633 31.4352L47.4312 32.5464L47.5763 32.9558L47.0831 33.3067L47.1411 33.5114L46.909 34.3594L46.677 34.7103L46.6189 35.1197L45.9807 36.2601L45.7486 36.5233L45.4585 37.1666L45.0524 37.3128L45.1104 37.6052L44.7623 37.9561L44.7043 38.2193L44.2981 38.6287L43.863 39.3305L43.5729 39.4767L43.0217 39.1843L42.6736 39.3305L42.4705 38.5702L42.5285 38.2193L43.0797 37.7807L43.1377 37.576L43.4859 37.3713L43.776 36.611L44.1821 36.2601L44.3852 35.8215L44.4432 35.3828L44.9944 34.9735L44.9364 34.5348L45.0234 34.1254L45.1684 34.0377L45.2555 33.4236L45.6036 32.7803L45.5456 32.02L45.6906 31.6691L45.3425 31.0258L44.5592 30.1778L43.921 29.6807H43.6599L42.9057 29.3882L42.6156 29.4467L42.2674 29.1835L41.8613 29.3297L40.933 29.2713L40.1497 29.359L39.7436 29.2128L38.9893 29.359L38.6412 29.3005L37.5098 29.5929L37.0167 29.8853L36.4655 29.9438L35.7692 30.207L35.4211 30.4702L35.073 30.5287L34.8409 30.9381L33.4484 31.7861L33.1583 32.0785L33.1003 32.4294L33.5065 32.985V33.833L33.6225 34.0377L33.9706 34.3301L34.2317 34.8857L34.4638 35.1489L34.6088 35.4998L34.9569 35.646L35.015 36.2893L35.16 36.6403L35.4501 36.494L35.5952 36.5818V36.9912L35.7982 37.4005L36.4074 37.9561L36.7556 38.0146L37.3068 38.7164L37.4518 39.0673L38.061 39.4182V39.8569L38.2931 40.2663L37.945 40.6172L38.09 40.7634H38.3511L38.6412 41.319L38.9313 41.6114L39.4825 41.319L39.9176 41.8746L39.8596 42.284L40.0047 42.4302L40.6139 42.6349L40.5269 42.8396L40.3238 42.9273L40.933 43.3659V43.6291L41.2231 44.0677V44.2139L40.5849 44.4771L40.2948 44.2724H39.8886L39.7436 44.3601L39.8886 44.6233L40.0917 44.5648L41.2231 44.7111L41.5132 44.6233L41.7163 44.6818L42.4125 45.1789L42.7026 45.1204L42.9637 44.8573H43.1958L44.2401 44.3017L44.5302 43.9508L45.6616 43.5121L46.938 42.7518L47.1701 42.9565L48.7077 41.8453L49.3169 41.9915L49.723 41.6406L50.0711 42.05L49.665 42.3132L49.607 42.7518L49.694 43.1027L49.4619 43.1612L48.4176 43.863L47.9824 43.6583L47.6343 44.0677H46.851L46.5609 44.2139L46.9671 44.4186L46.764 44.5064L46.1258 44.4186L46.0097 44.7695L45.2265 45.0327L44.7333 45.676L44.4432 45.6176L43.834 45.7638L43.3988 46.1147V46.4071L42.9927 46.5533L42.5575 47.1089L42.7026 47.4598L43.1087 47.8692L43.3118 47.8107L43.0217 47.1089L43.4569 47.0212L43.6019 47.1089L43.6599 47.5475L44.0951 47.9862L44.008 48.1324L43.776 48.1908L43.6309 48.3371L43.863 48.7757L43.6309 49.0389L43.2248 49.0974L43.1668 49.2436L43.3988 49.4483L43.747 49.2436L44.1821 49.4483L44.1241 49.653L43.7179 49.9161L43.6019 50.3255L43.2538 50.7349L43.4569 50.9396L43.863 50.8519L44.7043 51.0566L44.3562 51.2028L44.2981 51.349L44.3852 51.4952L44.7913 51.6414L44.6463 52.0508L44.3852 52.3432L43.6889 51.9338L43.776 51.4952L43.6889 51.2905L43.2828 51.232L43.0797 51.3197L43.3698 51.6707L43.3118 52.2263L42.9637 52.4309L43.0797 52.5187L43.921 52.4602L44.6753 52.6064L44.8783 52.5187L45.2265 52.0216L45.4875 52.5772L45.3425 52.8696H45.0524L44.9654 53.0158L45.0524 53.4544L45.1394 53.3082H45.3425V53.5129L44.9944 53.6006L44.9073 53.7468L44.9944 53.893L45.4875 54.1562L45.5746 54.3024V54.5656L45.1684 54.6241L45.2845 54.975L44.9364 54.9165L44.8493 55.0042L44.7623 55.6183L44.6173 55.7645L44.8203 56.057L44.8783 56.4663L44.7333 56.8172H44.2401L44.1531 57.0219L44.2401 57.2266L44.4432 57.3144L44.8493 57.2266L45.1104 57.0219L45.2555 57.3728L45.1684 57.5191L44.4722 57.5775L44.1821 57.8407H44.7913L44.9944 58.1916L44.9364 58.3378L44.2401 58.6302L44.0371 58.9812L44.1821 59.1274L43.776 59.3321L43.5729 59.2736L43.4569 59.0689L43.7179 58.5718L43.805 58.1331L43.892 58.0454L43.747 57.8407L43.3408 57.753L43.5439 58.2501L43.4278 58.4548L43.0217 58.5133L42.8767 58.601L42.8186 58.8057L43.1668 59.0104H42.9637L42.7316 59.5075L43.3698 59.449L43.4569 59.6537L43.3988 59.9169L43.2538 60.0631H42.5575L42.7896 60.6187L42.7316 60.7649L42.2384 61.0573L41.9483 60.6479L41.6002 60.9111L41.7453 60.9989L41.9773 60.9404L42.3255 61.496L41.8323 61.7884L41.3972 61.8469V62.0516L41.7453 62.2563L41.5422 62.4025L41.6002 63.0166L40.846 63.1628L40.7589 63.2505L40.8169 63.8646L39.7726 64.2155V64.6249L39.0764 65.0635L38.6412 64.7711L38.4962 64.8296L38.4381 64.9758L38.5542 65.3852L38.3511 65.8238L37.945 65.6191L37.6839 65.6776L36.9296 66.087L36.5815 65.8823L36.0883 66.087H35.3051L35.218 65.9992L35.131 66.1455L34.2897 66.2039L34.0576 66.5548L33.0713 66.2917L32.5781 66.4964L31.4758 66.2039L31.1857 65.9992L31.0986 65.7945L30.8085 66.087L29.6191 65.3267L28.8649 65.2682L28.5167 65.0635L28.3137 64.7711L27.7625 64.3324V64.0693L27.0662 63.6599L27.0082 63.3967L26.6601 62.9873V62.7826L26.254 62.3732L26.1089 61.8176L25.8188 61.6129L25.9639 61.3205L25.7608 60.8819L25.7028 60.4433L25.4707 60.1508V59.8584H25.7028L25.9349 60.414L26.0509 60.3555L25.9349 60.0631L26.0799 59.6537L25.8478 59.566V59.1566L26.399 58.5425L26.8922 57.5483L27.1823 57.3436L27.3854 56.8465L27.8785 56.2324L27.9365 55.94L28.1396 55.8815L28.5458 55.5306L28.8939 55.3844L29.0969 54.975L29.4451 54.7703H29.6481L30.1993 54.01L30.5474 53.8638L30.8956 53.3082H31.2437L31.6498 52.8696L32.5781 52.1093L33.1293 52.0216L33.0423 51.7291L33.2744 51.466L33.7095 51.3197L34.2607 50.7642L34.6959 50.7057L35.3051 50.267H35.5662L35.7692 49.8284L36.3204 49.419L36.2624 48.9804L36.3494 48.7757L36.0883 48.6295H35.6822L35.5952 48.4833L35.5371 48.0739L35.189 47.9862L35.044 47.8399V47.2259L34.6378 47.1381L33.8836 45.8807L33.5935 45.5883L33.4774 45.1497L33.5355 44.945L33.4484 44.7988L33.2164 44.7111L32.8682 44.0677L32.9263 43.7168L32.7812 43.5121L32.4331 43.3074L32.172 42.6934L31.9109 42.4009V42.1378L31.8239 41.9915L31.3307 41.7868L31.2437 40.9973L31.0986 40.9096L31.0116 40.5002L30.6055 39.8861L30.7505 39.5352L30.1993 38.4825L30.2573 37.9854L30.1413 37.7807L29.7932 37.5175L29.9382 37.1081L29.5901 36.4063L29.7352 35.4706L30.0253 35.1782L29.7352 34.7688L29.8802 33.7745L30.1123 33.4821L30.3154 33.4236V33.1605L30.4604 32.8096L30.3154 32.4002L30.8665 31.9615L30.9246 31.6691L32.0269 30.5579H32.317L33.0713 29.7976L34.4058 29.242L34.9569 28.7449H35.16L35.4501 28.5402L35.8563 28.4525L36.2914 28.511L36.4365 28.4232L36.6395 28.0139L37.5969 28.3648L37.4518 27.9554L37.5969 27.8092L38.4962 27.7214L38.6412 27.6337L38.9893 27.7214L39.3955 27.5752L39.6856 27.2828L40.2368 27.3413L40.6429 27.546L40.991 27.1951L41.4842 27.3998L41.6872 27.3413L42.4705 27.546L42.9057 27.4875L43.1087 27.5752L43.4569 27.4875L43.6599 27.5752L43.5149 27.5167ZM35.6242 50.7057L34.6959 51.6999L34.2897 51.7876L34.0286 51.7291L33.9416 52.3725L32.9553 52.6649V52.8696L33.2454 53.0158L33.1003 53.1035L32.6942 52.9573L32.5781 53.3082L31.6788 53.7468L31.5338 54.0977L30.7795 54.3024L30.6925 54.3902L30.7795 54.7411L30.7215 55.092L30.5184 55.1797L30.1703 55.0335L30.0833 55.2382L30.1413 55.5014L29.242 56.1154L29.155 56.6126L28.8649 56.905L28.7198 57.3144L28.1106 57.7237L28.0526 58.1331L27.6174 58.6887L27.1823 59.7999L27.2693 60.5602L27.2113 60.9696L27.6464 61.4082V61.6714L27.9365 62.0808H28.1686L28.8649 63.0166L29.4741 63.309L29.7642 63.2213L30.6635 63.7768L30.7505 63.2797L31.2437 63.192L31.6498 63.4844L32.201 63.2213L32.5491 63.4259L32.9843 63.4844L33.6805 63.2213L34.1157 63.2797L34.8119 62.9288L35.218 62.8411L35.6242 62.4317L36.0593 62.344L36.6685 61.6422L36.9006 61.5545L37.0167 61.3498L36.9586 60.9989L37.2487 60.7064L37.6839 60.7649L37.7999 60.6187L37.4518 60.3555L37.5098 60.1508L38.003 59.5952L37.887 59.3028L38.003 59.1566L38.09 58.2501L38.4381 58.1039L38.2061 57.6653L38.5542 57.0512L38.3511 56.7003L38.2931 56.2616L37.945 55.6476L37.887 55.2382L38.032 55.0335L38.09 54.7411L37.5388 53.9808V53.6299L37.7419 53.0743L37.4808 53.0158L37.2487 52.7234L37.1907 52.08L36.8426 51.3782L36.7846 50.9688L36.5815 50.8226L36.1464 50.8811L36.0593 50.6179V50.2086L35.5662 50.2963V50.7057H35.6242ZM32.114 33.3651L32.056 33.5114L32.201 33.5698L32.114 33.3651ZM33.6805 39.6229L33.7385 39.4767H33.5355V39.6814L33.6805 39.6229ZM34.2317 43.3659L34.4348 43.2782L34.4928 43.132L34.1447 43.1905L34.0866 43.3367L34.2317 43.3952V43.3659ZM35.015 41.6699V41.4652L34.8119 41.5237L34.7539 41.6699H35.015ZM38.4962 43.9508L38.9023 44.0092L39.0473 43.9215L38.9313 43.7753L38.4962 43.6876L38.4091 43.7753L38.4962 43.98V43.9508ZM38.7863 50.9981L39.0473 51.0566L38.9893 50.8519L38.6412 50.7934L38.7863 50.9981ZM38.7863 58.7472L38.7282 58.6595V58.8642L38.7863 58.7765V58.7472ZM38.9023 43.0735L39.1054 43.1612L39.5115 43.1027L39.5985 43.015L38.9023 42.7226L38.8153 42.9858L38.9023 43.0735ZM39.2794 43.7461L39.4245 43.6876L39.3084 43.4829H39.2214L39.1054 43.6876L39.2504 43.7461H39.2794ZM39.4535 57.3144L39.6566 57.2266L39.7436 57.0219L39.5985 56.9635L39.3955 57.0512L39.3374 57.2559L39.4535 57.3144ZM39.6275 51.6999L39.7726 51.7584L39.8306 51.5537L39.6856 51.4952L39.5405 51.5829L39.6566 51.6707L39.6275 51.6999ZM39.8016 54.9458L39.9467 54.8873L39.8886 54.7995H39.6856L39.7726 54.9458H39.8016ZM40.0917 49.2436H40.2948L40.3528 49.0389L40.0627 49.0974L40.1207 49.2436H40.0917ZM40.2368 59.1566L40.4688 59.449L40.6139 59.5075L40.7589 59.4198L40.7009 59.0104L40.8169 58.5718H40.5559L40.1497 58.9812L40.2077 59.1859L40.2368 59.1566ZM40.3818 50.0623L40.2368 49.8576V50.0623H40.3818ZM40.6719 62.4902L40.8169 62.344L40.6719 62.2855L40.4398 62.4902H40.6719ZM41.078 48.3078L40.7299 48.1616L40.5849 48.2493L40.6719 48.3955L41.078 48.5418L41.3101 48.8049H41.4552L41.5422 48.6587L41.8903 48.454L42.0064 48.3078L41.6002 48.2201L41.1941 48.4248L41.049 48.3371L41.078 48.3078ZM40.991 53.3959L41.2521 53.3374L41.3972 53.1912L41.1071 53.045L40.904 53.1035L40.846 53.2497L40.991 53.3959ZM41.02 56.2909L40.875 56.2032L40.8169 56.3494L41.02 56.2909ZM41.02 59.3905H40.8169L40.962 59.5368H41.1071L41.02 59.3905ZM40.875 57.9577L41.02 58.1039L41.4552 57.8407L41.5132 57.636L40.904 57.6945L40.846 57.9577H40.875ZM41.02 54.9165V54.7118L40.962 54.9165H41.02ZM41.1651 49.302L41.3101 49.2436L41.3681 49.0389H41.1071L41.02 49.1851L41.1651 49.2728V49.302ZM41.2811 54.9165L41.8323 54.7118L41.7163 54.5071L41.4262 54.5656L41.1361 54.8288L41.2811 54.9165ZM41.3101 45.4129L41.5132 45.5006L41.8033 45.2374L41.6002 45.1497H41.2521L41.1651 45.2374L41.3101 45.3836V45.4129ZM41.5712 56.2909V56.1447L41.4262 56.057L41.3681 56.3494L41.5712 56.2909ZM41.7743 49.419H42.1224L42.1804 49.2143L41.7743 49.1266L41.6872 49.2728L41.7743 49.419ZM42.0644 56.5541L41.8613 57.1097H42.2965L42.5866 56.905L42.3255 56.4956V56.1447L42.0354 56.2324V56.5248L42.0644 56.5541ZM42.1224 49.9161L42.1804 49.7114L41.9193 49.7699V49.9746L42.1224 49.9161ZM42.6156 61.9931L42.4705 62.1393L42.0644 62.227L42.0064 62.0223L42.2094 61.7592H42.6156V61.9638V61.9931ZM42.2094 50.7057H42.4125L42.4995 50.5595L42.3545 50.267L42.1514 50.2086L42.0644 50.6472L42.2094 50.7057ZM42.3545 57.6945L42.0644 57.636V57.7822L42.3545 57.9284V57.6653V57.6945ZM43.1668 54.0685L43.2248 54.3317H42.8767L42.2674 54.7411V54.8873H43.2248L43.4569 55.3844L43.892 55.2967L44.008 54.5364L43.4569 54.4486L43.3698 54.3024L43.4569 54.01L43.2248 53.8638L43.0797 54.01L43.1668 54.0977V54.0685ZM42.8186 61.6129L42.6736 61.4667L42.7316 61.0573L43.2828 61.1451L42.8476 61.5837L42.8186 61.6129ZM42.8186 57.6068H43.0217L42.9057 57.4606L42.7026 57.5483L42.8186 57.6068ZM43.0507 53.045L43.4859 53.3374L43.776 53.3959L44.008 53.1035L43.7179 52.8988L43.3118 52.8111L42.9057 52.8988L42.9927 53.045H43.0507ZM43.3118 55.6476L43.3698 55.3551H43.2248L43.1087 55.5014L43.1668 55.6476H43.3118ZM43.5439 56.4663L43.747 56.3201L43.6889 56.1154L43.5439 56.0277L43.3988 56.0862L43.3408 56.3494L43.5439 56.4956V56.4663ZM43.6599 56.8172H43.5149V56.905L43.6599 56.8172ZM44.2401 59.7414L43.95 60.0339V60.4725H43.5149L43.95 59.9169V59.6537L44.1531 59.566L44.2401 59.7122V59.7414ZM44.7333 50.3548L44.6463 50.4425L44.2111 50.501L44.0951 50.2963L44.2981 49.9454L44.7913 50.2086L44.7333 50.3548ZM44.8783 50.9688L44.9944 50.8226L45.1974 50.7642L45.2845 50.9104L45.1974 51.2028H44.9944L44.8783 50.9396V50.9688ZM45.0814 55.5598L45.1394 55.823H44.8783V55.5598H45.0814ZM45.0524 56.6126L44.9654 56.4663L45.1684 56.4079L45.2265 56.6126H45.0814H45.0524ZM46.3869 43.6583L46.822 43.3952L46.5899 43.1905H46.3869L46.1838 43.4829L46.3869 43.6291V43.6583Z" fill="#FBFADA"/>
<path d="M55.206 39.5645L55.148 39.9154L55.9312 40.1785L56.1633 40.4417V40.7049L56.4244 40.9096L56.5695 41.6114V42.8688L56.3374 43.132L56.8886 43.2197L57.1206 43.4829L56.8886 43.9215L56.9756 44.4771L57.3237 45.0912L57.2367 45.2959L56.9756 45.5006L57.1206 45.793L56.8886 46.1439L57.2947 46.4363L57.1497 47.2843L56.9176 47.5768L57.3527 48.1324L57.1206 48.571V48.7757L56.9176 48.9219L56.8015 49.2143H57.5558L57.6428 49.1266V48.7172L57.9909 48.6587L58.252 47.606L58.5421 47.4013L59.0933 46.7872L59.2964 46.3778L59.5865 46.4656L59.9346 46.0269L59.9926 45.676L60.5438 44.8865L60.95 44.7988L61.4431 44.5064L61.7042 44.5648L61.5882 44.1262L61.7332 44.0385L62.1394 43.98L62.4295 44.3894L62.5745 44.3309L62.6906 44.0677L62.9806 43.7753L63.1837 43.8338L63.5899 44.4479H64.3441L64.1411 44.0092L64.2861 43.9215L64.4892 43.98L64.5762 44.1262L64.3731 44.4771L65.2144 44.5356L65.8236 44.9742L66.0847 45.9685L66.3168 46.0269L66.7229 46.3778L66.6359 46.8165L67.042 47.0212L66.955 48.1324L66.81 48.4248L66.926 48.6295L67.0711 48.688L67.2161 48.8927L66.4618 48.9804L66.3168 49.1266H66.7229L66.926 49.2143L67.1581 49.8576L67.3611 49.9454L67.3031 50.3548L67.1001 50.6472L67.3031 51.0566L67.7093 51.2613L68.8407 50.501L69.5949 50.4132L69.798 50.0623H70.9004L71.0454 49.7992L71.3065 49.7407L71.6546 49.1851L72.5539 48.8927L72.6119 48.688L73.2212 48.4248L73.3372 48.5125V48.7172L73.4242 48.8049L73.4822 48.6002L73.3952 48.3955L73.9464 48.1324L74.4976 47.6937L74.8457 47.5475L76.0351 47.4598L76.1802 47.5475L76.2672 48.1616L76.2092 48.571L75.774 49.0096L75.3679 49.2143L74.8747 49.1266L73.6273 49.8284L73.3952 49.7699L71.8577 50.8811L71.6546 50.7934L70.8714 50.8519L70.2331 51.2613L70.0881 51.6707L69.3048 51.8169L69.1598 51.9631L69.2178 52.2555L68.6086 52.1678L68.1154 52.7234L67.6803 52.6356L67.4772 52.7234V53.2205L67.3321 53.3082L66.926 53.162L66.4328 53.3667L66.0847 54.858L65.8526 55.1505L65.6496 55.2382L65.1564 56.3494V56.6126L64.7503 57.0512L64.5472 56.9927L63.909 57.5483L63.8219 57.9577L63.0677 58.3671L62.6325 58.9227L62.2844 58.8349L61.9363 58.9812L61.8783 59.1274L61.4721 59.1858L60.9209 59.7414L60.5148 59.8292L60.0216 59.7414L59.6155 60.0046L59.3544 60.0631L58.9483 60.414L58.3101 60.1216L58.02 60.1801L57.4107 59.9169H56.4244L56.0763 60.1801H55.8732L56.2794 60.531L55.8732 61.0866L56.0183 61.2328L56.2794 61.2913L55.9312 61.5544L55.8732 61.7007L55.9603 61.8469L56.3084 62.0516L56.1053 62.4025L55.8152 62.2563L55.6702 62.3147L55.6121 62.5194L55.6992 62.9581L55.4961 63.309L55.351 64.0693L55.7862 64.3617L55.8442 64.5664L55.4091 64.6249L55.0029 65.3267L54.7418 65.3852L54.6548 65.2389L54.7128 65.0343L54.5098 64.6833L54.1036 65.122L53.9005 65.1805L53.7555 65.4729L53.3494 65.5314L53.2913 65.6191L53.3784 65.8238L53.6685 66.087L53.9005 65.6776H54.1036L54.4517 65.8823L54.0166 66.4379L53.7555 66.2332L53.6685 66.3794L53.7555 66.7303L53.6104 67.1689L53.7555 67.3151L53.9005 67.1689L54.4517 67.4321L54.5968 67.783L54.4517 67.9292H54.0166L53.6685 67.783L53.2623 67.8415L53.0593 67.7538L53.1463 67.2566L53.0593 67.052L52.8272 67.7538L52.218 67.666L51.7828 68.0169L51.6958 68.2216L51.8408 68.3678L52.4501 68.2801L52.6531 68.3386V68.8942L52.5081 69.0404L52.218 68.8942L52.0149 69.0404L52.1019 69.1866L52.5081 69.0989L53.1173 69.1574L53.2623 69.0697L53.6685 69.3328V69.6252L53.8135 69.9762L54.0166 69.9177L54.3067 69.6545L53.9586 69.3913L54.2487 69.1281L54.4807 69.0697L54.5678 69.5083L54.3067 69.8007L54.2487 70.0054L53.8135 70.2686L53.4074 70.3271L53.0012 70.1224L53.2043 69.713L52.5951 69.5668L52.247 69.6252L51.6378 70.1224L51.2897 70.1808V70.444L51.8408 70.5318L52.392 70.8827L52.334 71.0873L51.7248 71.526L51.7828 71.9354L51.6378 72.0816L51.7828 72.2863L52.392 72.491L51.8989 72.8419L51.9569 73.0466L52.247 73.2513L52.0149 73.6022L52.1019 74.2162L52.0149 74.3625L51.4637 74.7134V74.9181L51.7538 75.5614L51.6088 75.6491L51.2606 75.5906L51.1156 75.2397L50.9705 75.3274L50.8255 75.6783L50.8835 76.0877L50.6514 76H50.1583L49.8682 76.2632L49.6071 76.3217L49.5491 76.0585L49.8101 75.7076L49.6651 75.4152L49.2299 75.7076H48.5917L48.3887 75.6199L48.5337 75.269L48.1856 74.9181V74.5087L47.9825 74.2455L48.1276 74.0993L48.1856 73.456L48.5337 72.8419L48.1856 72.5787L47.7795 72.8419L47.7214 72.5787L47.9535 72.2278L48.1566 72.1401V71.8769L48.5047 71.3798L48.3597 71.0289L48.6498 70.4733L48.5917 70.0639L48.7368 69.9177L48.5917 69.6252L48.6498 69.4206L48.8818 69.1281V68.3678L48.6788 68.1631L48.5337 67.8122L48.9689 67.3736L49.375 66.5256L48.9399 66.3209L49.0849 66.1162L49.288 66.2039L49.2299 65.2974L49.433 65.005V63.8061L49.6361 63.5137L49.6941 63.1043L49.8972 62.6949H49.7521L49.462 62.4317L49.8682 62.0808L49.7521 61.4375L50.0132 60.9989L49.8101 60.1508L50.1002 59.449L50.0422 59.2443L51.0286 58.6302L50.9705 58.484L50.8255 58.4256L50.4194 58.6887L50.0712 58.484L50.0132 58.2793L50.3613 57.5775L50.1583 57.0219V56.671H50.6514L50.7385 56.5248L50.4774 56.1739L50.5354 55.7353L50.7385 55.3844H51.0286L51.3187 54.7411L51.2606 54.6533H50.7095L50.8545 54.3609L51.2606 52.8111L51.1156 52.4017L51.2026 51.9923L51.4347 51.7291L51.3477 51.3782L51.5798 51.0273L51.2316 50.7349L51.2897 50.5302L51.4927 50.4425L51.7828 50.5302L51.9859 50.384L51.9279 50.1793L51.6668 49.9161L51.8698 49.0681L51.7248 48.4248L51.7828 48.2201L52.1309 47.9277L52.0149 47.723L52.1309 47.3721L51.8698 47.0212L51.9569 46.875L52.1019 45.6176L51.9859 45.2082L52.276 44.7988L52.218 44.1555L52.4791 43.3659L52.363 43.2197L52.305 42.8103L52.5081 42.4594L52.6531 42.3717L52.5371 42.167L52.6531 41.7284L52.4501 41.3775L52.6531 39.8276L52.8852 39.5645L53.2333 39.4182L53.3784 39.0673L53.7845 38.9796L54.3937 39.3305L55.0029 39.4767L55.09 39.5645L55.148 39.7692L55.206 39.5645ZM48.8238 74.304L48.6207 74.2455L48.6788 74.3917L48.8818 74.4502L48.8238 74.304ZM49.317 71.0581L49.404 71.1458L49.8101 71.0873L49.6651 70.8827L49.259 70.8242L49.317 71.0289V71.0581ZM49.5491 71.8476L49.346 71.7599V71.9646L49.5491 71.8769V71.8476ZM49.8392 72.5494L49.7811 72.3448H49.491L49.433 72.5494H49.8392ZM49.6651 60.7064V60.9111L49.52 60.7649V60.5602L49.6651 60.7064ZM49.7521 67.9585L49.6361 67.8707L49.5781 67.9585H49.7231H49.7521ZM49.9552 70.3563L50.1002 70.2978V70.0931H49.8972L49.8392 70.2978L49.9552 70.3563ZM50.0132 71.0581L49.9552 71.1458L50.1002 71.292L50.5354 71.3798L50.8835 71.1166L50.9705 70.9119L50.7675 70.8242L50.2163 71.0873L49.9842 71.0289L50.0132 71.0581ZM50.2453 74.6549H50.4484L50.5644 74.3917L50.4194 74.3332L50.0712 74.5379L50.2743 74.6256L50.2453 74.6549ZM50.5064 72.7834H50.7675L51.0576 72.5202L50.9125 72.4325H50.5064L50.3613 72.5202L50.3033 72.7249L50.5064 72.7834ZM50.5934 68.0462L50.8255 67.8415L50.6224 67.7538L50.4194 67.8122L50.3613 68.0754H50.5644L50.5934 68.0462ZM50.8545 69.6545L51.0576 69.3913H50.7095L50.5064 69.6545H50.8545ZM50.7965 67.2566L51.0286 67.4613L51.2316 67.1689V66.9642L51.0286 66.9057L50.6804 67.1104L50.7675 67.2566H50.7965ZM51.1446 65.5899L51.2316 65.4436L51.0286 65.3559L50.8835 65.4436V65.6483L51.1446 65.5899ZM51.2026 74.8303V74.5672L51.0576 74.6256L50.9996 74.8303H51.2026ZM51.3767 72.7541V72.9004L51.5217 72.8419L51.3767 72.7541ZM51.9859 66.2917L52.1309 66.3794H52.363L52.7692 66.1747L52.8272 65.97L52.6821 65.8823L52.0439 65.97L51.8989 66.1162L51.9859 66.2624V66.2917ZM52.6241 69.8592L52.5371 70.1516L51.9279 70.2101V70.0054L52.1309 69.6545L52.421 69.5668L52.6241 69.6545V69.8592ZM52.189 58.0162L52.334 57.87L52.218 57.7237L52.0149 57.7822L51.9569 57.9869L52.1599 58.0454L52.189 58.0162ZM52.1309 64.7126L52.276 64.7711L52.334 64.5664L52.1309 64.4787L51.9859 64.6249L52.1309 64.7126ZM52.189 71.6429L51.9859 71.3798L52.1309 70.9704L52.334 71.0581L52.4791 71.409L52.392 71.6137H52.189V71.6429ZM52.1309 67.2859L52.189 67.0812H52.1019L52.1599 67.2859H52.1309ZM53.2623 70.8534L52.8272 70.9411L52.5951 70.5902L52.6821 70.444L53.0303 70.2978L53.3203 70.5025L53.4074 70.7657L53.2623 70.8534ZM53.2623 72.0523V72.257L53.1173 72.4032L52.6241 72.1985L52.6821 71.9939L53.1173 71.8476L53.2623 72.0523ZM53.2333 46.2024L53.1753 45.9977H52.9432L53.0012 46.2609L53.2333 46.2024ZM53.6685 71.5845L53.3203 71.6429L53.0303 71.4383L53.2333 71.1458L53.5814 70.9996L53.8135 71.4967L53.6685 71.5845ZM53.3203 54.7411L53.6104 54.4779L53.1753 54.5364L53.1173 54.7411H53.3203ZM53.3203 63.8938L53.1173 64.5956L53.2623 64.8003L53.6685 64.4494V64.1862L54.0746 63.9231L54.1616 63.7184L54.1036 63.6306L53.6104 63.7768L53.4074 63.7184L53.3203 63.8646V63.8938ZM53.8135 68.1924L53.6104 68.5433L53.2043 68.631L53.1463 68.1924L53.3784 67.9L53.7845 67.9585V68.2216L53.8135 68.1924ZM53.4074 56.8465L53.3494 56.6418H53.2623L53.2043 56.788L53.4074 56.8465ZM53.4074 62.6364L53.6975 62.3732L53.6395 62.1685L53.2913 62.3147L53.1753 62.5194L53.3784 62.6072L53.4074 62.6364ZM53.6685 63.1043L53.6104 62.8411L53.2043 62.9288L53.4074 63.1335L53.6685 63.075V63.1043ZM53.6104 61.7591H53.8135L53.4654 61.4667L53.4074 61.6714L53.6104 61.7591ZM53.8135 46.8457L53.8715 46.758L53.7265 46.6118L53.6104 46.8165L53.8135 46.875V46.8457ZM54.0746 70.5318L53.9296 70.5902V70.3855L54.1326 70.3271L54.0746 70.5318ZM54.1616 57.6653L54.2487 57.5191L54.0456 57.4606L53.9586 57.6653H54.1616ZM54.4227 60.2093L54.6258 60.1508L54.6838 59.9461H54.4807L54.2777 60.0923V60.297L54.4227 60.2093ZM54.7708 66.4086L54.8579 66.7595H54.4517L54.5968 66.3209L54.7418 66.4086H54.7708ZM54.5678 57.8407L54.7708 57.7822L54.8289 57.636L54.5388 57.6945L54.5968 57.8407H54.5678ZM54.9159 58.5133L55.119 58.4256H54.8579L54.9159 58.5133ZM55.4671 67.4906L55.322 67.5783L55.264 67.3736L55.4671 67.2859V67.4906ZM55.4671 60.7649V60.6187H55.3801V60.7649H55.4671ZM55.6992 65.7361V65.9992H55.4961L55.5541 65.7361H55.6992ZM55.6992 50.6472L55.7862 50.5595L55.6411 50.501L55.5541 50.6472L55.6411 50.7934L55.6992 50.6472ZM55.7862 43.9508H56.0473L56.1923 43.863L56.2503 43.5999L55.7572 43.7461L55.8152 43.9508H55.7862ZM55.9893 47.606H56.1343L56.0473 47.5183H55.8442L55.9893 47.606ZM56.1053 44.5648V44.4771H55.9603V44.5648H56.1053ZM61.5011 45.91L61.4431 46.4071L61.095 46.5533L60.8629 46.3486L60.6599 46.4071L60.4568 46.6703L60.7469 47.0212L60.0507 47.4598L60.1377 47.8692L60.0507 48.0739L59.7606 48.0154L59.6155 48.1616L59.4124 48.7757L58.8032 49.0681V49.5067L58.5421 49.9454L58.252 50.2085L57.6428 51.2613L57.3527 51.5244V51.8169L57.1497 52.08V52.3725L56.6565 52.9865L56.8886 53.279L56.9466 53.5421L56.4534 53.9515L56.5114 54.2439L56.1633 54.5071L56.5114 54.5656L56.8015 54.7703L56.8596 54.975L56.4244 55.3259L56.5695 55.7353L56.4244 56.1447L56.6855 56.4956L56.4244 56.905L56.5114 57.1097L56.3664 57.6068L56.5695 57.5191L56.7145 57.1681L57.3237 56.9635L57.7589 56.3494L57.9619 56.2616L58.8032 56.4663L58.9483 56.1739L58.8903 56.0277L59.5285 55.9692L59.2964 55.7645L59.7025 55.4721L60.1377 55.4136L60.6308 55.7645V56.0277L60.7759 56.3786L60.5148 56.5248L60.3117 56.4371L60.2537 56.2324L60.1087 56.1447L59.9636 56.2324L59.9056 56.6418L59.7025 56.5833L59.2094 56.788L59.1513 57.1389L58.7162 57.4898L58.223 57.2851L58.281 57.0804L58.6872 56.7295L57.7879 56.9342L57.7299 57.0804L58.223 57.4898L58.078 58.0454L57.5268 58.3086L57.3237 58.9227L57.4688 59.0104L57.8749 59.0689L58.223 59.2736L58.3681 59.1274L58.4261 58.8642L58.5711 58.7765H59.3254L60.1667 58.4256L60.7179 57.87L61.066 58.0162L61.4721 57.9577L61.6172 57.6068L61.9653 57.6653L62.0523 57.5191V57.1097L62.8936 56.1154L63.5318 55.9107L63.4448 55.5014L63.851 54.9458L63.6189 54.7411L62.3714 55.1505L62.1684 55.4429L61.8783 55.5891L61.6752 55.5306L61.4721 55.7938L60.8629 55.6476L61.2981 55.2967L61.3561 55.092L60.9209 55.1505L60.5728 55.2967L60.2827 55.0335L60.4278 54.8288H60.979L62.3134 54.5364L62.3714 53.9808L62.5745 53.893H63.1837L63.2708 53.7468L63.0387 53.5421L63.5318 53.4544L63.938 53.5129L64.7212 52.8111L64.7793 52.6064L64.6922 52.1093L64.8953 51.6707L64.8083 51.5244L64.8663 50.5302L64.7212 50.1793L64.8083 50.0331L64.6052 49.4775L64.6922 49.2728L65.0404 49.0096V48.8049H64.7793L64.5182 48.9511L64.3731 48.8634V48.6587L64.5762 48.3078L64.3731 47.8692L64.4311 47.6645L64.1411 47.3721L64.083 47.1674L64.1701 46.758L63.88 46.2609V45.8515L62.9806 45.7053L62.7196 45.5006L62.5745 45.1497L62.3714 45.2082L61.8783 45.8515L61.6462 45.91L61.5011 46.0562V45.91ZM56.2503 46.9627L56.4534 46.9042L56.5404 46.758H56.2503V46.9627ZM58.7162 49.0096L58.6582 48.8049L58.5131 48.7464L58.4551 48.9511L58.6872 49.0096H58.7162ZM61.2691 45.3544L61.5011 45.2082L61.211 45.1497L61.2691 45.3544ZM65.3305 45.91L65.5915 45.8515L65.3885 45.7053H65.2434L65.3305 45.91ZM65.9107 49.7114L65.8526 49.302L65.6496 49.2436L65.5045 49.536L65.6206 49.7407L65.8236 49.8284L65.9107 49.6822V49.7114ZM66.3748 48.571L66.4618 48.4248L66.3748 48.2786L66.2878 48.3371L66.3748 48.6002V48.571Z" fill="#FBFADA"/>
<path d="M82.3591 26.7565L83.1424 27.3121L83.5776 27.3998L83.8096 27.663L83.9257 28.0723L84.6219 28.8619L85.0281 29.5052L85.0861 29.9146L85.4342 30.1778L85.5502 30.5872L85.2891 30.9965L85.2311 31.4352L85.5212 32.137L85.4632 32.4002L85.2601 32.6633L85.2021 33.0727L84.912 33.4236L84.854 33.7745L85.2021 34.5348L84.854 34.8857L84.796 35.3244L84.941 35.88L84.854 36.0847L84.5639 36.3478L84.6219 36.6987L84.5349 36.9034L84.0417 37.1666L83.9837 37.3713L84.0707 37.7807L84.2738 38.0439L84.1868 38.4825L83.7516 38.6872V39.1258L83.2004 39.4767L82.9974 40.5294L82.8523 40.6172L82.6492 40.5587L82.5622 40.9096L82.2721 41.2605L82.3882 41.7576L82.3301 42.0208L81.837 42.4302L81.6049 42.9858L81.3148 43.249L81.2568 43.5999L80.9667 43.8046L80.0383 45.5591L79.6902 45.7053L79.2841 46.2609L79.5162 46.6118L79.11 46.758L79.023 47.4598L78.5879 47.8107V48.3663L78.0947 48.7172L78.1527 49.2143L78.2978 49.5652L78.2397 49.7699L77.8336 49.9161L78.1817 51.1735L77.7466 51.2613L77.5435 51.6122L77.9496 51.8169L78.0077 51.9631L77.9206 52.1093L77.6305 52.2555V52.6941L77.1954 53.3082L77.3404 53.6591L77.1374 53.9223L77.2244 54.0685L77.2824 54.4779L77.1664 54.6241L77.2824 54.7703L77.6885 54.858L77.7756 55.0042L77.7176 55.2089L77.3694 55.4721L77.1374 56.3201L77.1954 56.7295L77.0503 56.8173L76.2671 56.905L76.122 57.0512L76.209 57.2559L76.5572 57.3436L76.9053 56.9927L77.3404 57.1389V57.636L77.7466 57.9869L77.6885 58.2501L77.3404 58.4548L77.2824 58.2501H76.8473L76.9343 58.4548L77.2824 58.601L77.2244 59.0981L77.0793 59.0104H76.4701L76.18 58.9227L75.7449 59.2151L75.8899 59.4198L76.3831 59.2151L76.5862 59.2736L76.8473 59.5368L76.7022 59.8877L77.3114 60.2971L77.2534 60.5017L76.8473 60.8526L77.0503 61.1451L76.9053 61.5545L76.9923 61.7592L77.3404 61.6714L77.4275 62.0808H77.0793L76.8763 62.3732L77.1664 62.461L77.2824 62.7241L77.6305 62.4317L77.8916 62.6949L77.4565 63.1335V63.5722L77.5435 63.6306L78.0367 63.3675L78.4428 63.6599V63.309L78.994 63.2213L79.8933 62.8119L80.0964 62.461L80.3865 62.1978L80.7926 62.4025V61.8469L81.0537 61.5545L81.2568 61.496L81.3438 61.2036L81.895 60.648L82.1271 60.0046L82.6783 59.3905L82.7653 58.9812L83.3745 58.7765L83.6646 58.484L83.7226 57.87L83.8677 57.5191L84.7089 56.2324L85.0571 55.4721L85.5502 54.858L85.8984 54.1562L85.9564 53.6591L86.5656 52.7234L87.0587 52.6649L86.9137 51.9046L87.3489 51.2905L88.1031 49.9454L88.3352 49.6822L88.8284 48.6295V48.2786L89.2345 47.9277L89.3215 47.489L89.7277 47.3428L90.1338 47.6353L90.2498 48.0446L90.0468 48.6002L90.1338 49.0974L90.0468 49.2436L89.4956 49.4483L89.5536 49.653L89.3505 50.2086L89.0024 50.1501L88.7993 50.6472L88.8574 51.4075L88.4512 51.7584L88.6833 52.1093L88.6253 52.3725L87.9871 52.431V52.7819L87.726 53.2205L87.4359 53.4837L87.3779 53.7468L86.9427 54.3902L86.7396 55.1505L86.1014 55.5598L86.3045 55.8523V56.1154L85.9564 56.3201L85.8984 56.7295L85.6953 57.0219L85.3472 57.2266L85.1441 57.7822L84.912 58.0454L84.767 58.4548L84.2158 58.8057L84.2738 59.2151L83.5195 59.566L83.3745 60.1801L83.4905 60.3848L82.8813 61.2328L82.4462 61.3205L82.3011 61.4667L82.1851 61.8761L81.7789 62.1685V62.4317L81.6339 62.7826L81.0827 62.9873L80.8216 63.6014L80.1834 63.7476L79.6902 64.3032L78.7329 64.7126L78.1817 65.2097L77.8336 65.2682L77.5725 65.1805L77.3694 65.2682L76.9633 65.2097L76.7602 65.2974L76.5572 65.7361L75.9189 65.7946L75.5128 65.5021L75.1647 65.5899V65.1512L75.0777 65.0635H74.5845L74.4394 64.7711L74.5265 64.6249L74.2944 64.3617L73.8882 64.3032L73.7722 63.6891L73.5691 63.3967V63.192L72.8149 61.9931V61.5545L72.5248 61.1158L72.6118 60.7064L72.5538 60.3555L72.2057 59.7122L72.4668 59.3028L72.1186 58.9519V58.0454L72.2057 57.8992L72.0026 57.2851L72.1477 56.8757L71.9446 56.0862L72.0896 54.9458L72.3797 54.6826L72.0896 54.0393V53.5421L72.3217 53.1328L72.2347 52.7234L72.6698 52.6356L72.7569 52.4894L72.6988 52.2847L72.1477 52.08L72.2347 51.8753L72.5828 51.6707V50.8811L72.4668 50.4717L72.6698 50.1208L72.6118 49.7114L72.7569 49.3605L72.9599 49.2728L73.163 48.6295L72.7278 48.4833L73.134 47.7815V46.8457L73.4821 46.7872L73.5982 46.6995L73.4821 46.4948L73.192 46.2316L73.047 45.793L73.5982 45.5006L73.4531 44.5064L73.5401 44.1555L73.9463 44.3017L74.0333 44.1555L73.7432 43.5414L74.1493 43.3952L74.2364 43.249L74.1493 42.6934L73.8012 42.05L74.2074 41.9915L74.4975 41.6991L74.4394 41.4359L74.6715 41.085L74.5845 40.8804L74.3814 40.7926V40.5002L74.8746 40.237V39.8861L75.2227 38.9504L74.9326 38.658L74.8746 38.3655L75.3097 38.0146L75.4548 37.2543L75.3097 36.9034L75.5708 36.494L75.4548 36.2016L75.8899 35.4998L75.8319 35.2366L76.093 34.8273L75.8319 34.681L75.7739 34.4763L76.2671 34.3886L76.3541 34.2424L76.006 33.95V33.6868L76.4411 33.1897L76.2961 32.9265L76.5281 32.5171L76.3251 32.1662L76.6732 31.172L76.9633 30.9673L77.0793 30.5579L77.4855 30.3532L77.5725 30.207L77.4855 30.0608L77.1374 29.9146L77.2824 29.3005L77.7756 28.7449L77.8916 28.2478L77.8336 27.8092L78.6169 27.1658L79.023 27.1074L79.4581 27.1951L79.8643 26.9904H80.0964L80.4445 27.1951L80.5895 26.8442H81.0247L81.6629 27.0489L82.011 26.9027L82.2141 26.9904L82.3591 26.7565ZM72.3507 55.3552L72.2637 55.2674L72.2057 55.3552H72.3507ZM74.7295 60.7064L74.9326 60.648L75.0486 60.5017L74.9326 60.3555L74.5845 60.414L74.5265 60.6772L74.7295 60.7357V60.7064ZM75.1937 59.9461L75.4548 59.7415L75.3097 59.683L75.0777 59.8877L75.2227 59.9461H75.1937ZM75.2227 40.7049L75.1067 40.6464V40.7049H75.2227ZM75.7159 60.5602L75.4838 60.7649L75.8319 60.8234L76.18 60.6187L76.2671 60.2678L76.064 60.3263L75.8609 60.531L75.7159 60.5895V60.5602ZM75.8899 59.7415V59.6537H75.8029V59.7415H75.8899ZM76.2381 52.6941H76.035L75.8899 52.9865L76.122 53.1328L76.3251 52.8696L76.2381 52.6649V52.6941ZM76.122 51.5537L76.18 51.2905L75.9189 51.3782V51.5829L76.122 51.5244V51.5537ZM76.122 56.1447L76.18 55.9985H75.977L76.122 56.1447ZM76.2671 65.0927L76.4701 64.8296L76.2671 64.7711L76.064 65.0343L76.2671 65.0927ZM76.5572 54.0685L76.8182 53.8638L76.8763 53.6591L76.4411 53.7176L76.3251 53.9223L76.5862 54.0685H76.5572ZM76.7602 55.4136L77.0213 55.2089L76.9053 55.0627L76.6732 54.975L76.5281 55.3259L76.5862 55.4721L76.7892 55.4136H76.7602ZM76.8182 57.5483L76.6152 57.4021L76.5572 57.6068L76.8182 57.5483ZM77.7176 56.6418L77.4855 56.7295L77.1374 56.4371L77.4855 56.2909L77.8336 56.4371L77.7176 56.6418ZM77.6595 53.4544L77.6015 53.6006L77.3404 53.5421L77.2534 53.3375L77.6015 53.279L77.6595 53.4252V53.4544ZM77.6015 65.5899L77.2534 65.5021L77.3114 65.2974L77.6595 65.239L77.6015 65.3267V65.5899ZM77.4565 61.0866L77.3114 60.9989V60.9111L77.4565 60.8234V61.1158V61.0866ZM79.11 43.9508V43.7461L78.907 43.8923L79.11 43.9508ZM81.4888 27.8092L80.7346 28.0723L80.8796 28.9204L80.7346 29.2713L80.9377 29.6807L80.7346 29.9731L80.9377 30.1193L80.9957 30.324L80.6476 30.9381L80.8796 30.9965L81.1697 31.2597L80.7346 31.6984V31.9031L81.0247 32.3124L80.8796 33.2482L80.6766 33.5406L80.9667 34.1839L80.9086 34.3886L80.5025 34.9442L80.7636 35.2366L80.8506 35.5875L80.7926 35.7338L80.5025 35.9969L80.4445 36.611L80.2994 36.9034L80.4445 37.3128L80.3865 37.5175L80.2414 37.6052L79.8353 37.5468L79.4291 37.9561L79.6322 38.0439L79.8933 37.9561L80.2994 38.0439L80.3865 38.1901L80.3285 38.3948L79.9803 38.541L80.0383 38.8919L79.4291 39.389L79.5742 39.7399L79.5162 39.9446L79.9223 40.2955L79.7773 40.9973L79.9803 41.3482L79.7773 41.6991V42.1962L79.4872 42.2547L79.2841 42.5179L79.5742 42.9273L79.7773 42.9858L80.4155 42.2255L80.4735 41.9623L81.0827 41.6114L81.1697 41.1728L81.1117 40.7634L81.7499 40.0031V39.7984L81.982 39.389L81.924 38.9796L82.1271 38.6872L82.4752 38.5995L82.5332 38.0439L82.8813 37.7515L82.7653 37.3421L83.4615 35.1489L83.6936 34.8565L83.5485 34.4471V34.1839L83.8386 33.6868L83.6356 32.7511L83.8677 32.4587L83.6356 31.9615L83.4325 31.055L83.5776 30.9088L83.6646 30.0608L83.3745 29.8561L83.2875 29.6514L83.4905 29.3005L82.9974 28.7449V28.5402L82.3882 27.8969H81.7789L81.4308 27.7507L81.3148 27.8384L81.4888 27.8092ZM80.1834 39.5645L80.1254 39.8569L79.9223 39.7107L79.9803 39.506L80.1834 39.5645Z" fill="#FBFADA"/>
<path d="M97.1833 43.3659L97.8795 44.2139L98.2857 44.0677L98.7208 44.3601L98.8659 44.7111L98.9239 45.2082L99.5621 45.4713L99.156 45.676L99.214 46.0269L99.0979 46.1732L98.5468 46.3778L98.2857 46.5825H98.0826L97.3864 46.2901L97.2703 46.0854L97.0672 45.9977L96.8642 45.7053L96.255 45.3544L95.2106 45.0912L94.8625 45.1789L94.0792 46.5241L93.6441 46.8165L93.5861 47.2259L93.441 47.5183L93.383 47.9277L92.9768 48.1324L93.1799 48.4833L92.4837 48.9219L92.3967 49.0681L92.4837 49.4775L92.1356 49.6822L92.2226 50.1793L91.6714 50.5887V51.2028L91.1782 51.466L91.2363 51.6122L91.5264 51.8169L91.1202 52.314L91.2653 52.6649L91.0332 53.5129L90.8881 53.7176L90.482 53.9223L90.395 54.0685L90.482 54.3317L90.2789 55.092L90.482 55.3551V56.1154L90.3369 56.2616L89.9018 56.3494L90.0469 56.905L89.5537 57.1682L89.3506 57.4606H90.1339L90.2209 57.6068L89.7858 58.0162L89.6697 58.2209L89.7858 58.4256L90.2209 58.2209L90.424 58.3671L90.482 58.5718L90.3369 58.8642L90.8301 59.1274L90.9752 59.4783L91.2653 59.7415L91.7004 59.7999L92.0485 59.9461H92.4837L92.8318 59.7999L93.0349 59.8584L93.5861 59.5075L93.8181 59.2151L94.3113 58.9227L94.5434 58.6303L94.8335 58.718L95.0366 58.6595L95.4717 58.0162L95.8778 57.9577L95.9649 57.8115L95.9069 57.4606L96.5161 57.1097L96.6031 56.671L97.3574 56.4663L97.2703 55.7645L97.5024 55.1505L97.9085 55.0627V54.6241L98.4597 54.127L98.8078 53.9223L98.8659 53.7176L99.359 53.162L99.214 52.8696L99.6491 52.4309L99.7071 51.5244L99.9392 50.7349L99.7942 50.2963L100.142 50.1501V49.9454L99.9973 49.653L100.258 49.5945L100.664 49.1558L100.606 48.8927L100.693 48.4833L100.548 48.1909L100.693 47.7815V47.2259L101.303 46.5825L101.39 45.9685L101.332 45.7638L101.941 45.4129L101.999 45.2667L101.506 45.1204L101.564 44.8573L101.97 44.4186L101.883 44.0677L102.086 43.8045L102.434 43.6583L102.695 43.7168L102.84 43.1612L102.985 43.0735L103.42 43.2197H103.856L104.262 43.0735L105.538 44.0092L105.973 44.6526L105.886 44.7988L105.538 45.0035L105.451 45.2082L105.596 45.6176L105.538 45.8807L105.973 46.2316L105.48 46.875L105.77 47.1674V47.4306L105.915 47.5768L106.205 47.6645L106.147 47.9277L105.596 48.3371L105.538 48.4833L105.625 48.6295L105.393 48.9219V49.1851L105.828 49.2436L105.915 49.5945L105.712 49.6822L105.306 49.5945L105.219 49.7407L105.422 50.2963H105.654L105.364 50.384L105.451 50.5887L105.741 50.8519L105.828 51.0566L105.741 51.2028L105.132 51.349L105.277 51.8461L104.987 52.3432L105.596 52.4017L105.799 52.5479L105.712 52.6941L105.364 52.8988L105.219 53.893L105.451 54.1855L105.364 54.3902L104.813 54.5949L105.219 54.9458L105.161 55.2089L104.813 55.4721L104.9 55.7645L104.813 55.9692L104.407 56.2616V56.6126L104.117 56.8172L103.42 57.0804L103.653 57.3436L104.407 57.1974L105.016 57.4021L104.929 57.6068L104.146 57.8115L104.291 58.2501L103.856 58.5425L103.507 58.6303L103.362 58.7765V58.9812L103.914 58.718L104.349 58.6595L104.697 59.1566L104.407 59.3028L104.291 59.449L104.929 59.7122L104.668 60.1508L104.61 60.5895L104.117 61.0866L104.204 61.2913H104.697L104.784 61.1451L104.987 61.4082V61.6129L104.581 61.8761L104.668 62.227L104.233 62.5779L104.291 62.8411L104.146 63.3967L104.494 63.5429L104.581 63.7476L104.436 64.04L104.088 64.1278V64.4787L104.349 64.4202L105.045 64.5664L104.987 64.8296L104.842 64.888L104.349 64.6249L104.146 64.7126L103.943 65.122L104.436 65.2097L104.494 65.5606L104.204 65.7068L103.769 65.6483L103.42 65.5021L103.13 65.7945L102.376 65.7068L102.927 66.2039V66.4086L103.275 66.9057L103.072 67.3151L103.188 67.4613L103.391 67.4029L104.233 66.701H104.465L104.61 66.8473V67.2859L105.161 67.6368L105.103 67.8415L104.842 68.1047L104.494 68.0462L104.349 68.1339L104.407 68.4848L104.262 68.631H104.059L103.653 69.3328L103.449 69.4206L103.159 69.2743L103.304 68.865L103.101 68.8065L102.753 68.8942L102.405 68.2801L102.753 68.0169L103.304 68.2216V68.0169L103.014 67.666L102.869 67.8707L102.434 67.9585L102.202 68.2509L102.144 69.0112L101.883 68.9527L101.129 68.4556L101.042 68.5433L100.81 68.4848L100.258 67.6953L100.49 67.4029L100.403 67.1982L99.9102 67.4029L99.272 66.2624V65.8238L98.8369 65.5606V64.6541L98.9819 64.3032L98.5758 64.2155V63.6014L98.8659 63.5137L99.0109 63.309L98.7498 63.2505L98.4887 62.9873L98.9819 63.0458L99.214 62.7826L98.9819 62.5194L98.6338 62.4317L98.5468 62.2855L98.6048 61.8469L98.6918 61.7007L98.4017 61.4082L98.6048 60.9989L98.4887 60.7942L98.6048 59.5952L98.9529 59.449L98.6628 59.0981L98.5177 58.1039L98.9529 58.0454L99.0399 57.8407L98.6918 57.7822L98.4017 57.4898H98.1986L97.7635 57.7822H97.5604L97.5024 58.1916L97.2703 58.2794L97.0672 58.6303L96.5741 59.1859L96.1389 59.2736L95.9939 59.4198L96.0809 59.7707L95.2396 60.7064H94.5434L94.2533 60.9111L94.6014 61.4082L94.1663 61.8176L93.9342 62.1685L93.325 62.3147L92.9768 62.2563L92.6287 62.344L92.3386 62.2855L91.8455 62.8996H91.2363L90.395 62.7534L90.1049 62.4025L89.6697 62.461L89.2636 62.3147L88.6544 61.7592L88.4513 61.7007V61.4082L88.3063 61.3205L87.9001 61.379L87.465 61.0281L87.0298 60.9404L86.8267 60.531L86.9718 60.1216L86.3336 60.0631L86.1885 59.9754L86.3916 59.4783L86.3046 59.3321H85.8984L85.6083 59.1859L85.7534 58.7472L85.5503 58.1331L85.2892 57.7822V57.5775L85.7824 57.2266L85.6373 57.0804H85.2312L85.4923 56.7295L85.2312 56.3201L85.2892 55.9107L85.5503 55.6476L85.2892 55.3551L85.5503 55.0042V53.4544L85.4343 53.1035L85.4923 52.8988L85.7824 52.6064L85.9855 52.5479L85.8404 52.1385L86.4496 50.3255L86.6527 50.0331V49.6822L87.0878 49.1266L87.1749 48.7172L87.61 48.3663L88.2482 47.4306V47.1381L89.2346 45.793L89.5247 45.5298L89.9308 45.4421L90.0759 45.2959L90.1629 44.8573L91.1202 44.3601L91.2653 44.0092L92.3967 43.0735L92.6868 43.2782L93.6441 43.0735L94.2823 42.7226L94.6884 42.9273H95.0946L95.4427 43.0735L96.197 42.9858L96.9512 43.1905L97.0092 43.4536L97.1833 43.3659ZM88.6254 59.7415H88.7704L88.7124 59.4783H88.5673L88.4803 59.683L88.6254 59.7415ZM90.8591 61.496L90.598 61.4375L90.54 61.5837L90.7721 61.7299L90.8301 61.4667L90.8591 61.496ZM91.0042 52.6064L90.9171 52.314H90.7141L90.6561 52.4602L90.8591 52.7234L91.0042 52.6356V52.6064ZM99.8232 63.8938L99.7071 63.4552L99.4751 63.3675V63.6306L99.6201 64.04L99.7652 64.1278L99.8232 63.9231V63.8938ZM100.461 64.8588V64.7126H100.316V64.8588H100.461ZM101.564 67.1397L101.419 66.935L101.274 66.9935V67.1397L101.477 67.2859L101.564 67.1397ZM101.622 60.1508L101.767 60.0046L101.68 59.8584L101.477 59.9169L101.39 60.1216L101.651 60.1801L101.622 60.1508ZM103.13 64.1862L103.188 64.3909L102.347 64.8003L102.086 64.5956L101.448 64.7418L101.361 64.8296L101.419 65.0343L101.622 65.0927L101.912 65.005L102.55 65.2097L103.188 64.9173L103.594 65.1805L103.74 64.888L103.478 64.6834L103.42 64.4787L103.827 64.1278L103.914 63.8353L103.507 63.7768L103.217 63.9231L103.13 64.0693V64.2155V64.1862ZM101.651 66.6426L102.057 66.4964L102.144 66.5841L102.347 66.5256L102.202 66.3209H101.651L101.506 66.4671L101.651 66.6133V66.6426ZM102.202 65.6483H101.651L101.593 65.853L101.738 65.9408L102.173 65.853V65.6483H102.202ZM101.796 67.9L101.999 67.9585L102.144 67.8122L101.796 67.666L101.651 67.7538L101.796 67.9ZM102.144 64.3617L102.289 64.0108H101.941L101.68 64.3617H102.115H102.144ZM102.202 62.4902V62.2855L102.057 62.344L102.202 62.4902ZM102.492 67.2859L102.637 66.7303L102.231 66.8765L102.173 67.2859H102.463H102.492ZM102.898 62.9873L102.463 63.075L102.26 63.3675L102.405 63.4552L103.101 63.309L103.507 63.0166L103.42 62.5194L103.072 62.461L103.13 62.8996L102.927 62.9581L102.898 62.9873ZM102.811 66.701L103.101 66.3501H102.753L102.608 66.701H102.811ZM102.898 61.7007L103.014 61.6129V61.262L102.724 61.4082V61.7592L102.927 61.7007H102.898ZM103.304 61.6422L103.565 61.7007L103.42 60.9111H103.275L103.333 61.2036L103.188 61.496L103.333 61.6422H103.304ZM103.449 56.1154L103.653 55.8523L103.246 56.057V56.2032L103.449 56.1154ZM103.449 57.6653L103.682 57.5775V57.3728L103.275 57.4313L103.217 57.636L103.42 57.6945L103.449 57.6653ZM103.478 66.1455L103.391 65.8823L103.536 65.7361L103.943 65.6776L104.291 65.8238V66.1162L104.059 66.2624L103.623 66.3209L103.507 66.1162L103.478 66.1455ZM103.682 55.5014L103.798 55.3551L103.682 55.2089L103.536 55.4721L103.682 55.5306V55.5014ZM103.74 60.0924L103.653 59.8877L103.565 60.0924H103.769H103.74ZM104.378 59.9461L104.465 59.7999L104.262 59.8584L104.378 59.9461ZM104.581 51.8461L104.639 51.9923H104.842V51.7876L104.639 51.6999L104.581 51.8461ZM104.784 54.5656L104.929 54.4194L104.726 54.3609L104.581 54.4486L104.639 54.6533L104.784 54.5656ZM104.842 52.8696L105.045 52.7818L104.958 52.6941H104.755L104.697 52.8403L104.842 52.8988V52.8696ZM105.364 56.1154L105.451 56.3201L105.306 56.671L104.9 56.8172L104.813 56.671V56.2616L105.219 55.9692L105.364 56.1154ZM105.19 62.8411L104.842 63.0458V62.6949L105.132 62.5487L105.277 62.6949L105.19 62.8411ZM105.335 58.0162L104.9 58.2794V57.87L105.19 57.7238L105.393 57.8115L105.335 58.0162ZM105.683 66.7888L105.48 66.701L105.683 66.6426V66.7888ZM105.683 68.3094L105.538 68.3971V68.1047L105.683 68.3094ZM106.379 47.0504H106.176V46.9042L106.466 46.9627L106.379 47.0504Z" fill="#FBFADA"/>
<path d="M115.779 40.354L116.881 40.6172L117.084 40.5587L117.693 40.9096L118.129 41.319V41.5237L117.722 41.5821L117.577 41.6699L117.635 42.4302L118.187 42.9273L118.245 43.1905L117.896 43.3367L117.664 43.5998L117.809 44.5063L117.548 44.7988L117.49 45.2374L117.142 45.5006H116.91L116.707 45.793L116.301 46.9042L116.591 47.5475L116.881 47.606L117.084 47.9569L117.142 48.3663L117.548 48.3078L117.809 48.8634L117.896 48.7172L118.245 48.9219L118.796 49.4775V49.8869L119.057 50.1793L119.405 50.3255L119.753 50.2378L119.898 50.0916L120.333 50.7934L119.898 51.232L120.13 51.2905L120.536 51.6999H120.884L121.233 51.4075L121.436 51.4952L121.639 51.7584L121.581 52.1093L121.668 52.314L122.016 52.4017L122.103 52.5479L122.016 52.9573L122.364 53.045L122.799 52.9865L123.089 52.7818L123.147 52.6356L124.076 52.3432L124.424 52.1385L124.83 52.08L125.584 52.4894L125.526 52.6941L124.482 52.9865L124.424 53.3959L123.814 53.4836L123.727 53.893L123.292 54.3024V54.5656L123.06 55.2089L123.118 55.4136H123.727L123.495 55.8523L123.292 55.9107L122.944 55.6183V55.9692L123.495 56.3786L123.147 56.788L123.698 57.2266V57.636L123.989 57.8407L124.134 57.753V57.4898L123.93 56.8757L124.047 56.671L123.901 56.3786H124.192L124.134 56.6418H124.424L125.033 56.9342L125.12 57.2851L125.062 57.4898L124.656 57.4313L124.569 57.5775L124.859 58.1331L124.917 58.5425L125.12 58.8349L124.685 59.683L124.83 60.0339L125.12 60.2386L125.178 60.4432L124.772 60.7942L124.83 61.6422L125.033 61.9053L124.917 62.11L124.569 62.1978L124.656 62.7534L124.424 63.0165L124.076 63.1628L123.989 63.6014L124.047 64.0108L123.698 64.4202L123.553 65.122H123.147L123.06 65.2097L122.944 65.7653L122.596 65.853L122.335 66.2917H122.132L121.146 66.9057L121.088 67.4028L120.449 67.8415L120.043 67.9877L119.753 68.4263L119.144 68.2801L118.999 67.8415L118.651 68.1047L118.593 68.4556L117.838 68.7187L117.635 68.9819L117.229 68.9234L116.446 69.0696L116.098 69.0112L115.402 68.6018L115.198 68.2509L114.792 68.4556L114.734 68.0462L114.386 68.1924L113.835 67.8415H113.574L113.023 67.4321L113.081 67.0812L112.472 66.7888V66.4379L111.978 65.9992L111.92 65.5606L111.63 65.1512L111.775 64.6541L111.572 64.157L111.659 63.9523L111.311 63.5429L111.659 63.1043L111.427 62.5487V62.1978L111.514 62.0516L111.862 61.9053L111.804 61.2913L112.414 60.6479L112.501 60.297L113.632 60.2386V60.0339L113.4 59.7414L114.241 59.3905L114.299 59.1858H114.56L114.705 59.0981L114.763 58.8934L115.605 58.2793L115.663 57.9284L116.272 57.6653L116.359 57.2266L117.142 56.788V56.2909L116.649 55.6768L116.562 55.2382L116.156 55.092L116.098 54.6533L115.663 54.0392L115.75 53.6299L115.489 52.8403H115.257L114.85 52.6941L114.212 52.2555L114.096 51.8168L113.603 51.2028V50.9103L113.052 50.3547L112.994 50.0916L113.081 49.6822L112.994 49.4775L112.443 49.7407L112.036 49.0973L111.688 48.8926V48.5417L111.05 47.1381L111.108 46.8457L111.021 46.6995V45.5883L110.905 45.4421L110.963 44.5941L111.166 44.0385L111.311 43.1905L111.514 42.9273L111.572 42.284L111.978 41.9331L112.181 41.4359L112.472 41.2897L112.762 40.9388L113.11 40.7341L114.734 40.4417L115.082 40.1785L115.228 40.237L115.46 40.5294L115.721 40.4709L115.779 40.354ZM117.577 57.8992L117.229 58.1039H116.968L116.62 58.8057H116.185L115.547 59.5075L115.198 59.7707L114.763 60.3263L114.27 60.6772L114.125 61.0281L113.98 61.0866L113.284 61.7299L113.226 62.1393L113.081 62.4317L113.139 62.6364L112.994 63.0458L113.11 63.3382L112.965 63.9523L113.168 64.3617L113.023 64.5079L113.168 64.5956L113.226 64.8588L114.067 66.2039L115.663 66.8472L116.446 66.935L116.881 66.5841L117.287 66.5256L117.693 66.087V65.8238L118.129 65.5606L118.216 65.4144L118.129 65.005L118.68 64.5664L118.622 64.2155L119.057 63.6014L119.144 63.192L119.55 62.7826L119.347 61.9346L119.637 61.379L119.347 60.8819L119.26 60.0339L118.97 59.683L118.912 59.4783L119.057 58.9227L118.651 58.8349L118.39 58.6302L118.535 58.2209L117.78 57.8115L117.577 57.87V57.8992ZM116.069 44.097L116.127 43.7461L116.388 43.3952V42.9858L116.533 42.4886L115.779 41.7868L115.489 41.6406L115.053 41.6991L114.705 41.8453L114.212 42.4594L113.951 43.7168L113.748 44.0092L114.096 44.2724L114.299 45.2082H114.531L115.169 45.6175L115.721 45.0619L116.156 44.3017L116.069 44.097ZM115.431 53.2497H115.286L115.344 52.9865L115.46 53.2497H115.431ZM117.229 48.9511L117.113 48.7464L117.055 48.9511H117.2H117.229ZM120.797 50.7057L120.652 50.9103V50.7057H120.797ZM120.942 65.9992L121.029 66.1454L121.378 66.2917V65.9992L121.029 65.853L120.942 65.9992ZM121.146 60.5017L121.291 60.8526H121.552L121.697 60.7649V60.5602L121.465 60.297H121.233L121.175 60.5017H121.146ZM121.581 55.7938L121.378 55.706V55.9107L121.668 55.9985L121.581 55.7938ZM121.929 57.753H122.132V57.5483L121.871 57.6068L121.929 57.753ZM122.045 59.2151L122.393 59.3028L122.683 59.0396H123.089L122.944 58.8934L122.538 58.8349L122.103 58.9811L122.045 59.1858V59.2151ZM122.77 58.3963L123.669 58.1916V58.0454L123.263 57.8407L122.712 58.0454L122.567 57.9577L122.509 57.753H122.364L122.306 57.9577L122.567 58.3963H122.77ZM123.814 58.8934L123.669 58.9519L123.611 59.1566L124.366 59.0689L124.453 58.9227L124.25 58.8349L124.018 58.2793L123.814 58.3378L123.959 58.8349L123.814 58.9227V58.8934ZM123.669 61.4082H123.872V61.1451H123.669V61.4082ZM127.731 50.7057L127.238 51.4075L126.483 51.7584L126.048 52.3724L125.845 52.2847L125.758 51.9338L125.555 51.8461L125.149 51.9046L125.091 51.6999L125.236 51.349L125.526 51.0858L125.874 51.232L126.019 51.1443V50.7934L126.425 50.6472L126.541 51.0858L126.89 50.9981V50.2085L127.238 50.1501L127.876 50.5887L127.731 50.7349V50.7057ZM132.691 46.1731L133.388 46.875L133.301 47.1381L133.011 47.3428L132.779 47.8399L131.937 48.6002H131.502L131.154 48.7464L130.719 49.302L129.936 49.5945L129.297 50.0331L129.094 50.384L128.398 50.6472L127.992 50.5887L128.079 50.1501L127.789 49.7992L127.876 49.6529L128.166 49.5067L129.007 48.7464L129.558 48.5417L130.11 48.1031L130.719 48.1908L130.806 48.0446L130.661 47.7522V47.5475L130.864 47.4013L131.27 47.4598L131.618 47.6645L131.705 47.4598L131.444 47.1674L131.502 46.9627L131.908 46.8165L132.314 46.875L132.604 46.6118V46.1731L132.749 46.2316L132.691 46.1731Z" fill="#FBFADA"/>
<path d="M136.492 26.0839L136.898 26.3763L137.043 26.7857L137.391 26.9904L137.478 27.1366L137.246 27.546L137.478 27.8384L137.391 28.5987L137.478 28.8034L137.188 29.1543L137.246 29.4175L137.043 29.9731L137.13 30.1193L137.42 30.2655L137.275 31.2597L137.13 31.4059L137.42 31.7568L137.188 32.2539V32.6049L137.333 32.7511L137.188 33.0435L137.275 33.2482L137.217 33.8623L137.304 34.067L137.101 34.4763L137.304 34.8272L137.101 35.1197L136.695 35.2659L136.782 35.4706L137.014 35.6753L136.956 35.9384L137.362 36.3771L136.666 37.6345L136.927 37.9854L136.811 38.2778L137.072 38.6872L136.782 39.0381L136.724 39.3013L136.463 39.6522L137.072 40.2955L136.927 40.6464L136.985 40.9973L136.782 41.3482V41.6114L136.347 42.2255L136.579 42.5764L136.492 42.7226L136.144 42.9273V43.132L136.347 43.0735L136.695 43.2782L136.492 43.6291H136.231L136.492 43.98L136.086 44.3894L136.144 44.7988H136.579L136.492 45.0035L136.289 44.945L135.737 45.2374L136.086 45.6468L135.941 45.793L135.679 46.4363L135.418 46.7287L135.679 46.875L135.882 46.8165L136.086 47.1089L135.941 47.8107L135.795 47.9569L136.086 48.3078V48.5125L135.737 49.2143L135.824 49.3605L135.882 50.1501L135.331 50.2963L135.563 50.7057L135.505 51.2613L135.737 51.6706L135.592 51.7584L135.447 51.6999L135.302 51.7876L135.157 52.1385V53.045L135.012 53.3959L135.07 53.6006L135.36 53.893L135.302 54.0977L134.809 54.3609L134.664 55.2089L134.867 55.1504L135.157 54.8873L135.36 54.8288L135.447 54.4194L135.708 54.1562L135.65 53.8053L135.853 53.7468L136.347 53.2497L136.289 52.9865L136.637 52.5771L137.043 51.3782L137.536 51.232V50.9688L137.739 50.6179H138.174L138.464 50.3548L138.261 50.0916L138.348 49.9454L138.754 49.7992L138.9 49.6529L138.609 49.3605L138.667 49.1558L139.306 48.7172L139.393 48.1031L139.596 47.8107L139.799 47.723L140.002 47.4598L140.35 47.3136L140.64 46.5533L141.249 46.0562L141.336 45.8515L141.597 45.793L142.294 45.1497L142.729 45.2082L142.874 45.062L142.932 44.7988L143.976 44.5064L144.324 44.3017L144.76 44.3601L144.963 44.2724L145.166 44.3309L145.514 44.1262L146.123 44.2139L146.413 44.4771H146.761L147.748 45.1789V45.5883L148.009 45.8515L148.096 46.2609L148.357 46.5533L148.415 46.758L147.661 46.8457L147.602 47.0504L148.212 47.3428L148.299 47.489L148.212 48.1031L148.705 48.0446L148.85 48.3955H148.067L147.922 48.5418L148.27 48.9804L148.212 49.1851L147.777 49.6237V50.0623L147.37 50.2085L147.225 50.3548L147.37 50.4425L147.98 50.384L148.183 50.4717L147.69 50.8811L147.748 51.0858L147.544 51.5244L147.341 51.5829L146.587 51.4367L146.442 51.5244L146.529 51.6706L146.877 51.6122L147.022 51.7584L147.167 52.1678L146.819 52.2555L146.703 52.4017L146.848 52.5479L147.138 52.3432L147.341 52.4017L147.602 52.6941V52.8988L146.616 52.9573L146.413 53.2497L146.5 53.3959L146.993 53.4544L147.051 53.6006L146.964 53.8053L146.529 54.0977L146.645 54.5071L145.891 54.5948L145.746 54.6826L145.862 54.8288L146.471 55.0335L146.906 54.9458L146.993 55.092L146.848 55.1797L146.065 55.1212L145.659 55.2089L145.543 55.3551L145.746 55.706L145.398 55.7645L145.456 55.3551L145.311 55.5013L145.369 55.706L145.137 56.1154L145.688 56.3201L145.775 56.4663V56.7295L145.427 56.8172L145.572 57.1681L145.514 57.3144L145.166 57.4606L145.079 57.6068L145.166 57.753H145.427L145.775 57.8992L145.34 58.3086L145.108 59.0689L145.253 59.3321V59.5368L144.498 59.7999V60.0631L145.05 59.9754L145.137 60.1216L145.079 60.531L144.934 60.6772L144.15 60.5895L144.005 60.6772H144.44L144.789 61.0866L144.498 61.4375H144.063L144.121 61.6422L145.05 61.7299L145.108 61.9346L144.324 62.0808L144.034 62.2855L144.092 62.6949L144.005 63.0458L144.208 63.3967L143.86 63.8353V64.04L143.715 64.1277L143.57 64.5664L143.976 64.8296L143.918 65.0927L143.628 65.3852L143.57 65.7945L143.309 66.0577L142.758 66.1162L142.7 66.2624L142.787 66.3501L143.28 66.2917L143.483 66.3794L143.831 66.2917L143.947 66.4379L143.889 66.5841H143.541L143.338 66.8765L143.483 67.2274L142.99 67.7245L143.599 67.8707L143.947 67.783V67.9877L143.686 68.3386L143.396 68.2801L143.541 68.5725L143.396 68.7187L142.613 69.0112L142.7 69.2159H143.193L143.628 68.8649L144.034 68.9527L144.179 68.4556L144.382 68.3971L144.934 68.6018L145.021 68.9527L145.166 68.8942L145.224 68.4848L144.876 68.0754L144.934 67.9292L145.282 67.7245L145.369 68.0169L145.572 67.9292L145.427 67.5783L145.63 67.2274L146.268 66.7888L146.326 66.5256L146.616 66.3794L146.906 66.087L146.964 65.8238L147.399 65.4144L147.602 65.005L148.212 64.4494L148.56 64.3617L148.908 64.9173L148.473 65.6776L148.386 66.1162L147.835 66.4086L147.777 66.818L147.632 66.9642L147.283 66.818L147.37 66.4671L147.283 66.3794L147.08 66.4379L146.993 66.7303L146.587 67.1397V67.3444L146.935 67.0812L147.138 66.7888L147.225 66.8765L147.283 67.2274L147.138 67.5783L146.587 67.783V67.9877L146.442 68.2801L146.036 68.0754L145.833 68.7187L145.63 69.0112L145.224 69.2159L145.079 69.5668L144.527 69.8299L144.411 69.9762L144.556 70.2686L144.498 70.4148L144.15 70.327L143.86 70.6195L143.802 70.8826L143.367 71.0873L142.874 70.8826L142.323 71.1458L141.975 70.9411L141.742 71.0289L141.336 70.8826L141.046 70.6195L141.162 70.1808L141.104 69.9762L141.713 69.8884L141.452 69.596L141.104 69.6837L141.017 69.8884L141.075 70.0931L140.64 70.1516L140.495 69.7422L140.35 69.596H139.712L139.654 68.9819L139.567 68.7772L139.277 68.514L139.219 68.2509L138.958 67.9L139.016 67.6075L138.667 67.3444L138.958 66.701L138.406 66.4963L138.551 66.087L138.348 65.0342L138.638 64.6249L138.493 64.1862L138.696 62.6949L138.987 62.4025L139.335 62.2563L139.045 61.9931V61.8469L139.248 61.5544L139.045 61.2035L139.19 60.9111L139.538 60.7649L139.451 60.6187V60.1801L139.538 59.9754H139.886V59.7707L139.654 59.566L139.857 59.2736L139.77 59.0689L139.915 58.6302L140.06 58.5425L140.002 57.9869L140.089 57.8407L140.437 57.6945L140.379 57.4313L140.785 56.8172L140.437 56.671L140.495 56.4663L140.785 56.3201L140.727 55.706L140.988 55.3551L140.93 55.0042L141.133 54.2147L141.278 54.127L141.191 53.7176L141.83 53.2205L141.626 52.9281L142.033 52.5187L141.684 52.3725L141.597 52.2262L141.684 52.0216L142.091 51.8753L142.149 51.4367L142.439 51.0273V50.7641L142.671 50.0623L142.613 49.7992L143.309 49.5067L143.251 49.3605L142.961 49.0974L142.903 48.9511L143.396 48.6002L143.164 48.2493L143.396 47.9862L143.744 47.8399L143.831 47.6937L143.686 47.3428L143.889 46.4363L143.802 46.2316H143.57L143.164 46.3778L142.903 46.641L142.555 46.7287L141.946 47.1674L141.83 47.5768L141.278 47.8692L141.191 48.3078L140.698 48.6587L140.611 49.0681L140.176 49.4775L140.118 49.8869L139.857 50.0916L139.451 50.1793V50.7349L139.306 50.8226L138.551 50.8811L138.638 51.5244L138.435 51.7876H138.203L138.348 52.1385L138.232 52.5771L137.942 53.0743L137.739 53.162L137.623 53.6591L137.42 53.7468L136.637 54.6533L136.695 55.2089L136.347 55.4136L136.289 55.6768L135.882 56.1739V56.3786L135.534 57.0219V57.2851L135.186 57.5483L134.838 58.2501L133.794 59.9461L133.707 61.1451L133.301 61.3498L133.04 61.9638L132.604 62.3732L132.662 62.6364L132.459 63.075L131.966 63.7768L131.56 63.9231L131.444 64.4202L130.951 64.6249V64.888L130.806 65.1805L130.197 65.0927V64.9465L129.964 64.6541L129.268 64.5956L128.717 64.0985L128.775 63.8353L128.63 63.5721V63.3675L128.137 62.9581L128.195 62.6072L128.05 62.2563L128.108 61.4082L128.311 60.7649L128.166 60.6772L128.108 60.2678L128.224 59.3613L128.166 59.0104L128.369 58.718V58.2793L128.717 56.6418L128.92 56.3494L128.862 55.7938L129.065 55.0335L128.978 54.6826L129.239 54.2439V53.9808L129.442 53.5714L129.239 53.2205L129.326 53.0158L129.471 51.7291L129.616 51.3782L129.761 51.2905L129.558 50.9981V50.1501L129.848 49.7114L129.645 49.1558L129.935 48.7464L129.848 48.3955L129.935 48.0446L129.848 47.8399L129.906 47.2843L130.051 46.9334V46.5825L129.964 46.3778L130.051 46.2316L130.139 45.4421L130.284 45.0912L130.226 44.7403L130.574 44.3894L130.284 44.0385L130.574 42.9273L130.458 42.5179L130.574 42.1085L130.806 41.8453V41.4944L130.893 41.3482L130.835 41.202L130.545 40.9973L130.632 40.237L130.574 39.389L130.864 39.1258L130.777 38.6872L130.835 38.4825L131.27 38.0731L131.212 37.8684L130.719 37.2251L130.777 36.9327L131.125 36.6403V36.4356L130.835 35.7922L131.125 35.3536L131.27 34.3594L131.212 33.9207L131.56 33.5114V33.2482L131.85 32.8388L131.908 31.0843L132.111 30.7334L131.966 30.2947L132.053 30.09L132.401 29.9438L132.198 29.4467L132.633 28.3063L132.372 27.8969L133.01 26.7564L132.952 26.464L133.098 26.3178L133.185 25.9084L133.968 25.0604L134.316 24.9727L134.867 25.2651L135.476 25.3236L136.231 25.5868L136.318 25.9962L136.492 26.0839ZM130.255 61.9638L130.313 61.8176H130.11V62.0223L130.255 61.9638ZM131.589 65.7945L131.531 65.9992L131.328 65.9115L131.386 65.7653L131.589 65.8238V65.7945ZM131.734 65.005L131.531 65.1512L131.589 65.005H131.734ZM134.577 55.5598L134.867 55.6183L134.722 55.3259L134.577 55.3844V55.5891V55.5598ZM135.708 45.1497L135.621 45.0035L135.563 45.2082L135.708 45.1497ZM135.766 55.5013L135.679 55.4136L135.621 55.6183L135.766 55.5306V55.5013ZM135.97 53.1035H136.173L135.97 53.162V53.1035ZM136.347 46.1731L136.289 46.3194L136.144 46.2316L136.231 46.0854L136.318 46.1731H136.347ZM136.492 26.8734L136.608 27.0196H136.811V26.8149L136.666 26.6102L136.463 26.6687L136.521 26.8734H136.492ZM136.608 53.3667L136.695 53.5129L137.043 53.7176V53.3667L136.753 53.162H136.55L136.608 53.3667ZM138.987 64.8003L139.393 64.8588L139.625 64.5664L139.277 64.4786L138.871 64.5664L138.783 64.7126L138.987 64.8003ZM139.683 67.6953L139.799 67.4321L139.596 67.3736L139.451 67.5198L139.509 67.7245L139.712 67.666L139.683 67.6953ZM139.625 67.1104L139.683 66.9642L139.596 66.8765L139.538 67.1397H139.625V67.1104ZM139.828 48.9219H139.915V48.7757H139.828V48.9219ZM140.234 68.5433L140.466 68.1924L140.263 68.0462L139.915 68.1924L139.857 68.3386L139.973 68.5433H140.205H140.234ZM140.118 66.9057L140.176 66.7595H140.031L139.973 66.9057H140.118ZM140.321 60.7649L140.408 60.6187H140.176L140.06 60.7649H140.321ZM140.234 61.7591L140.379 61.8176L140.524 61.6714L140.437 61.5252L140.089 61.6129L140.234 61.7591ZM140.321 62.461L140.466 62.3732L140.524 62.1685L140.321 62.0808L140.118 62.4317L140.321 62.4902V62.461ZM140.437 69.3036L140.785 69.2159L141.017 68.9234L140.93 68.7772H140.727L140.379 68.9819L140.263 69.1866L140.408 69.3328L140.437 69.3036ZM140.437 48.7172H140.524L140.437 48.571V48.7172ZM140.785 68.6603L140.872 68.5725V68.3678H140.582V68.5725L140.785 68.6603ZM141.365 68.3971L141.568 68.4556L141.801 68.1924L141.597 68.1047L141.365 68.1631L141.249 68.3094L141.365 68.3971ZM141.423 62.344H141.626L141.568 62.1978H141.423V62.344ZM141.801 54.2439L142.004 54.1855L142.062 54.0977L141.917 54.0392L141.626 54.1855L141.83 54.2439H141.801ZM142.207 53.5421H142.41L142.497 53.3959L142.352 53.3082H142.091L142.033 53.5129L142.178 53.5714L142.207 53.5421ZM142.207 67.5491L142.41 67.4028L142.207 67.3444L142.062 67.4906V67.6368L142.207 67.5491ZM142.149 70.2101V70.3563L142.294 70.4148L142.149 70.2101ZM142.555 68.4556L142.961 68.3678L143.106 68.0754L142.961 68.0169L142.468 68.2216L142.381 68.4263L142.584 68.4848L142.555 68.4556ZM142.7 65.5898L142.99 65.2389L142.787 65.1805L142.439 65.4729V65.6776L142.7 65.5898ZM142.555 66.9057L142.7 66.8473L142.758 66.701H142.555V66.9057ZM143.106 69.6837L143.164 69.479L143.019 69.4205L142.932 69.5083V69.713L143.135 69.6545L143.106 69.6837ZM143.309 61.6422L143.222 61.4375H143.077L142.99 61.6422H143.338H143.309ZM143.193 71.4382L143.135 71.6429L142.932 71.5845L143.077 71.292L143.164 71.4382H143.193ZM144.237 69.3036L144.527 69.2159L144.585 69.0112H144.353L144.208 69.1574L144.266 69.3036H144.237ZM144.382 70.8534L144.324 70.9996L144.179 70.9411L144.237 70.7949L144.382 70.8534ZM145.369 53.162L145.514 53.3082L145.717 53.2497L146.007 53.5129L146.21 53.4252L146.152 53.2205L145.543 53.0158L145.34 53.162H145.369ZM145.63 52.6941L145.833 52.6356L145.978 52.3725L145.775 52.314L145.572 52.5771L145.63 52.6649V52.6941ZM146.384 55.9107L146.239 56.0569L146.007 55.9692L145.92 55.823L146.268 55.6183L146.471 55.6768L146.413 55.94L146.384 55.9107ZM146.326 57.3144L146.123 57.4021L146.326 57.1389V57.2851V57.3144ZM146.674 50.2963L146.761 50.1501L146.616 50.0623L146.471 50.1208L146.413 50.3255H146.674V50.2963ZM147.109 50.9104L146.761 51.115L146.848 51.2613L147.341 51.0566L147.428 50.8519L147.225 50.7641L147.08 50.9104H147.109ZM146.964 50.2085H147.109L147.051 50.0623H146.906L146.964 50.2085ZM147.515 47.8107L147.37 47.6645L147.283 47.8107L147.341 47.9569L147.544 47.8107H147.515ZM147.719 66.0577H147.951L148.096 65.7068H147.893L147.69 65.97V66.0577H147.719ZM158.365 48.9219L158.22 49.0681L158.278 49.2143L158.626 49.419L158.568 49.6237L158.22 49.9746V50.1793L157.814 50.384L157.466 50.4425L157.379 50.6472L157.437 50.7349L157.872 50.8811L157.727 51.0858L157.379 51.2905L157.582 51.7876L157.379 51.8753L157.234 51.8169L157.031 51.466L156.77 51.8169L156.857 52.2555L157.06 52.5479L156.712 53.1035L156.422 52.9573L156.363 52.8111L156.305 53.2205L156.451 53.6299L156.044 53.9223L156.131 54.4779L156.073 54.6241L155.638 54.7118V54.975L155.29 55.7353L154.855 55.7938V56.2324L154.304 56.6418L154.159 56.9927L154.246 57.1974L153.956 58.1916L153.753 58.1331L153.608 58.2209V58.718L153.346 59.0104H153.085L152.998 58.5133L152.853 58.601L152.911 59.0396L152.708 59.6537L152.476 59.9169L152.418 60.1801L151.78 60.6187L151.867 61.0281L151.316 61.1743L151.171 61.379V61.7884L151.084 61.9931L150.649 62.2855L150.736 62.227L150.852 62.6656L150.707 62.7534L150.562 62.6656L150.474 62.3147L150.329 62.6656L149.546 63.3675L149.198 63.5137L149.053 63.7184L149.256 63.8061H149.604L149.662 64.2447L149.256 64.3032L148.618 64.0985L148.821 63.8061L148.937 63.3967L149.633 62.9873L149.488 62.5779L149.633 62.2855L150.068 62.227L150.213 62.0808L150.126 61.8761L150.271 61.379L150.678 61.4667L150.765 61.379L150.852 60.6187L150.997 60.4725L151.432 60.8234L151.635 60.7357L151.577 60.3263L151.432 60.1801L151.287 60.3263L151.171 60.2678L151.229 60.1216L151.519 60.1801L151.867 60.0339L152.099 59.7707L152.389 59.7122L152.244 59.3613L151.896 59.449L152.186 58.601L152.621 58.3963L152.563 57.9869L152.708 57.3728L153.114 57.6653L153.317 57.5775L153.433 56.7295L153.84 56.5833L153.782 56.3201L153.637 56.2324L153.724 56.0277L154.072 55.823V55.3259L154.507 55.2382L154.623 54.8288L154.565 54.3902L154.768 54.0392L155.609 53.1912L155.551 52.5771L155.841 52.3725L156.044 52.4309L155.957 52.7818L156.044 52.8696L156.189 52.8111L156.276 52.2555L155.986 51.6414L156.334 51.349L156.48 51.0566L156.538 50.6472L156.828 50.3548L157.176 49.7407L157.408 49.7992L157.611 49.7114L157.669 49.5652L157.379 49.302L157.437 49.0974L157.727 48.8927L157.669 48.454L157.814 48.3955L158.307 48.6002V48.8049L158.365 48.9219ZM150.242 63.1628V63.309L150.039 63.3967V63.1335H150.242V63.1628ZM155.087 55.2089L155.232 55.1212L155.29 54.9165L154.942 55.0042L154.855 55.2089H155.087ZM158.481 48.2493L158.249 48.1908L158.133 48.0446L158.249 47.7522H158.452L158.8 48.1031V48.3078L158.51 48.2493H158.481Z" fill="#FBFADA"/>
<g opacity="0.6">
<path opacity="0.7" d="M169.215 60.8819C169.766 59.3028 169.969 57.9577 169.969 55.3551V52.314C169.969 50.2085 169.418 49.0096 168.461 47.9862V47.9277L173.421 46.3486V49.2143H173.566C174.611 47.7815 176.119 46.4948 178.382 46.4948C181.022 46.4948 182.589 48.1031 182.589 50.6472V55.4136C182.589 58.0162 182.734 59.3613 183.314 60.9404V60.9989H178.237V60.9404C178.788 59.3613 178.962 57.9284 178.962 55.4429V51.3197C178.962 49.9454 178.295 48.8342 176.554 48.8342C175.365 48.8342 174.263 49.419 173.537 50.4425V55.3844C173.537 57.9284 173.711 59.3321 174.234 60.9111V60.9696H169.157V60.9111L169.215 60.8819Z" fill="#010101"/>
</g>
<path d="M260.625 20.1477C254.098 21.6099 252.908 22.8088 251.458 29.3882C250.007 22.8088 248.818 21.6099 242.291 20.1477C248.818 18.6856 250.007 17.4867 251.458 10.9073C252.908 17.4867 254.098 18.6856 260.625 20.1477Z" fill="#FBFADA"/>
<path d="M215.166 38.5117L214.238 38.8042C211.163 33.1604 208.175 31.0843 204.752 31.0843C201.764 31.0843 199.994 32.6633 199.994 35.2951C199.994 39.1258 203.998 40.8803 208.175 42.9565C212.701 45.2374 217.429 47.7522 217.429 54.2439C217.429 61.496 211.685 64.4202 205.042 64.4202C201.648 64.4202 198.08 63.6306 195.324 62.4902L194.279 53.2497L195.15 52.928C198.863 59.6245 202.257 62.5487 206.609 62.5487C210.409 62.5487 212.352 60.2386 212.352 57.2266C212.352 53.0743 208.639 51.2028 204.636 49.1851C200.081 46.8749 195.237 44.5063 195.237 38.5117C195.237 31.7568 200.778 29.2128 206.783 29.2128C209.393 29.2128 212.004 29.7099 214.18 30.4702L215.195 38.5702L215.166 38.5117Z" fill="#FBFADA"/>
<path d="M221.027 63.6306C221.955 60.9988 222.274 58.718 222.274 54.3317V36.494C222.274 32.985 221.346 30.938 219.808 29.242V29.1543L228.337 26.464V43.98H228.395C230.136 41.5237 232.718 39.3597 236.576 39.3597C240.985 39.3597 243.654 42.0793 243.654 46.3486V54.3609C243.654 58.7472 243.886 61.0281 244.844 63.6599V63.7476H236.344V63.6599C237.214 61.0281 237.533 58.5718 237.533 54.4194V47.489C237.533 45.1789 236.344 43.3367 233.53 43.3367C231.383 43.3367 229.526 44.3601 228.337 46.1439V54.4194C228.337 58.6595 228.656 61.0281 229.584 63.6599V63.7476H221.056V63.6599L221.027 63.6306Z" fill="#FBFADA"/>
<path d="M248.818 63.6306C249.543 60.9988 250.065 58.6887 250.065 54.3317V49.3313C250.065 45.8515 249.137 43.7753 247.542 42.0793V41.8161L256.128 39.1258V54.3317C256.128 58.5718 256.39 60.9988 257.318 63.6306V63.7183H248.818V63.6306Z" fill="#FBFADA"/>
<path d="M261.785 63.6306C262.714 60.9988 263.062 58.718 263.062 54.3317V49.2143C263.062 45.6468 262.134 43.6583 260.538 41.9038V41.8161L268.893 39.1258V43.9215L269.125 43.98C270.865 41.5237 273.447 39.3597 277.248 39.3597C281.686 39.3597 284.326 42.0793 284.326 46.3486V54.3609C284.326 58.7472 284.558 61.0281 285.574 63.6599V63.7476H277.045V63.6599C277.973 61.0281 278.292 58.5718 278.292 54.4194V47.489C278.292 45.1789 277.161 43.3367 274.26 43.3367C272.229 43.3367 270.401 44.3016 269.183 46.0562V54.3901C269.183 58.6887 269.444 61.0573 270.372 63.6891V63.7768H261.843V63.6891L261.785 63.6306Z" fill="#FBFADA"/>
<path d="M309.362 57.1681L310 57.6653C308.52 61.496 305.184 64.4202 299.991 64.4202C293.29 64.4202 288.939 59.5075 288.939 52.3432C288.939 44.5356 294.218 39.3598 300.369 39.3598C306.519 39.3598 310.377 44.828 309.971 50.2378H295.118C295.292 56.7003 298.657 59.566 303.299 59.566C305.764 59.566 307.795 58.7765 309.391 57.1681H309.362ZM295.147 48.3663L303.966 48.1908V47.0212C303.966 42.9858 302.689 41.202 300.339 41.202C297.555 41.202 295.524 44.2432 295.147 48.3663Z" fill="#FBFADA"/>
<path d="M95.7037 5.35129H87.61L87.4649 6.28704L55.496 6.40401C55.1769 6.40401 54.8868 6.25779 54.7127 5.96537C54.5677 5.73144 54.2776 5.4975 53.7554 5.4975C52.682 5.4975 40.7299 5.55599 40.7299 5.55599C40.7299 5.55599 40.2368 5.7022 39.8886 6.55022H32.201C32.201 6.55022 32.3461 5.87765 31.4177 5.58523L12.4162 5.64371L11.5459 4.82494H5.33783L4.23545 6.52097L4.14842 8.80185C4.14842 8.80185 4.61258 10.2055 5.48288 10.8196C5.86 11.0827 6.06307 11.5506 5.91802 12.0185L2.37881 24.3878L1.7406 24.7388L0.957327 28.0139C0.957327 28.0139 0.812278 28.6864 1.88564 28.7741H2.90099L2.61089 30.0608C2.61089 30.0608 3.10406 30.3532 3.62624 30.3825L3.19109 31.7861L3.42317 32.2832L0 46.2901C0.609208 46.7287 2.93 40.237 3.8003 39.506C3.85832 39.3598 3.97436 39.1258 4.06139 38.9796L5.71495 32.02L6.1501 31.8153L6.58525 30.1485L7.62961 29.9438L7.68763 28.394L9.10912 28.4525L10.0084 26.8149C10.0084 26.8149 19.2046 28.0723 22.0185 23.072C22.0185 23.072 24.9485 19.0658 26.0799 13.3051C26.1669 12.8372 26.5441 12.4863 26.9792 12.4571H29.8802C29.8802 12.4571 30.8956 12.1354 31.3887 10.4102C31.3887 10.4102 31.5628 9.41593 32.201 9.41593L39.8306 9.32821C39.8306 9.32821 40.2658 9.97153 41.4552 9.97153H54.1035C54.1035 9.97153 54.3936 9.97153 54.6257 9.5329C54.7997 9.24048 55.0898 9.12351 55.3799 9.12351L87.4649 9.00654C87.4649 9.00654 87.755 10.03 87.9581 9.94229C88.1902 9.85456 92.3676 9.76684 92.3676 9.76684L95.7617 9.82532C95.7617 9.82532 95.9938 9.82532 96.0809 9.76684C96.7191 9.50366 99.301 8.50943 101.187 8.45095V6.6087C101.187 6.6087 97.2703 6.55022 95.7037 5.35129ZM19.9008 21.4344C15.0561 26.6395 10.2985 23.803 10.2985 23.803C8.90605 21.9608 11.662 15.8199 11.662 15.8199L12.5903 20.8203H15.6944C14.9401 20.06 14.3309 12.1939 14.3309 12.1939L23.7301 12.1354C22.8888 17.9254 19.9008 21.4344 19.9008 21.4344Z" fill="#FBFADA"/>
<path d="M149.836 4.53251L149.778 4.50327C149.72 4.62023 149.865 4.53251 149.836 4.53251Z" fill="#FBFADA"/>
<path d="M149.633 5.64371H149.546L149.72 5.78992L149.633 5.64371Z" fill="#FBFADA"/>
<path d="M149.633 6.43325C149.633 6.43325 149.372 6.31628 149.43 6.31628C149.43 6.28704 149.372 6.19931 149.488 6.11159H149.604L149.256 5.96538C149.198 6.22856 149.169 6.22856 149.604 6.43325H149.633Z" fill="#FBFADA"/>
<path d="M149.401 5.64371C149.401 5.64371 149.401 5.58522 149.401 5.55598C149.401 5.4975 149.401 5.76068 149.546 6.11158C149.546 6.11158 149.546 6.08234 149.546 6.0531C149.546 5.96537 149.517 5.90689 149.43 5.64371H149.401Z" fill="#FBFADA"/>
<path d="M149.488 6.05309C149.43 5.8484 149.575 6.34551 149.488 6.05309V6.05309Z" fill="#FBFADA"/>
<path d="M149.024 4.15236C149.024 4.15236 149.14 4.03539 149.14 3.97691C149.14 3.80146 148.966 3.65525 149.024 3.56752C148.879 3.626 148.908 3.8307 149.024 4.15236Z" fill="#FBFADA"/>
<path d="M148.908 4.64949L148.995 4.56176C148.995 4.56176 148.937 4.44479 148.908 4.64949Z" fill="#FBFADA"/>
<path d="M149.14 4.41555L148.995 4.56176C148.995 4.56176 149.053 4.94191 149.082 4.50327C149.082 4.70797 149.082 4.50327 149.169 4.38631L149.14 4.41555Z" fill="#FBFADA"/>
<path d="M149.198 4.56176C149.198 4.56176 149.227 4.67872 149.256 4.88342C149.256 5.00039 149.256 4.9419 149.256 4.9419C149.256 4.97114 149.256 5.02963 149.256 5.05887C149.256 5.17584 149.285 5.32205 149.314 5.43902C149.314 5.58523 149.372 5.67295 149.343 5.64371C149.343 5.4975 149.285 5.38053 149.285 5.26356C149.256 5.02963 149.227 4.85418 149.198 4.70797C149.14 4.32782 149.198 4.56176 149.169 4.47403L149.198 4.56176Z" fill="#FBFADA"/>
<path d="M149.691 6.49173C149.691 6.49173 149.807 6.55021 149.865 6.57945L149.72 6.46249C149.72 6.46249 149.546 6.404 149.691 6.49173Z" fill="#FBFADA"/>
<path d="M147.98 3.18738C147.98 3.36283 148.067 3.71373 148.096 3.97691L148.212 3.8307C148.154 3.68449 148.009 3.50904 147.98 3.21662V3.18738Z" fill="#FBFADA"/>
<path d="M148.096 3.97691L147.951 4.24009C148.125 4.35706 148.125 4.21085 148.096 3.97691Z" fill="#FBFADA"/>
<path d="M148.937 5.4975L149.198 5.00038L148.879 5.4975H148.937Z" fill="#FBFADA"/>
<path d="M147.283 2.77799L147.341 2.36861L147.225 3.01193L147.283 2.77799Z" fill="#FBFADA"/>
<path d="M146.819 2.66103C146.877 2.28089 146.674 1.90074 146.732 1.69604C146.616 1.69604 146.529 2.01771 146.471 2.31013C146.558 2.16392 146.674 2.28089 146.819 2.69027V2.66103Z" fill="#FBFADA"/>
<path d="M146.355 2.71951C146.355 2.71951 146.442 2.45633 146.471 2.31012C146.413 2.39785 146.384 2.51481 146.355 2.71951Z" fill="#FBFADA"/>
<path d="M147.632 3.97691C147.632 3.97691 147.574 3.50904 147.458 3.33359L147.574 3.94767H147.632V3.97691Z" fill="#FBFADA"/>
<path d="M147.544 3.97692C147.544 3.97692 147.428 3.8892 147.399 3.85995C147.399 3.85995 147.457 3.91844 147.544 3.97692Z" fill="#FBFADA"/>
<path d="M148.444 4.91266C148.357 5.14659 148.154 5.43902 148.415 5.90689C148.473 5.58523 148.328 5.2928 148.444 4.91266Z" fill="#FBFADA"/>
<path d="M147.777 4.7372L147.98 4.91266C147.98 4.91266 147.922 4.53251 147.98 4.41554L147.806 4.7372H147.777Z" fill="#FBFADA"/>
<path d="M147.69 4.88341L147.777 4.7372L147.69 4.64948V4.88341Z" fill="#FBFADA"/>
<path d="M146.703 3.45056C146.645 3.6845 146.558 3.6845 146.442 3.71374C146.558 3.88919 146.674 3.97692 146.79 4.00616C146.79 3.80147 146.79 3.4798 146.703 3.45056Z" fill="#FBFADA"/>
<path d="M145.456 3.36284L145.485 3.47981V3.36284H145.456Z" fill="#FBFADA"/>
<path d="M146.819 4.09388C146.819 4.09388 146.935 4.09388 146.993 3.91843C146.935 3.94767 146.877 3.97691 146.819 3.97691C146.819 4.06464 146.819 4.12312 146.819 4.09388Z" fill="#FBFADA"/>
<path d="M146.094 2.9242C146.152 3.07041 146.21 3.21662 146.268 3.33359C146.21 3.09966 146.123 2.74875 146.094 2.9242Z" fill="#FBFADA"/>
<path d="M147.051 3.59677C147.022 3.42131 147.051 3.50904 147.051 3.59677V3.59677Z" fill="#FBFADA"/>
<path d="M147.051 3.59677C147.051 3.59677 146.993 3.80147 146.964 3.91843C147.022 3.88919 147.051 3.83071 147.08 3.77222C147.08 3.71374 147.08 3.65526 147.051 3.59677Z" fill="#FBFADA"/>
<path d="M145.398 7.89534C145.398 7.22278 145.572 6.60869 145.775 7.3105C145.92 6.81339 145.688 4.7372 145.456 3.4798C145.456 3.77222 145.456 4.00615 145.311 4.35706C145.398 4.7372 145.775 5.26356 145.659 5.81916C145.427 6.14082 145.456 5.55598 145.311 5.20508C145.456 6.02385 145.05 6.404 145.166 7.66141L145.369 7.22278C145.369 7.39823 145.311 7.71989 145.369 7.89534H145.398Z" fill="#FBFADA"/>
<path d="M145.833 3.6845L145.891 3.62601C145.891 3.62601 145.717 3.21662 145.572 2.66103C145.456 2.9242 145.456 3.15814 145.456 3.36283L145.833 3.56753V3.65525V3.6845Z" fill="#FBFADA"/>
<path d="M146.268 3.71374C146.268 4.35706 146.065 4.591 146.239 5.35129C146.471 5.35129 146.355 4.82494 146.471 4.56176C146.123 4.62024 146.558 4.2401 146.268 3.77222C146.326 3.6845 146.384 3.6845 146.442 3.65526C146.384 3.56753 146.297 3.42132 146.239 3.30435V3.36284C146.239 3.36284 146.239 3.50905 146.239 3.45056C146.239 3.45056 146.239 3.62601 146.239 3.71374C146.123 3.53829 146.239 3.53829 146.239 3.4798V3.39208L145.891 3.62601C145.891 3.62601 146.065 3.74298 146.239 3.74298L146.268 3.71374Z" fill="#FBFADA"/>
<path d="M148.125 6.69643C148.125 6.69643 148.125 6.40401 148.241 6.46249C148.328 6.63794 148.241 6.72567 148.27 6.90112C148.299 6.75491 148.415 6.52097 148.27 6.2578V6.31628C148.096 6.11159 147.864 5.38054 147.864 5.32205C147.951 5.84841 148.009 6.19931 148.125 6.69643Z" fill="#FBFADA"/>
<path d="M147.196 5.46826L146.906 5.73144L147.08 6.28704V5.96538C147.225 6.11159 147.167 5.7022 147.167 5.46826H147.196Z" fill="#FBFADA"/>
<path d="M145.398 2.98268V2.25163L145.282 3.2751L145.398 2.98268Z" fill="#FBFADA"/>
<path d="M145.021 2.98269L144.992 2.31012L144.905 2.69027L145.021 2.98269Z" fill="#FBFADA"/>
<path d="M122.944 11.2289L122.857 11.4044C122.857 11.4044 122.915 11.2874 122.944 11.2289Z" fill="#FBFADA"/>
<path d="M135.535 1.90073C135.418 1.08195 135.273 -0.204694 135.273 0.789534V1.75452C135.389 1.57907 135.477 1.66679 135.535 1.87149V1.90073Z" fill="#FBFADA"/>
<path d="M128.891 7.7199V7.95383C128.949 7.69066 128.978 7.42748 129.007 7.19354C128.978 7.36899 128.92 7.54445 128.891 7.7199Z" fill="#FBFADA"/>
<path d="M128.804 10.995L128.63 10.4686C128.659 10.6441 128.717 10.8195 128.804 10.995Z" fill="#FBFADA"/>
<path d="M119.405 11.4336L119.289 12.0185C119.463 12.0185 119.376 11.726 119.405 11.4336Z" fill="#FBFADA"/>
<path d="M141.046 2.36861C140.93 1.98846 140.843 1.84225 140.756 1.78377C140.901 2.33937 141.046 3.1289 141.046 2.36861Z" fill="#FBFADA"/>
<path d="M123.205 4.00616C123.205 4.00616 123.118 4.26934 123.118 4.41555C123.176 4.29858 123.205 4.15237 123.205 4.00616Z" fill="#FBFADA"/>
<path d="M140.437 1.72528C140.437 1.72528 140.466 1.87149 140.495 1.95922C140.582 1.81301 140.64 1.69604 140.756 1.78377C140.64 1.37438 140.524 1.1112 140.437 1.72528Z" fill="#FBFADA"/>
<path d="M102.869 6.93037C102.869 6.93037 102.985 6.93037 103.014 6.90112C103.014 6.90112 102.927 6.90112 102.869 6.93037Z" fill="#FBFADA"/>
<path d="M139.77 7.57368C139.77 7.71989 139.799 7.74914 139.77 7.57368V7.57368Z" fill="#FBFADA"/>
<path d="M143.57 2.60253C143.57 2.60253 143.483 2.39784 143.454 2.33936C143.454 2.39784 143.512 2.48557 143.57 2.60253Z" fill="#FBFADA"/>
<path d="M143.541 2.22239C143.541 2.22239 143.599 2.28087 143.628 2.31011C143.628 2.1639 143.628 2.07618 143.541 2.22239Z" fill="#FBFADA"/>
<path d="M143.309 2.19315C143.309 2.19315 143.396 2.25164 143.454 2.31012C143.454 2.25164 143.454 2.19315 143.454 2.16391C143.454 2.16391 143.396 2.16391 143.338 2.16391L143.309 2.19315Z" fill="#FBFADA"/>
<path d="M113.458 8.86033C113.458 8.86033 113.458 8.86033 113.458 8.83109C113.371 9.00654 113.4 8.9773 113.458 8.86033Z" fill="#FBFADA"/>
<path d="M133.069 12.5156C133.185 11.3751 133.272 11.5214 133.359 11.7845L133.272 9.09427L133.069 12.5156Z" fill="#FBFADA"/>
<path d="M121.407 11.2289L121.61 11.843C121.349 12.7495 121.175 12.3986 121.378 13.2466C121.407 11.2289 122.19 13.1882 122.219 11.1412L122.364 11.5798C122.364 11.5798 122.306 11.6676 122.277 11.6383C122.538 12.6618 122.48 10.147 122.828 10.4979C122.944 10.6733 123.031 10.995 122.944 11.2289L123.205 10.7318C123.205 10.7318 123.263 11.1412 123.205 11.112L123.611 10.995V11.0535C123.669 10.7318 123.814 10.2055 123.873 10.0008C123.989 10.3224 123.814 10.2347 123.873 10.4979L124.105 10.0008C124.192 10.5856 124.018 11.112 123.843 11.0242C124.047 13.2174 124.047 10.4979 124.482 11.8138L124.279 12.077C124.424 13.3344 124.598 12.925 124.83 13.7437C124.772 13.3051 124.337 11.6968 124.598 11.1705C124.656 11.3459 124.772 11.4336 124.888 10.995C124.888 11.7845 125.033 11.6091 125.178 11.5798V12.6326C125.352 12.3401 125.323 11.8138 125.439 11.3459C125.642 11.4629 125.671 12.3109 125.729 13.0127C126.048 13.2174 125.526 11.6383 125.874 11.4921C126.135 11.9307 126.309 11.4921 126.628 10.878C126.803 11.2874 126.599 11.5506 126.657 11.8723L126.832 10.995C126.832 10.995 126.832 11.2874 126.832 11.4336C126.977 11.112 126.832 10.3224 127.064 10.03C127.122 8.80185 127.499 11.8723 127.76 10.4979C127.818 10.8195 127.731 11.1997 127.76 11.6383C128.137 10.7318 128.079 10.995 128.369 9.73759L128.63 10.5271C128.456 9.64987 128.688 8.6264 128.891 7.77838C128.833 7.33975 128.746 6.98884 128.717 6.81339L129.065 6.17007C129.094 6.37476 129.065 6.78415 129.007 7.25202C129.007 7.1643 129.036 7.04733 129.065 6.9596C129.181 7.39823 129.123 8.0708 129.036 8.74336C129.007 8.50943 128.949 8.24625 128.92 8.01231C128.833 8.71412 128.746 9.50366 128.775 10.2055C128.775 10.0593 128.833 9.97153 128.891 9.8838C128.891 10.0885 128.862 10.2347 128.891 10.3517C128.891 10.4686 128.949 10.2055 129.007 9.91304L129.094 11.2289V10.7026L129.558 11.5798C129.878 10.2932 130.139 8.27549 130.661 7.69065C130.545 8.71412 130.661 9.35745 130.632 10.5564C130.487 9.26972 130.255 11.0535 129.994 10.7611C130.139 10.9073 130.11 11.4629 130.052 11.6676L130.516 10.5856C130.516 11.5798 130.603 11.3459 130.748 11.7553C130.661 9.79608 131.096 10.4979 131.27 9.8838C131.27 10.5564 131.241 11.2289 131.009 11.0535C131.27 12.6033 131.328 8.74336 131.589 10.0593C131.531 10.0593 131.502 9.97153 131.473 10.2932C131.618 9.70835 131.937 10.2055 131.85 10.7903H131.792C132.169 11.0827 132.924 10.9658 132.982 9.15275C132.982 9.38669 132.924 11.3167 132.895 11.6676L133.562 5.58523C133.504 7.1643 133.736 10.9365 133.417 11.7845C133.504 12.0185 133.62 12.3109 133.794 11.7845C133.736 11.5506 133.649 9.47441 133.736 9.3282C133.968 11.112 133.881 10.2932 134.171 11.843C134.084 11.4921 134.171 8.9773 134.316 9.06503C134.316 9.44517 134.316 11.5506 134.287 11.8138L134.635 9.35745C134.548 9.79608 134.635 11.4629 134.693 12.1939C134.664 11.6968 135.012 12.2816 135.099 12.0185L134.954 11.4336C135.36 11.843 135.36 7.89535 135.767 8.04156C135.709 8.56791 135.651 11.2874 135.854 11.6091C135.941 10.3224 136.26 5.29281 136.608 4.26934L136.666 5.02963L136.927 4.15237C136.782 6.14082 136.318 10.3224 136.057 11.9307C136.202 12.5156 136.115 12.808 136.347 12.7495C136.434 13.4513 136.231 13.8022 136.144 13.8607L136.695 14.3286C136.666 12.7788 137.101 12.7788 137.072 11.4921L136.492 13.1004C136.492 11.5798 136.811 8.74336 137.188 9.00654C137.275 9.62062 137.13 11.7553 137.159 12.2524C137.217 11.726 137.507 11.2289 137.536 11.6091L137.391 12.4279C137.623 12.9835 137.71 10.3809 138 11.843C138.087 11.9307 138.29 13.8022 138.29 12.8957C138.116 11.1705 138.029 5.76068 138.116 4.44479C138.145 4.56176 138.581 6.11158 138.697 6.9596C138.871 8.30473 138.523 10.2055 138.697 11.3751C138.697 10.9658 138.755 10.4394 138.784 10.2639C138.871 10.6149 138.784 11.5506 138.958 11.3459C138.958 9.79608 139.364 11.4336 139.016 10.03C139.19 9.59138 139.219 10.3224 139.451 10.2347C139.364 9.24048 139.596 6.87187 139.77 6.46249C139.77 6.84263 139.828 7.33975 139.857 7.57368C140.263 7.69065 140.495 8.36322 140.843 8.36322C140.872 8.71412 141.075 9.12351 141.017 9.76683C141.075 9.50366 141.104 9.00654 141.22 8.9773C141.482 10.2055 140.959 9.18199 141.191 10.6733C141.191 9.82532 141.453 9.47441 141.598 8.94806C141.511 7.66141 141.22 8.71412 141.075 9.26972C141.017 7.45672 141.249 5.58523 141.598 4.79569C141.888 4.3863 141.772 5.93613 141.801 5.70219C142.381 6.02386 142.178 2.74875 142.7 4.0354C142.932 5.11735 142.787 6.14082 142.874 6.93036C142.642 7.33975 142.468 6.25779 142.294 6.28703L142.526 6.81339C142.468 7.16429 142.294 7.45672 142.207 7.13505C142.41 8.10004 143.193 7.3105 143.657 8.15852C143.715 7.80762 143.831 7.45672 143.773 7.04733L143.628 7.19354C143.454 6.37476 143.831 6.0531 143.628 5.67295C143.802 5.11735 143.947 4.26934 144.237 4.73721L144.354 5.8484C144.354 5.52674 144.15 5.17584 144.092 5.4975C144.179 5.02963 144.557 7.01809 144.615 5.58523L144.383 4.79569C144.557 4.26934 144.731 3.15814 144.963 3.56753C144.818 2.48557 144.905 3.6845 144.702 2.39785C144.934 3.97692 144.121 2.16391 144.412 3.88919C144.179 2.3686 144.092 3.18738 143.802 1.84225C143.802 2.22239 143.918 2.5733 143.715 2.33936C143.715 2.45633 143.715 2.5733 143.715 2.66102C143.715 2.71951 143.715 2.71951 143.715 2.66102C143.773 2.83648 143.802 3.04117 143.831 3.24587C143.773 4.09388 143.454 4.00616 143.367 4.44479C143.251 4.24009 143.396 4.00616 143.309 3.59677L143.193 4.26934C143.135 3.39208 142.816 2.74875 143.077 2.31012L142.845 2.19315C142.671 1.6668 142.468 1.40362 142.381 1.78376C142.265 1.54983 142.12 2.71951 142.207 2.04694L141.859 2.54406V2.31012C141.482 2.10543 141.133 3.77222 140.64 1.95922C140.524 2.19315 140.408 2.45633 140.176 2.16391L140.118 1.31589C139.973 1.57907 139.625 0.380147 139.567 1.28665C139.335 -1.05271 138.784 0.672567 138.494 0.233937V1.37438C138.319 1.28665 138.116 1.60831 137.884 2.07618V3.09965C137.71 3.94767 137.362 2.3686 137.043 2.48557C137.043 2.10543 137.159 2.19315 137.217 2.42709C136.811 0.116969 136.405 4.15237 136.028 2.48557C135.941 2.86572 135.883 2.74875 135.825 2.48557C135.825 2.48557 135.825 2.48557 135.825 2.42709H135.796C135.767 2.25164 135.709 2.04694 135.68 1.90073C135.709 2.13467 135.738 2.33936 135.796 2.42709C135.738 2.42709 135.622 2.60254 135.505 2.83648L135.447 1.75452C135.447 1.75452 135.447 1.75452 135.447 1.78376C135.331 1.40362 135.36 2.31012 135.447 3.1289C135.389 3.30435 135.36 3.53829 135.302 3.80146C135.215 2.07618 135.041 4.41555 134.925 2.5733C134.867 3.4798 134.403 3.30435 134.345 5.17584C134.345 4.9419 134.316 4.82493 134.345 4.79569C134.229 4.591 134.113 4.3863 133.997 4.91266L133.939 3.56753L133.678 5.38053C133.533 4.591 133.446 4.12313 133.62 3.09965C133.243 4.70797 133.33 3.74298 133.011 5.29281V4.44479C133.011 4.44479 132.721 5.61447 132.663 4.9419C132.401 3.42132 131.415 4.82493 130.777 3.53829C130.893 5.78992 130.487 2.5733 130.458 4.32782C130.429 3.80146 130.342 3.50904 130.458 3.04117C130.139 3.59677 129.965 2.28088 129.733 3.77222C129.704 3.24586 129.791 3.01193 129.762 2.69027C129.762 2.80723 129.645 3.15814 129.616 2.86572C129.587 2.5733 129.674 2.42709 129.704 2.19315C129.355 2.33936 129.326 3.91843 129.297 5.40977C129.123 4.73721 129.036 4.82493 128.92 5.78992C128.862 5.32205 128.775 4.82493 128.978 4.64948C128.862 4.591 128.253 4.0354 128.253 5.17584C128.224 4.88342 128.079 5.08811 128.05 5.23432C127.789 5.17584 127.76 5.08811 127.499 5.23432L127.557 5.40977C127.441 6.78415 127.354 5.73144 127.122 5.90689V5.76068C126.657 4.82493 126.919 6.22855 126.454 5.17584V5.99461C126.454 7.74914 126.048 4.97114 125.787 5.67295L125.874 6.14082C125.729 6.72566 125.468 3.80146 125.294 3.62601C125.265 3.4798 125.352 3.39208 125.381 3.27511C124.975 2.31012 125.323 4.32782 125.033 4.591C124.975 4.0354 125.091 3.15814 124.917 3.07041C124.83 2.63178 124.337 4.91266 124.076 3.88919C124.134 4.29858 124.192 4.70797 124.076 5.02963C123.873 5.17584 123.495 3.50904 123.321 4.82493C123.321 4.70797 123.292 4.62024 123.292 4.50327C123.118 4.85418 122.77 5.08811 122.683 5.78992C122.538 3.27511 121.697 7.07657 121.697 4.76645L121.204 4.9419V4.70797C120.913 4.591 120.797 5.1466 120.681 5.67295C120.594 5.52674 120.681 5.32205 120.681 5.20508C120.217 4.79569 120.188 4.91266 119.782 5.99461V5.32205C119.637 5.73144 119.086 4.32782 118.622 5.1466C118.622 5.05887 118.622 4.9419 118.68 4.85418C118.158 5.64371 117.461 3.27511 117.287 5.55598L116.939 6.14082C117.374 6.28703 116.881 7.10581 117.055 7.45672C116.881 7.57368 116.62 6.81339 116.823 6.66718V6.78415C116.939 5.64371 116.33 6.404 116.33 5.64371C115.489 5.76068 114.647 5.26356 113.835 5.35129L113.922 6.11158H113.632C113.545 5.93613 113.545 5.52674 113.719 5.52674C113.603 5.11735 113.371 5.93613 113.371 6.08234C112.994 5.81916 113.516 5.20508 113.4 5.20508L113.226 5.29281V5.38053C113.139 5.70219 113.11 6.02386 112.878 5.99461C112.733 5.87765 112.791 5.55598 112.733 5.55598C112.733 5.4975 112.733 5.4975 112.646 5.55598H112.298L112.443 6.08234C112.298 6.37476 112.123 6.08234 112.269 6.69642C112.036 5.76068 110.963 6.49173 110.818 6.19931C110.586 6.57945 110.383 6.57945 110.122 6.57945C110.18 6.66718 110.238 7.19354 110.006 7.13505C110.093 6.0531 109.571 6.69642 109.397 5.99461C109.571 6.46249 108.729 6.19931 108.99 6.84263C108.787 6.78415 108.99 6.46249 108.845 6.25779C108.381 6.66718 107.83 6.17007 107.279 6.37476C107.279 6.49173 107.366 6.63794 107.25 6.81339L106.96 6.31628C106.96 6.31628 106.844 6.93036 106.641 6.6087C106.641 6.69642 106.699 6.81339 106.641 6.84263C105.538 6.55021 104.378 7.3105 103.246 6.90112C103.392 6.98884 103.304 7.01809 103.188 7.04733C103.275 7.04733 103.188 7.19354 103.188 7.25202L102.724 7.10581C102.637 7.31051 102.231 7.19354 102.173 7.33975H102.318C102.115 7.48596 102.608 7.69065 102.579 7.98307C102.811 7.74914 103.159 8.4217 103.537 8.10004C103.624 8.18777 103.479 8.18777 103.537 8.27549C103.624 8.15852 103.74 8.12928 103.943 8.21701C104.523 8.27549 104.784 8.48019 105.422 8.71412L105.364 8.48019C105.364 8.48019 105.538 8.59715 105.596 8.68488C105.77 8.36322 105.19 8.6264 105.335 8.24625C105.509 8.74336 106.322 8.33398 106.438 8.94806C106.641 8.9773 106.38 8.6264 106.583 8.65564L106.641 8.83109L106.699 8.6264C106.699 8.6264 106.902 8.91882 106.902 9.06503C106.873 9.06503 106.815 9.06503 106.757 9.09427C106.931 9.3282 107.279 9.09427 107.337 9.18199L107.134 9.03578C107.714 8.94806 108.439 9.3282 109.019 8.9773V8.80185C109.397 8.53867 109.31 9.03578 109.803 8.91882C109.803 8.91882 110.035 8.71412 110.151 8.74336C110.035 8.94806 110.383 9.18199 110.209 9.38669C110.673 9.09427 110.441 9.12351 110.76 8.45094L110.818 8.77261C110.934 8.50943 110.934 8.33398 111.166 8.27549C110.963 8.53867 111.311 8.77261 111.108 9.12351C111.601 9.91304 111.862 8.45094 112.065 9.56214C112.298 8.6264 111.63 8.9773 111.775 8.80185C111.659 8.48019 111.978 8.10004 112.123 8.21701C112.269 8.21701 112.385 9.47441 112.791 9.50366C112.762 9.50366 112.762 9.56214 112.704 9.56214C112.849 9.82532 112.994 9.24048 113.168 9.70835C113.284 9.09427 113.4 9.76683 113.429 8.9773L113.052 9.12351C113.255 8.94806 113.458 8.01231 113.806 8.48019C113.806 8.65564 113.69 8.86033 113.603 8.9773C113.69 9.24048 113.806 8.83109 113.893 9.09427C113.864 9.91304 113.458 9.24048 113.226 9.82532C113.342 10.1762 113.661 9.29896 113.545 10.147C113.719 9.03578 113.951 10.3517 114.212 9.50366V10.0008C114.212 10.0008 114.328 9.70835 114.415 9.70835L114.27 10.3517C114.502 9.82532 114.705 10.9073 114.908 10.6441C114.473 10.5856 114.821 10.0008 114.618 9.59138C115.17 8.94806 114.937 10.995 115.547 10.8488C115.46 10.9073 115.228 10.4686 115.373 10.2347C115.489 10.3517 115.634 10.5856 115.721 10.9073C116.127 10.8488 115.663 10.3224 115.837 10.03C115.982 10.7318 116.04 9.79608 116.214 9.59138V10.1762C116.678 10.6149 116.33 8.9773 116.765 9.47441L116.591 10.2639L116.794 10.0885L116.736 10.7611C116.968 10.2932 117.055 10.4394 117.287 10.6441C117.229 10.2055 117.316 9.56214 117.519 9.56214C117.664 9.94229 117.432 10.147 117.722 10.0885C117.664 10.4686 117.577 10.9365 117.461 10.3517C117.461 10.5564 117.403 10.7318 117.374 10.9073C117.519 11.3459 117.751 11.0535 117.867 11.0827C117.838 11.0535 117.78 11.0242 117.751 10.9073L118.158 10.0885C118.216 10.3224 118.158 10.5271 118.129 10.7026C118.216 10.6441 118.274 10.3517 118.39 10.3224C118.361 10.8195 118.39 11.3751 118.187 11.5798L118.593 11.0827C118.593 11.3167 118.796 11.726 118.738 11.9307C118.97 12.2816 119.289 10.995 119.579 11.4629C119.579 11.3459 119.637 11.2582 119.695 11.1997C119.985 11.3459 120.217 12.077 120.536 11.3751L120.71 12.4279C120.972 12.2232 120.449 11.112 120.884 10.7903C121.175 10.4979 121.001 11.6676 121.117 11.9892C121.262 11.4921 121.523 10.4394 121.813 11.3459C121.726 11.5214 121.639 11.3459 121.552 11.4336L121.407 11.2289ZM124.569 11.0827C124.511 11.2289 124.395 11.726 124.337 11.2582C124.395 10.3809 124.453 10.7903 124.569 11.0827ZM129.355 9.44517C129.297 9.73759 129.239 9.59138 129.152 9.24048C129.21 9.18199 129.268 9.21124 129.355 9.44517ZM142.555 2.71951V2.77799C142.41 2.3686 142.468 2.54406 142.555 2.71951ZM142.845 3.18738C142.845 3.18738 142.845 2.9242 142.845 2.80723C142.845 3.04117 142.787 3.04117 142.7 2.95344C142.729 3.21662 142.758 3.39208 142.845 3.18738ZM112.588 5.64371L112.646 5.76068C112.53 5.90689 112.559 5.76068 112.588 5.64371Z" fill="#FBFADA"/>
<path d="M119.434 11.3167V11.2874L119.405 11.4336L119.434 11.3167Z" fill="#FBFADA"/>
<path d="M138.697 11.9015C138.639 11.7553 138.61 11.5506 138.581 11.3459C138.581 11.6091 138.61 11.843 138.697 11.9015Z" fill="#FBFADA"/>
<path d="M144.266 2.04694L144.092 2.22239C144.092 2.22239 144.208 2.39784 144.266 2.54405C144.266 2.33936 144.208 2.04694 144.266 2.04694Z" fill="#FBFADA"/>
<path d="M146.094 7.33974C146.094 7.33974 146.152 7.33974 146.181 7.22278V6.87187C146.181 6.87187 145.978 7.19353 146.094 7.33974Z" fill="#FBFADA"/>
<path d="M144.585 4.9419C144.643 5.67295 144.73 5.43902 144.847 5.32205C144.847 4.32782 144.701 4.64948 144.585 4.9419Z" fill="#FBFADA"/>
<path d="M144.876 5.2928C144.876 5.2928 144.963 5.26356 144.992 5.2928C144.992 4.91266 144.934 5.20508 144.876 5.2928Z" fill="#FBFADA"/>
<path d="M143.193 2.74875C143.251 2.95345 143.193 1.75453 143.222 2.10543C143.222 1.14044 142.874 3.18738 143.193 2.74875Z" fill="#FBFADA"/>
<path d="M144.789 7.31051L144.702 6.40401L144.673 7.13506L144.789 7.31051Z" fill="#FBFADA"/>
<path d="M143.744 6.63794L143.947 6.90112C143.947 6.75491 143.947 6.66718 143.976 6.57946C143.86 6.55022 143.715 6.34552 143.715 6.63794H143.744Z" fill="#FBFADA"/>
<path d="M144.005 6.57945C144.005 6.57945 144.121 6.57945 144.15 6.43324C144.121 6.43324 144.034 6.46248 144.005 6.57945Z" fill="#FBFADA"/>
<path d="M144.528 7.57369L144.47 7.39824L144.324 7.33975L144.528 7.57369Z" fill="#FBFADA"/>
<path d="M141.569 6.40401L141.365 6.69643C141.365 7.04733 141.423 7.28127 141.511 7.13506C141.569 6.87188 141.627 6.75491 141.598 6.40401H141.569Z" fill="#FBFADA"/>
<path d="M142.352 9.182C142.294 8.97731 142.265 8.74337 142.236 8.42171V9.67911L142.352 9.182Z" fill="#FBFADA"/>
<path d="M141.685 9.56213C141.685 9.91304 141.394 10.6441 141.685 10.5271C141.685 10.1762 141.917 9.85455 141.685 9.56213Z" fill="#FBFADA"/>
<path d="M138.29 8.07079L138.348 8.04155L138.319 5.73143L138.29 8.07079Z" fill="#FBFADA"/>
<path d="M135.331 13.6268C135.592 14.2116 135.389 12.2232 135.621 12.925C135.679 12.3694 135.418 12.3401 135.476 11.8723C135.331 12.4279 135.244 12.1062 135.302 13.6268H135.331Z" fill="#FBFADA"/>
<path d="M135.505 11.8723C135.505 11.8723 135.563 11.6676 135.592 11.5214C135.534 11.6676 135.534 11.7845 135.505 11.8723Z" fill="#FBFADA"/>
<path d="M102.26 6.87188L102.086 6.84264L102.202 6.93036L102.26 6.87188Z" fill="#FBFADA"/>
<path d="M101.941 7.1058V6.95959L101.796 7.1058C101.825 7.1058 101.912 7.07656 101.941 7.1058Z" fill="#FBFADA"/>
<path d="M125.033 13.3051V13.0419C125.033 12.7495 124.975 12.7203 124.888 12.691L125.033 13.3051Z" fill="#FBFADA"/>
<path d="M122.741 12.1647L122.77 12.1939L122.683 11.2874L122.741 12.1647Z" fill="#FBFADA"/>
<path d="M120.797 12.9835C120.797 12.9835 120.971 12.8665 121.058 12.925C120.884 13.0419 120.797 11.9307 120.797 12.9835Z" fill="#FBFADA"/>
</g>
<defs>
<clipPath id="clip0_8_118">
<rect width="310" height="76" fill="white"/>
</clipPath>
</defs>
</svg>
